M48
; DRILL file {KiCad 8.0.3} date 2024-07-07T19:33:01+0800
; FORMAT={-:-/ absolute / inch / decimal}
; #@! TF.CreationDate,2024-07-07T19:33:01+08:00
; #@! TF.GenerationSoftware,Kicad,Pcbnew,8.0.3
; #@! TF.FileFunction,Plated,1,2,PTH
FMAT,2
INCH
; #@! TA.AperFunction,Plated,PTH,ViaDrill
T1C0.0118
; #@! TA.AperFunction,Plated,PTH,ComponentDrill
T2C0.0315
; #@! TA.AperFunction,Plated,PTH,ComponentDrill
T3C0.0350
; #@! TA.AperFunction,Plated,PTH,ComponentDrill
T4C0.0354
; #@! TA.AperFunction,Plated,PTH,ComponentDrill
T5C0.0394
; #@! TA.AperFunction,Plated,PTH,ComponentDrill
T6C0.0433
; #@! TA.AperFunction,Plated,PTH,ComponentDrill
T7C0.0440
; #@! TA.AperFunction,Plated,PTH,ComponentDrill
T8C0.0500
; #@! TA.AperFunction,Plated,PTH,ComponentDrill
T9C0.0512
%
G90
G05
T1
X5.8465Y-3.6516
X6.0157Y-3.2953
X6.063Y-3.2382
X6.1024Y-3.1791
T2
X2.5Y-3.8681
X2.6969Y-3.8681
X2.8445Y-2.7264
X2.9406Y-4.4587
X3.0413Y-2.7264
X3.1594Y-2.7461
X3.2406Y-4.4587
X3.3169Y-1.6929
X3.3563Y-2.7461
X3.5138Y-1.6929
X3.5386Y-4.4587
X3.8189Y-1.7028
X3.8386Y-4.4587
X4.0157Y-1.7028
X4.1291Y-3.7795
X4.2028Y-2.7362
X4.3504Y-4.1339
X4.3996Y-2.7362
X4.4291Y-3.7795
X4.5472Y-3.3858
X4.5472Y-4.1339
X4.626Y-3.3858
T3
X2.6378Y-4.235
X2.6378Y-5.135
X2.7378Y-4.235
X2.7378Y-5.135
X2.8378Y-4.235
X2.8378Y-5.135
X2.9378Y-4.235
X2.9378Y-5.135
X3.0378Y-4.235
X3.0378Y-5.135
X3.1378Y-4.235
X3.1378Y-5.135
X3.2378Y-4.235
X3.2378Y-5.135
X3.3378Y-4.235
X3.3378Y-5.135
X3.4378Y-4.235
X3.4378Y-5.135
X3.5378Y-4.235
X3.5378Y-5.135
X3.6378Y-4.235
X3.6378Y-5.135
X3.7378Y-4.235
X3.7378Y-5.135
X3.8378Y-4.235
X3.8378Y-5.135
X3.9378Y-4.235
X3.9378Y-5.135
X4.0378Y-4.235
X4.0378Y-5.135
T4
X4.2307Y-3.5236
X4.3307Y-3.5236
T5
X2.5787Y-2.0016
X2.5787Y-2.1016
X2.5787Y-2.2016
X2.5787Y-2.3016
X2.5787Y-2.4016
X2.5787Y-2.5016
X2.5787Y-2.6016
X2.5787Y-2.7016
X2.5789Y-2.8921
X2.5789Y-2.9921
X2.5789Y-3.0921
X2.5789Y-3.1921
X2.5789Y-3.2921
X2.5789Y-3.3921
X2.5789Y-3.4921
X2.5789Y-3.5921
X2.6374Y-5.3122
X2.6378Y-4.0524
X2.7374Y-5.3122
X2.7378Y-4.0524
X2.8374Y-5.3122
X2.8378Y-4.0524
X2.9374Y-5.3122
X2.9378Y-4.0524
X3.0374Y-5.3122
X3.0378Y-4.0524
X3.1374Y-5.3122
X3.1378Y-4.0524
X3.2374Y-5.3122
X3.2378Y-4.0524
X3.3374Y-5.3122
X3.3378Y-4.0524
X3.4374Y-5.3122
X3.4378Y-4.0524
X3.5374Y-5.3122
X3.5378Y-4.0524
X3.6374Y-5.3122
X3.6378Y-4.0524
X3.7374Y-5.3122
X3.7378Y-4.0524
X3.8189Y-2.9134
X3.8189Y-3.0134
X3.8189Y-3.1134
X3.8189Y-3.3614
X3.8189Y-3.4614
X3.8189Y-3.5614
X3.8189Y-3.6614
X3.8189Y-3.7614
X3.8374Y-5.3122
X3.8378Y-4.0524
X3.9374Y-5.3122
X3.9378Y-4.0524
X4.0374Y-5.3122
X4.0378Y-4.0524
X4.0748Y-2.9134
X4.0748Y-3.0134
X4.0748Y-3.1134
X4.249Y-5.3307
X4.3307Y-2.9134
X4.3307Y-3.0134
X4.3307Y-3.1134
X4.349Y-5.3307
X4.5866Y-2.915
X4.5866Y-3.015
X4.5866Y-3.115
X4.7315Y-1.9882
X4.7315Y-2.4866
X4.828Y-3.0197
X5.0249Y-3.0197
X5.0315Y-1.9882
X5.0315Y-2.5866
X5.4567Y-1.7205
X5.4567Y-2.0205
X5.4567Y-2.2717
X5.4567Y-2.5717
X5.4567Y-2.8425
X5.4567Y-3.1425
X5.4567Y-3.3937
X5.4567Y-3.6937
X5.4567Y-3.9449
X5.4567Y-4.2449
X5.4567Y-4.4961
X5.4567Y-4.7961
X5.4567Y-5.0472
X5.4567Y-5.3472
X5.9551Y-2.0205
X5.9551Y-2.5717
X5.9551Y-3.1425
X5.9551Y-3.6937
X5.9551Y-4.2449
X5.9551Y-4.7961
X5.9551Y-5.3472
X6.0551Y-1.7205
X6.0551Y-2.2717
X6.0551Y-2.8425
X6.0551Y-3.3937
X6.0551Y-3.9449
X6.0551Y-4.4961
X6.0551Y-5.0472
X6.2165Y-3.2512
X6.2165Y-3.3512
X6.2165Y-3.4512
X6.2165Y-3.5512
X6.2165Y-3.6512
X6.2165Y-3.7512
X6.2165Y-3.8512
X6.2165Y-3.9512
T6
X4.6819Y-1.752
X5.0819Y-1.752
X5.2362Y-1.6701
X5.2362Y-2.0701
X5.2362Y-2.2244
X5.2362Y-2.6244
X5.2362Y-2.7921
X5.2362Y-3.1921
X5.2362Y-3.3433
X5.2362Y-3.7433
X5.2362Y-3.8945
X5.2362Y-4.2945
X5.2362Y-4.4457
X5.2362Y-4.8457
X5.2362Y-4.9969
X5.2362Y-5.3969
T7
X2.7949Y-2.4961
X2.7949Y-2.5961
X2.7953Y-1.7961
X2.7953Y-1.8961
X2.7953Y-1.9961
X2.7953Y-2.0961
X2.7953Y-2.1961
X2.7953Y-2.2961
X2.7953Y-2.3961
X2.7989Y-3.563
X2.7989Y-3.663
X2.7992Y-2.863
X2.7992Y-2.963
X2.7992Y-3.063
X2.7992Y-3.163
X2.7992Y-3.263
X2.7992Y-3.363
X2.7992Y-3.463
X3.0949Y-2.4961
X3.0949Y-2.5961
X3.0953Y-1.7961
X3.0953Y-1.8961
X3.0953Y-1.9961
X3.0953Y-2.0961
X3.0953Y-2.1961
X3.0953Y-2.2961
X3.0953Y-2.3961
X3.0989Y-3.563
X3.0989Y-3.663
X3.0992Y-2.863
X3.0992Y-2.963
X3.0992Y-3.063
X3.0992Y-3.163
X3.0992Y-3.263
X3.0992Y-3.363
X3.0992Y-3.463
X3.2754Y-1.8335
X3.2754Y-1.9335
X3.2754Y-2.0335
X3.2754Y-2.1335
X3.2754Y-2.2335
X3.2754Y-2.3335
X3.2754Y-2.4335
X3.2754Y-2.5335
X3.2754Y-2.8965
X3.2754Y-2.9965
X3.2754Y-3.0965
X3.2754Y-3.1965
X3.2754Y-3.2965
X3.2754Y-3.3965
X3.2754Y-3.4965
X3.2754Y-3.5965
X3.5754Y-1.8335
X3.5754Y-1.9335
X3.5754Y-2.0335
X3.5754Y-2.1335
X3.5754Y-2.2335
X3.5754Y-2.3335
X3.5754Y-2.4335
X3.5754Y-2.5335
X3.5754Y-2.8965
X3.5754Y-2.9965
X3.5754Y-3.0965
X3.5754Y-3.1965
X3.5754Y-3.2965
X3.5754Y-3.3965
X3.5754Y-3.4965
X3.5754Y-3.5965
X3.7598Y-1.8504
X3.7598Y-1.9504
X3.7598Y-2.0504
X3.7598Y-2.1504
X3.7598Y-2.2504
X3.7598Y-2.3504
X3.7598Y-2.4504
X3.7598Y-2.5504
X4.0598Y-1.8504
X4.0598Y-1.9504
X4.0598Y-2.0504
X4.0598Y-2.1504
X4.0598Y-2.2504
X4.0598Y-2.3504
X4.0598Y-2.4504
X4.0598Y-2.5504
X4.2246Y-2.4686
X4.2246Y-2.5686
X4.225Y-1.7685
X4.225Y-1.8685
X4.225Y-1.9685
X4.225Y-2.0685
X4.225Y-2.1685
X4.225Y-2.2685
X4.225Y-2.3685
X4.5246Y-2.4686
X4.5246Y-2.5686
X4.525Y-1.7685
X4.525Y-1.8685
X4.525Y-1.9685
X4.525Y-2.0685
X4.525Y-2.1685
X4.525Y-2.2685
X4.525Y-2.3685
T8
X4.7598Y-4.1577
X4.8602Y-4.1577
X4.9606Y-4.1577
T9
X4.5827Y-5.2283
X4.7795Y-5.2283
X4.9764Y-5.2283
M30
