%TF.GenerationSoftware,KiCad,Pcbnew,8.0.3*%
%TF.CreationDate,2024-07-07T19:39:03+08:00*%
%TF.ProjectId,V2.2 Mechanical Seven Segment Controller,56322e32-204d-4656-9368-616e6963616c,4*%
%TF.SameCoordinates,Original*%
%TF.FileFunction,Soldermask,Bot*%
%TF.FilePolarity,Negative*%
%FSLAX46Y46*%
G04 Gerber Fmt 4.6, Leading zero omitted, Abs format (unit mm)*
G04 Created by KiCad (PCBNEW 8.0.3) date 2024-07-07 19:39:03*
%MOMM*%
%LPD*%
G01*
G04 APERTURE LIST*
G04 Aperture macros list*
%AMRoundRect*
0 Rectangle with rounded corners*
0 $1 Rounding radius*
0 $2 $3 $4 $5 $6 $7 $8 $9 X,Y pos of 4 corners*
0 Add a 4 corners polygon primitive as box body*
4,1,4,$2,$3,$4,$5,$6,$7,$8,$9,$2,$3,0*
0 Add four circle primitives for the rounded corners*
1,1,$1+$1,$2,$3*
1,1,$1+$1,$4,$5*
1,1,$1+$1,$6,$7*
1,1,$1+$1,$8,$9*
0 Add four rect primitives between the rounded corners*
20,1,$1+$1,$2,$3,$4,$5,0*
20,1,$1+$1,$4,$5,$6,$7,0*
20,1,$1+$1,$6,$7,$8,$9,0*
20,1,$1+$1,$8,$9,$2,$3,0*%
%AMFreePoly0*
4,1,25,0.719954,1.182520,0.732125,1.172125,1.172125,0.732125,1.200744,0.675956,1.202000,0.660000,1.202000,-0.660000,1.182520,-0.719954,1.172125,-0.732125,0.732125,-1.172125,0.675956,-1.200744,0.660000,-1.202000,-0.660000,-1.202000,-0.719954,-1.182520,-0.732125,-1.172125,-1.172125,-0.732125,-1.200744,-0.675956,-1.202000,-0.660000,-1.202000,0.660000,-1.182520,0.719954,-1.172125,0.732125,
-0.732125,1.172125,-0.675956,1.200744,-0.660000,1.202000,0.660000,1.202000,0.719954,1.182520,0.719954,1.182520,$1*%
G04 Aperture macros list end*
%ADD10C,1.600000*%
%ADD11O,1.600000X1.600000*%
%ADD12RoundRect,0.102000X-0.838200X-0.838200X0.838200X-0.838200X0.838200X0.838200X-0.838200X0.838200X0*%
%ADD13C,1.880400*%
%ADD14C,2.200000*%
%ADD15C,2.404000*%
%ADD16FreePoly0,0.000000*%
%ADD17R,2.200000X2.200000*%
%ADD18O,2.200000X2.200000*%
%ADD19C,3.200000*%
%ADD20R,1.700000X1.700000*%
%ADD21O,1.700000X1.700000*%
%ADD22RoundRect,0.102000X-0.955000X-0.955000X0.955000X-0.955000X0.955000X0.955000X-0.955000X0.955000X0*%
%ADD23C,2.114000*%
%ADD24RoundRect,0.102000X0.965000X-0.965000X0.965000X0.965000X-0.965000X0.965000X-0.965000X-0.965000X0*%
%ADD25C,2.134000*%
%ADD26R,1.600000X1.600000*%
%ADD27R,1.800000X1.800000*%
%ADD28C,1.800000*%
%ADD29R,2.000000X2.000000*%
%ADD30C,2.000000*%
G04 APERTURE END LIST*
D10*
%TO.C,R3*%
X89880000Y-113250000D03*
D11*
X97500000Y-113250000D03*
%TD*%
D12*
%TO.C,U6*%
X95500000Y-47000000D03*
D13*
X95500000Y-49540000D03*
X95500000Y-52080000D03*
X95500000Y-54620000D03*
X95500000Y-57160000D03*
X95500000Y-59700000D03*
X95500000Y-62240000D03*
X95500000Y-64780000D03*
X103120000Y-64780000D03*
X103120000Y-62240000D03*
X103120000Y-59700000D03*
X103120000Y-57160000D03*
X103120000Y-54620000D03*
X103120000Y-52080000D03*
X103120000Y-49540000D03*
X103120000Y-47000000D03*
%TD*%
D10*
%TO.C,R2*%
X74690000Y-113250000D03*
D11*
X82310000Y-113250000D03*
%TD*%
D14*
%TO.C,K4*%
X153800000Y-86200000D03*
X151260000Y-93820000D03*
X138600000Y-86200000D03*
X138600000Y-93820000D03*
%TD*%
D12*
%TO.C,U4*%
X83194400Y-46570600D03*
D13*
X83194400Y-49110600D03*
X83194400Y-51650600D03*
X83194400Y-54190600D03*
X83194400Y-56730600D03*
X83194400Y-59270600D03*
X83194400Y-61810600D03*
X83194400Y-64350600D03*
X90814400Y-64350600D03*
X90814400Y-61810600D03*
X90814400Y-59270600D03*
X90814400Y-56730600D03*
X90814400Y-54190600D03*
X90814400Y-51650600D03*
X90814400Y-49110600D03*
X90814400Y-46570600D03*
%TD*%
D10*
%TO.C,C6*%
X72250000Y-69250000D03*
X77250000Y-69250000D03*
%TD*%
D15*
%TO.C,J11*%
X126400000Y-132800000D03*
X121400000Y-132800000D03*
D16*
X116400000Y-132800000D03*
%TD*%
D12*
%TO.C,U3*%
X71000000Y-45620000D03*
D13*
X71000000Y-48160000D03*
X71000000Y-50700000D03*
X71000000Y-53240000D03*
X71000000Y-55780000D03*
X71000000Y-58320000D03*
X71000000Y-60860000D03*
X70991200Y-63401200D03*
X70991200Y-65941200D03*
X78611200Y-65941200D03*
X78611200Y-63401200D03*
X78620000Y-60860000D03*
X78620000Y-58320000D03*
X78620000Y-55780000D03*
X78620000Y-53240000D03*
X78620000Y-50700000D03*
X78620000Y-48160000D03*
X78620000Y-45620000D03*
%TD*%
D17*
%TO.C,D3*%
X133000000Y-81080000D03*
D18*
X133000000Y-70920000D03*
%TD*%
D19*
%TO.C,*%
X64500000Y-44500000D03*
%TD*%
D20*
%TO.C,F1*%
X107925000Y-135400000D03*
D21*
X110465000Y-135400000D03*
%TD*%
D14*
%TO.C,K2*%
X153800000Y-57700000D03*
X151260000Y-65320000D03*
X138600000Y-57700000D03*
X138600000Y-65320000D03*
%TD*%
D17*
%TO.C,D4*%
X133000000Y-95080000D03*
D18*
X133000000Y-84920000D03*
%TD*%
D19*
%TO.C,*%
X126000000Y-87500000D03*
%TD*%
D22*
%TO.C,U7*%
X120900000Y-105605000D03*
D23*
X123450000Y-105605000D03*
X126000000Y-105605000D03*
%TD*%
D19*
%TO.C,A1*%
X63190000Y-129160000D03*
X106370000Y-129160000D03*
X63190000Y-108840000D03*
X106370000Y-108840000D03*
D24*
X67000000Y-130430000D03*
D25*
X69540000Y-130430000D03*
X72080000Y-130430000D03*
X74620000Y-130430000D03*
X77160000Y-130430000D03*
X79700000Y-130430000D03*
X82240000Y-130430000D03*
X84780000Y-130430000D03*
X87320000Y-130430000D03*
X89860000Y-130430000D03*
X92400000Y-130430000D03*
X94940000Y-130430000D03*
X97480000Y-130430000D03*
X100020000Y-130430000D03*
X102560000Y-130430000D03*
D24*
X67000000Y-107570000D03*
D25*
X69540000Y-107570000D03*
X72080000Y-107570000D03*
X74620000Y-107570000D03*
X77160000Y-107570000D03*
X79700000Y-107570000D03*
X82240000Y-107570000D03*
X84780000Y-107570000D03*
X87320000Y-107570000D03*
X89860000Y-107570000D03*
X92400000Y-107570000D03*
X94940000Y-107570000D03*
X97480000Y-107570000D03*
X100020000Y-107570000D03*
X102560000Y-107570000D03*
%TD*%
D20*
%TO.C,J8*%
X157900000Y-100360000D03*
D21*
X157900000Y-97820000D03*
X157900000Y-95280000D03*
X157900000Y-92740000D03*
X157900000Y-90200000D03*
X157900000Y-87660000D03*
X157900000Y-85120000D03*
X157900000Y-82580000D03*
%TD*%
D20*
%TO.C,J4*%
X97000000Y-74000000D03*
D21*
X97000000Y-76540000D03*
X97000000Y-79080000D03*
%TD*%
D26*
%TO.C,C3*%
X115500000Y-86000000D03*
D10*
X117500000Y-86000000D03*
%TD*%
D20*
%TO.C,J9*%
X67000000Y-102930000D03*
D21*
X69540000Y-102930000D03*
X72080000Y-102930000D03*
X74620000Y-102930000D03*
X77160000Y-102930000D03*
X79700000Y-102930000D03*
X82240000Y-102930000D03*
X84780000Y-102930000D03*
X87320000Y-102930000D03*
X89860000Y-102930000D03*
X92400000Y-102930000D03*
X94940000Y-102930000D03*
X97480000Y-102930000D03*
X100020000Y-102930000D03*
X102560000Y-102930000D03*
%TD*%
D12*
%TO.C,U1*%
X71100000Y-72720000D03*
D13*
X71100000Y-75260000D03*
X71100000Y-77800000D03*
X71100000Y-80340000D03*
X71100000Y-82880000D03*
X71100000Y-85420000D03*
X71100000Y-87960000D03*
X71091200Y-90501200D03*
X71091200Y-93041200D03*
X78711200Y-93041200D03*
X78711200Y-90501200D03*
X78720000Y-87960000D03*
X78720000Y-85420000D03*
X78720000Y-82880000D03*
X78720000Y-80340000D03*
X78720000Y-77800000D03*
X78720000Y-75260000D03*
X78720000Y-72720000D03*
%TD*%
D20*
%TO.C,J10*%
X97000000Y-85380000D03*
D21*
X97000000Y-87920000D03*
X97000000Y-90460000D03*
X97000000Y-93000000D03*
X97000000Y-95540000D03*
%TD*%
D17*
%TO.C,D1*%
X133000000Y-52580000D03*
D18*
X133000000Y-42420000D03*
%TD*%
D10*
%TO.C,C7*%
X106750000Y-69500000D03*
X111750000Y-69500000D03*
%TD*%
D17*
%TO.C,D2*%
X133000000Y-66660000D03*
D18*
X133000000Y-56500000D03*
%TD*%
D10*
%TO.C,C8*%
X84250000Y-43000000D03*
X89250000Y-43000000D03*
%TD*%
%TO.C,C9*%
X97000000Y-43250000D03*
X102000000Y-43250000D03*
%TD*%
D14*
%TO.C,K8*%
X127800000Y-65700000D03*
X120180000Y-63160000D03*
X127800000Y-50500000D03*
X120180000Y-50500000D03*
%TD*%
D10*
%TO.C,R1*%
X112500000Y-96000000D03*
D11*
X104880000Y-96000000D03*
%TD*%
D14*
%TO.C,K5*%
X153800000Y-100200000D03*
X151260000Y-107820000D03*
X138600000Y-100200000D03*
X138600000Y-107820000D03*
%TD*%
D20*
%TO.C,J7*%
X65500000Y-50840000D03*
D21*
X65500000Y-53380000D03*
X65500000Y-55920000D03*
X65500000Y-58460000D03*
X65500000Y-61000000D03*
X65500000Y-63540000D03*
X65500000Y-66080000D03*
X65500000Y-68620000D03*
%TD*%
D20*
%TO.C,J1*%
X103500000Y-74000000D03*
D21*
X103500000Y-76540000D03*
X103500000Y-79080000D03*
%TD*%
D10*
%TO.C,C5*%
X63500000Y-98250000D03*
X68500000Y-98250000D03*
%TD*%
%TO.C,C4*%
X115500000Y-105000000D03*
X110500000Y-105000000D03*
%TD*%
D20*
%TO.C,J5*%
X65504400Y-73460600D03*
D21*
X65504400Y-76000600D03*
X65504400Y-78540600D03*
X65504400Y-81080600D03*
X65504400Y-83620600D03*
X65504400Y-86160600D03*
X65504400Y-88700600D03*
X65504400Y-91240600D03*
%TD*%
D19*
%TO.C,*%
X127000000Y-120000000D03*
%TD*%
D20*
%TO.C,J6*%
X66990000Y-134930000D03*
D21*
X69530000Y-134930000D03*
X72070000Y-134930000D03*
X74610000Y-134930000D03*
X77150000Y-134930000D03*
X79690000Y-134930000D03*
X82230000Y-134930000D03*
X84770000Y-134930000D03*
X87310000Y-134930000D03*
X89850000Y-134930000D03*
X92390000Y-134930000D03*
X94930000Y-134930000D03*
X97470000Y-134930000D03*
X100010000Y-134930000D03*
X102550000Y-134930000D03*
%TD*%
D17*
%TO.C,D7*%
X133000000Y-137080000D03*
D18*
X133000000Y-126920000D03*
%TD*%
D17*
%TO.C,D5*%
X133000000Y-109080000D03*
D18*
X133000000Y-98920000D03*
%TD*%
D17*
%TO.C,D6*%
X133000000Y-123080000D03*
D18*
X133000000Y-112920000D03*
%TD*%
D20*
%TO.C,J2*%
X116500000Y-74040000D03*
D21*
X116500000Y-76580000D03*
X116500000Y-79120000D03*
%TD*%
D10*
%TO.C,C2*%
X80250000Y-69750000D03*
X85250000Y-69750000D03*
%TD*%
D27*
%TO.C,D9*%
X110000000Y-89500000D03*
D28*
X107460000Y-89500000D03*
%TD*%
D17*
%TO.C,D8*%
X118920000Y-44500000D03*
D18*
X129080000Y-44500000D03*
%TD*%
D19*
%TO.C,*%
X73000000Y-125000000D03*
%TD*%
D14*
%TO.C,K1*%
X153800000Y-43700000D03*
X151260000Y-51320000D03*
X138600000Y-43700000D03*
X138600000Y-51320000D03*
%TD*%
%TO.C,K3*%
X153800000Y-72200000D03*
X151260000Y-79820000D03*
X138600000Y-72200000D03*
X138600000Y-79820000D03*
%TD*%
D29*
%TO.C,C1*%
X122632300Y-76700000D03*
D30*
X127632300Y-76700000D03*
%TD*%
D20*
%TO.C,J3*%
X110000000Y-74000000D03*
D21*
X110000000Y-76540000D03*
X110000000Y-79080000D03*
%TD*%
D12*
%TO.C,U5*%
X107314400Y-44920000D03*
D13*
X107314400Y-47460000D03*
X107314400Y-50000000D03*
X107314400Y-52540000D03*
X107314400Y-55080000D03*
X107314400Y-57620000D03*
X107314400Y-60160000D03*
X107305600Y-62701200D03*
X107305600Y-65241200D03*
X114925600Y-65241200D03*
X114925600Y-62701200D03*
X114934400Y-60160000D03*
X114934400Y-57620000D03*
X114934400Y-55080000D03*
X114934400Y-52540000D03*
X114934400Y-50000000D03*
X114934400Y-47460000D03*
X114934400Y-44920000D03*
%TD*%
D12*
%TO.C,U2*%
X83194400Y-73570600D03*
D13*
X83194400Y-76110600D03*
X83194400Y-78650600D03*
X83194400Y-81190600D03*
X83194400Y-83730600D03*
X83194400Y-86270600D03*
X83194400Y-88810600D03*
X83194400Y-91350600D03*
X90814400Y-91350600D03*
X90814400Y-88810600D03*
X90814400Y-86270600D03*
X90814400Y-83730600D03*
X90814400Y-81190600D03*
X90814400Y-78650600D03*
X90814400Y-76110600D03*
X90814400Y-73570600D03*
%TD*%
D14*
%TO.C,K6*%
X153800000Y-114200000D03*
X151260000Y-121820000D03*
X138600000Y-114200000D03*
X138600000Y-121820000D03*
%TD*%
%TO.C,K7*%
X153800000Y-128200000D03*
X151260000Y-135820000D03*
X138600000Y-128200000D03*
X138600000Y-135820000D03*
%TD*%
M02*
