%TF.GenerationSoftware,KiCad,Pcbnew,8.0.3*%
%TF.CreationDate,2024-07-07T19:39:02+08:00*%
%TF.ProjectId,V2.2 Mechanical Seven Segment Controller,56322e32-204d-4656-9368-616e6963616c,4*%
%TF.SameCoordinates,Original*%
%TF.FileFunction,Copper,L2,Bot*%
%TF.FilePolarity,Positive*%
%FSLAX46Y46*%
G04 Gerber Fmt 4.6, Leading zero omitted, Abs format (unit mm)*
G04 Created by KiCad (PCBNEW 8.0.3) date 2024-07-07 19:39:02*
%MOMM*%
%LPD*%
G01*
G04 APERTURE LIST*
G04 Aperture macros list*
%AMOutline5P*
0 Free polygon, 5 corners , with rotation*
0 The origin of the aperture is its center*
0 number of corners: always 5*
0 $1 to $10 corner X, Y*
0 $11 Rotation angle, in degrees counterclockwise*
0 create outline with 5 corners*
4,1,5,$1,$2,$3,$4,$5,$6,$7,$8,$9,$10,$1,$2,$11*%
%AMOutline6P*
0 Free polygon, 6 corners , with rotation*
0 The origin of the aperture is its center*
0 number of corners: always 6*
0 $1 to $12 corner X, Y*
0 $13 Rotation angle, in degrees counterclockwise*
0 create outline with 6 corners*
4,1,6,$1,$2,$3,$4,$5,$6,$7,$8,$9,$10,$11,$12,$1,$2,$13*%
%AMOutline7P*
0 Free polygon, 7 corners , with rotation*
0 The origin of the aperture is its center*
0 number of corners: always 7*
0 $1 to $14 corner X, Y*
0 $15 Rotation angle, in degrees counterclockwise*
0 create outline with 7 corners*
4,1,7,$1,$2,$3,$4,$5,$6,$7,$8,$9,$10,$11,$12,$13,$14,$1,$2,$15*%
%AMOutline8P*
0 Free polygon, 8 corners , with rotation*
0 The origin of the aperture is its center*
0 number of corners: always 8*
0 $1 to $16 corner X, Y*
0 $17 Rotation angle, in degrees counterclockwise*
0 create outline with 8 corners*
4,1,8,$1,$2,$3,$4,$5,$6,$7,$8,$9,$10,$11,$12,$13,$14,$15,$16,$1,$2,$17*%
G04 Aperture macros list end*
%TA.AperFunction,ComponentPad*%
%ADD10C,1.600000*%
%TD*%
%TA.AperFunction,ComponentPad*%
%ADD11O,1.600000X1.600000*%
%TD*%
%TA.AperFunction,ComponentPad*%
%ADD12R,1.676400X1.676400*%
%TD*%
%TA.AperFunction,ComponentPad*%
%ADD13C,1.676400*%
%TD*%
%TA.AperFunction,ComponentPad*%
%ADD14C,2.200000*%
%TD*%
%TA.AperFunction,ComponentPad*%
%ADD15Outline8P,-1.100000X0.660000X-0.660000X1.100000X0.660000X1.100000X1.100000X0.660000X1.100000X-0.660000X0.660000X-1.100000X-0.660000X-1.100000X-1.100000X-0.660000X0.000000*%
%TD*%
%TA.AperFunction,ComponentPad*%
%ADD16R,2.200000X2.200000*%
%TD*%
%TA.AperFunction,ComponentPad*%
%ADD17O,2.200000X2.200000*%
%TD*%
%TA.AperFunction,ComponentPad*%
%ADD18R,1.700000X1.700000*%
%TD*%
%TA.AperFunction,ComponentPad*%
%ADD19O,1.700000X1.700000*%
%TD*%
%TA.AperFunction,ComponentPad*%
%ADD20R,1.910000X1.910000*%
%TD*%
%TA.AperFunction,ComponentPad*%
%ADD21C,1.910000*%
%TD*%
%TA.AperFunction,ComponentPad*%
%ADD22R,1.930000X1.930000*%
%TD*%
%TA.AperFunction,ComponentPad*%
%ADD23C,1.930000*%
%TD*%
%TA.AperFunction,ComponentPad*%
%ADD24R,1.600000X1.600000*%
%TD*%
%TA.AperFunction,ComponentPad*%
%ADD25R,1.800000X1.800000*%
%TD*%
%TA.AperFunction,ComponentPad*%
%ADD26C,1.800000*%
%TD*%
%TA.AperFunction,ComponentPad*%
%ADD27R,2.000000X2.000000*%
%TD*%
%TA.AperFunction,ComponentPad*%
%ADD28C,2.000000*%
%TD*%
%TA.AperFunction,ViaPad*%
%ADD29C,0.600000*%
%TD*%
%TA.AperFunction,Conductor*%
%ADD30C,0.200000*%
%TD*%
%TA.AperFunction,Conductor*%
%ADD31C,1.000000*%
%TD*%
G04 APERTURE END LIST*
D10*
%TO.P,R3,1*%
%TO.N,Net-(A1B-D1)*%
X89880000Y-113250000D03*
D11*
%TO.P,R3,2*%
%TO.N,+3.3V*%
X97500000Y-113250000D03*
%TD*%
D12*
%TO.P,U6,1,QB*%
%TO.N,Net-(U5-I2)*%
X95500000Y-47000000D03*
D13*
%TO.P,U6,2,QC*%
%TO.N,Net-(U5-I3)*%
X95500000Y-49540000D03*
%TO.P,U6,3,QD*%
%TO.N,Net-(U5-I4)*%
X95500000Y-52080000D03*
%TO.P,U6,4,QE*%
%TO.N,Net-(U5-I5)*%
X95500000Y-54620000D03*
%TO.P,U6,5,QF*%
%TO.N,Net-(U5-I6)*%
X95500000Y-57160000D03*
%TO.P,U6,6,QG*%
%TO.N,Net-(U5-I7)*%
X95500000Y-59700000D03*
%TO.P,U6,7,QH*%
%TO.N,Net-(U5-I8)*%
X95500000Y-62240000D03*
%TO.P,U6,8,GND*%
%TO.N,GND*%
X95500000Y-64780000D03*
%TO.P,U6,9,QH'*%
%TO.N,Net-(J10-Pin_5)*%
X103120000Y-64780000D03*
%TO.P,U6,10,~{SRCLR}*%
%TO.N,Net-(A1B-D1)*%
X103120000Y-62240000D03*
%TO.P,U6,11,SRCLK*%
%TO.N,Net-(A1B-D0)*%
X103120000Y-59700000D03*
%TO.P,U6,12,RCLK*%
%TO.N,Net-(A1B-D2)*%
X103120000Y-57160000D03*
%TO.P,U6,13,~{OE}*%
%TO.N,Net-(A1B-D3)*%
X103120000Y-54620000D03*
%TO.P,U6,14,SER*%
%TO.N,Net-(U4-QH')*%
X103120000Y-52080000D03*
%TO.P,U6,15,QA*%
%TO.N,Net-(U5-I1)*%
X103120000Y-49540000D03*
%TO.P,U6,16,VCC*%
%TO.N,+3.3V*%
X103120000Y-47000000D03*
%TD*%
D10*
%TO.P,R2,1*%
%TO.N,Net-(A1B-D3)*%
X74690000Y-113250000D03*
D11*
%TO.P,R2,2*%
%TO.N,+3.3V*%
X82310000Y-113250000D03*
%TD*%
D14*
%TO.P,K4,1*%
%TO.N,E1*%
X153800000Y-86200000D03*
%TO.P,K4,2*%
%TO.N,VDC*%
X151260000Y-93820000D03*
%TO.P,K4,A1*%
%TO.N,Net-(D4-A)*%
X138600000Y-86200000D03*
%TO.P,K4,A2*%
%TO.N,VDC*%
X138600000Y-93820000D03*
%TD*%
D12*
%TO.P,U4,1,QB*%
%TO.N,Net-(U3-I2)*%
X83194400Y-46570600D03*
D13*
%TO.P,U4,2,QC*%
%TO.N,Net-(U3-I3)*%
X83194400Y-49110600D03*
%TO.P,U4,3,QD*%
%TO.N,Net-(U3-I4)*%
X83194400Y-51650600D03*
%TO.P,U4,4,QE*%
%TO.N,Net-(U3-I5)*%
X83194400Y-54190600D03*
%TO.P,U4,5,QF*%
%TO.N,Net-(U3-I6)*%
X83194400Y-56730600D03*
%TO.P,U4,6,QG*%
%TO.N,Net-(U3-I7)*%
X83194400Y-59270600D03*
%TO.P,U4,7,QH*%
%TO.N,Net-(U3-I8)*%
X83194400Y-61810600D03*
%TO.P,U4,8,GND*%
%TO.N,GND*%
X83194400Y-64350600D03*
%TO.P,U4,9,QH'*%
%TO.N,Net-(U4-QH')*%
X90814400Y-64350600D03*
%TO.P,U4,10,~{SRCLR}*%
%TO.N,Net-(A1B-D1)*%
X90814400Y-61810600D03*
%TO.P,U4,11,SRCLK*%
%TO.N,Net-(A1B-D0)*%
X90814400Y-59270600D03*
%TO.P,U4,12,RCLK*%
%TO.N,Net-(A1B-D2)*%
X90814400Y-56730600D03*
%TO.P,U4,13,~{OE}*%
%TO.N,Net-(A1B-D3)*%
X90814400Y-54190600D03*
%TO.P,U4,14,SER*%
%TO.N,Net-(U2-QH')*%
X90814400Y-51650600D03*
%TO.P,U4,15,QA*%
%TO.N,Net-(U3-I1)*%
X90814400Y-49110600D03*
%TO.P,U4,16,VCC*%
%TO.N,+3.3V*%
X90814400Y-46570600D03*
%TD*%
D10*
%TO.P,C6,1*%
%TO.N,GND*%
X72250000Y-69250000D03*
%TO.P,C6,2*%
%TO.N,VDC*%
X77250000Y-69250000D03*
%TD*%
D14*
%TO.P,J11,1,Pin_1*%
%TO.N,GND*%
X126400000Y-132800000D03*
%TO.P,J11,2,Pin_2*%
%TO.N,Net-(J11-Pin_2)*%
X121400000Y-132800000D03*
D15*
%TO.P,J11,3,Pin_3*%
%TO.N,+5V*%
X116400000Y-132800000D03*
%TD*%
D12*
%TO.P,U3,1,I1*%
%TO.N,Net-(U3-I1)*%
X71000000Y-45620000D03*
D13*
%TO.P,U3,2,I2*%
%TO.N,Net-(U3-I2)*%
X71000000Y-48160000D03*
%TO.P,U3,3,I3*%
%TO.N,Net-(U3-I3)*%
X71000000Y-50700000D03*
%TO.P,U3,4,I4*%
%TO.N,Net-(U3-I4)*%
X71000000Y-53240000D03*
%TO.P,U3,5,I5*%
%TO.N,Net-(U3-I5)*%
X71000000Y-55780000D03*
%TO.P,U3,6,I6*%
%TO.N,Net-(U3-I6)*%
X71000000Y-58320000D03*
%TO.P,U3,7,I7*%
%TO.N,Net-(U3-I7)*%
X71000000Y-60860000D03*
%TO.P,U3,8,I8*%
%TO.N,Net-(U3-I8)*%
X70991200Y-63401200D03*
%TO.P,U3,9,GND*%
%TO.N,GND*%
X70991200Y-65941200D03*
%TO.P,U3,10,COM*%
%TO.N,VDC*%
X78611200Y-65941200D03*
%TO.P,U3,11,O8*%
%TO.N,Net-(J7-Pin_8)*%
X78611200Y-63401200D03*
%TO.P,U3,12,O7*%
%TO.N,Net-(J7-Pin_7)*%
X78620000Y-60860000D03*
%TO.P,U3,13,O6*%
%TO.N,Net-(J7-Pin_6)*%
X78620000Y-58320000D03*
%TO.P,U3,14,O5*%
%TO.N,Net-(J7-Pin_5)*%
X78620000Y-55780000D03*
%TO.P,U3,15,O4*%
%TO.N,Net-(J7-Pin_4)*%
X78620000Y-53240000D03*
%TO.P,U3,16,O3*%
%TO.N,Net-(J7-Pin_3)*%
X78620000Y-50700000D03*
%TO.P,U3,17,O2*%
%TO.N,Net-(J7-Pin_2)*%
X78620000Y-48160000D03*
%TO.P,U3,18,O1*%
%TO.N,Net-(J7-Pin_1)*%
X78620000Y-45620000D03*
%TD*%
D16*
%TO.P,D3,1,K*%
%TO.N,VDC*%
X133000000Y-81080000D03*
D17*
%TO.P,D3,2,A*%
%TO.N,Net-(D3-A)*%
X133000000Y-70920000D03*
%TD*%
D18*
%TO.P,F1,1*%
%TO.N,VDC*%
X107925000Y-135400000D03*
D19*
%TO.P,F1,2*%
%TO.N,Net-(J11-Pin_2)*%
X110465000Y-135400000D03*
%TD*%
D14*
%TO.P,K2,1*%
%TO.N,A1*%
X153800000Y-57700000D03*
%TO.P,K2,2*%
%TO.N,VDC*%
X151260000Y-65320000D03*
%TO.P,K2,A1*%
%TO.N,Net-(D2-A)*%
X138600000Y-57700000D03*
%TO.P,K2,A2*%
%TO.N,VDC*%
X138600000Y-65320000D03*
%TD*%
D16*
%TO.P,D4,1,K*%
%TO.N,VDC*%
X133000000Y-95080000D03*
D17*
%TO.P,D4,2,A*%
%TO.N,Net-(D4-A)*%
X133000000Y-84920000D03*
%TD*%
D20*
%TO.P,U7,1,ADJ/GND*%
%TO.N,GND*%
X120900000Y-105605000D03*
D21*
%TO.P,U7,2,VOUT*%
%TO.N,+3.3V*%
X123450000Y-105605000D03*
%TO.P,U7,3,VIN*%
%TO.N,+5V*%
X126000000Y-105605000D03*
%TD*%
D22*
%TO.P,A1,J1_1,A0*%
%TO.N,Net-(A1A-A0)*%
X67000000Y-130430000D03*
D23*
%TO.P,A1,J1_2,RSV1*%
%TO.N,Net-(A1A-RSV1)*%
X69540000Y-130430000D03*
%TO.P,A1,J1_3,RSV2*%
%TO.N,Net-(A1A-RSV2)*%
X72080000Y-130430000D03*
%TO.P,A1,J1_4,SD3*%
%TO.N,Net-(A1A-SD3)*%
X74620000Y-130430000D03*
%TO.P,A1,J1_5,SD2*%
%TO.N,Net-(A1A-SD2)*%
X77160000Y-130430000D03*
%TO.P,A1,J1_6,SD1*%
%TO.N,Net-(A1A-SD1)*%
X79700000Y-130430000D03*
%TO.P,A1,J1_7,CMD*%
%TO.N,Net-(A1A-CMD)*%
X82240000Y-130430000D03*
%TO.P,A1,J1_8,SD0*%
%TO.N,Net-(A1A-SD0)*%
X84780000Y-130430000D03*
%TO.P,A1,J1_9,CLK*%
%TO.N,Net-(A1A-CLK)*%
X87320000Y-130430000D03*
%TO.P,A1,J1_10,GND*%
%TO.N,GND*%
X89860000Y-130430000D03*
%TO.P,A1,J1_11,3V3*%
%TO.N,+3.3V*%
X92400000Y-130430000D03*
%TO.P,A1,J1_12,EN*%
%TO.N,Net-(A1A-EN)*%
X94940000Y-130430000D03*
%TO.P,A1,J1_13,RST*%
%TO.N,Net-(A1A-RST)*%
X97480000Y-130430000D03*
%TO.P,A1,J1_14,GND*%
%TO.N,GND*%
X100020000Y-130430000D03*
%TO.P,A1,J1_15,VIN*%
%TO.N,Net-(A1A-VIN)*%
X102560000Y-130430000D03*
D22*
%TO.P,A1,J2_1,D0*%
%TO.N,Net-(A1B-D0)*%
X67000000Y-107570000D03*
D23*
%TO.P,A1,J2_2,D1*%
%TO.N,Net-(A1B-D1)*%
X69540000Y-107570000D03*
%TO.P,A1,J2_3,D2*%
%TO.N,Net-(A1B-D2)*%
X72080000Y-107570000D03*
%TO.P,A1,J2_4,D3*%
%TO.N,Net-(A1B-D3)*%
X74620000Y-107570000D03*
%TO.P,A1,J2_5,D4*%
%TO.N,Net-(A1B-D4)*%
X77160000Y-107570000D03*
%TO.P,A1,J2_6,3V3*%
%TO.N,Net-(J9-Pin_15)*%
X79700000Y-107570000D03*
%TO.P,A1,J2_7,GND*%
%TO.N,GND*%
X82240000Y-107570000D03*
%TO.P,A1,J2_8,D5*%
%TO.N,Net-(A1B-D5)*%
X84780000Y-107570000D03*
%TO.P,A1,J2_9,D6*%
%TO.N,Net-(A1B-D6)*%
X87320000Y-107570000D03*
%TO.P,A1,J2_10,D7*%
%TO.N,Net-(A1B-D7)*%
X89860000Y-107570000D03*
%TO.P,A1,J2_11,D8*%
%TO.N,Net-(A1B-D8)*%
X92400000Y-107570000D03*
%TO.P,A1,J2_12,D9*%
%TO.N,Net-(A1B-D9)*%
X94940000Y-107570000D03*
%TO.P,A1,J2_13,D10*%
%TO.N,Net-(A1B-D10)*%
X97480000Y-107570000D03*
%TO.P,A1,J2_14,GND*%
%TO.N,GND*%
X100020000Y-107570000D03*
%TO.P,A1,J2_15,3V3*%
%TO.N,Net-(J9-Pin_15)*%
X102560000Y-107570000D03*
%TD*%
D18*
%TO.P,J8,1,Pin_1*%
%TO.N,A1*%
X157900000Y-100360000D03*
D19*
%TO.P,J8,2,Pin_2*%
%TO.N,B1*%
X157900000Y-97820000D03*
%TO.P,J8,3,Pin_3*%
%TO.N,C1*%
X157900000Y-95280000D03*
%TO.P,J8,4,Pin_4*%
%TO.N,D1*%
X157900000Y-92740000D03*
%TO.P,J8,5,Pin_5*%
%TO.N,E1*%
X157900000Y-90200000D03*
%TO.P,J8,6,Pin_6*%
%TO.N,F1*%
X157900000Y-87660000D03*
%TO.P,J8,7,Pin_7*%
%TO.N,G1*%
X157900000Y-85120000D03*
%TO.P,J8,8,Pin_8*%
%TO.N,H1*%
X157900000Y-82580000D03*
%TD*%
D18*
%TO.P,J4,1,Pin_1*%
%TO.N,+3.3V*%
X97000000Y-74000000D03*
D19*
%TO.P,J4,2,Pin_2*%
X97000000Y-76540000D03*
%TO.P,J4,3,Pin_3*%
X97000000Y-79080000D03*
%TD*%
D24*
%TO.P,C3,1*%
%TO.N,+3.3V*%
X115500000Y-86000000D03*
D10*
%TO.P,C3,2*%
%TO.N,GND*%
X117500000Y-86000000D03*
%TD*%
D18*
%TO.P,J9,1,Pin_1*%
%TO.N,Net-(A1B-D0)*%
X67000000Y-102930000D03*
D19*
%TO.P,J9,2,Pin_2*%
%TO.N,Net-(A1B-D1)*%
X69540000Y-102930000D03*
%TO.P,J9,3,Pin_3*%
%TO.N,Net-(A1B-D2)*%
X72080000Y-102930000D03*
%TO.P,J9,4,Pin_4*%
%TO.N,Net-(A1B-D3)*%
X74620000Y-102930000D03*
%TO.P,J9,5,Pin_5*%
%TO.N,Net-(A1B-D4)*%
X77160000Y-102930000D03*
%TO.P,J9,6,Pin_6*%
%TO.N,Net-(J9-Pin_15)*%
X79700000Y-102930000D03*
%TO.P,J9,7,Pin_7*%
%TO.N,GND*%
X82240000Y-102930000D03*
%TO.P,J9,8,Pin_8*%
%TO.N,Net-(A1B-D5)*%
X84780000Y-102930000D03*
%TO.P,J9,9,Pin_9*%
%TO.N,Net-(A1B-D6)*%
X87320000Y-102930000D03*
%TO.P,J9,10,Pin_10*%
%TO.N,Net-(A1B-D7)*%
X89860000Y-102930000D03*
%TO.P,J9,11,Pin_11*%
%TO.N,Net-(A1B-D8)*%
X92400000Y-102930000D03*
%TO.P,J9,12,Pin_12*%
%TO.N,Net-(A1B-D9)*%
X94940000Y-102930000D03*
%TO.P,J9,13,Pin_13*%
%TO.N,Net-(A1B-D10)*%
X97480000Y-102930000D03*
%TO.P,J9,14,Pin_14*%
%TO.N,GND*%
X100020000Y-102930000D03*
%TO.P,J9,15,Pin_15*%
%TO.N,Net-(J9-Pin_15)*%
X102560000Y-102930000D03*
%TD*%
D12*
%TO.P,U1,1,I1*%
%TO.N,Net-(U1-I1)*%
X71100000Y-72720000D03*
D13*
%TO.P,U1,2,I2*%
%TO.N,Net-(U1-I2)*%
X71100000Y-75260000D03*
%TO.P,U1,3,I3*%
%TO.N,Net-(U1-I3)*%
X71100000Y-77800000D03*
%TO.P,U1,4,I4*%
%TO.N,Net-(U1-I4)*%
X71100000Y-80340000D03*
%TO.P,U1,5,I5*%
%TO.N,Net-(U1-I5)*%
X71100000Y-82880000D03*
%TO.P,U1,6,I6*%
%TO.N,Net-(U1-I6)*%
X71100000Y-85420000D03*
%TO.P,U1,7,I7*%
%TO.N,Net-(U1-I7)*%
X71100000Y-87960000D03*
%TO.P,U1,8,I8*%
%TO.N,Net-(U1-I8)*%
X71091200Y-90501200D03*
%TO.P,U1,9,GND*%
%TO.N,GND*%
X71091200Y-93041200D03*
%TO.P,U1,10,COM*%
%TO.N,VDC*%
X78711200Y-93041200D03*
%TO.P,U1,11,O8*%
%TO.N,Net-(J5-Pin_8)*%
X78711200Y-90501200D03*
%TO.P,U1,12,O7*%
%TO.N,Net-(J5-Pin_7)*%
X78720000Y-87960000D03*
%TO.P,U1,13,O6*%
%TO.N,Net-(J5-Pin_6)*%
X78720000Y-85420000D03*
%TO.P,U1,14,O5*%
%TO.N,Net-(J5-Pin_5)*%
X78720000Y-82880000D03*
%TO.P,U1,15,O4*%
%TO.N,Net-(J5-Pin_4)*%
X78720000Y-80340000D03*
%TO.P,U1,16,O3*%
%TO.N,Net-(J5-Pin_3)*%
X78720000Y-77800000D03*
%TO.P,U1,17,O2*%
%TO.N,Net-(J5-Pin_2)*%
X78720000Y-75260000D03*
%TO.P,U1,18,O1*%
%TO.N,Net-(J5-Pin_1)*%
X78720000Y-72720000D03*
%TD*%
D18*
%TO.P,J10,1,Pin_1*%
%TO.N,Net-(A1B-D0)*%
X97000000Y-85380000D03*
D19*
%TO.P,J10,2,Pin_2*%
%TO.N,Net-(A1B-D1)*%
X97000000Y-87920000D03*
%TO.P,J10,3,Pin_3*%
%TO.N,Net-(A1B-D2)*%
X97000000Y-90460000D03*
%TO.P,J10,4,Pin_4*%
%TO.N,Net-(A1B-D3)*%
X97000000Y-93000000D03*
%TO.P,J10,5,Pin_5*%
%TO.N,Net-(J10-Pin_5)*%
X97000000Y-95540000D03*
%TD*%
D16*
%TO.P,D1,1,K*%
%TO.N,VDC*%
X133000000Y-52580000D03*
D17*
%TO.P,D1,2,A*%
%TO.N,Net-(D1-A)*%
X133000000Y-42420000D03*
%TD*%
D10*
%TO.P,C7,1*%
%TO.N,GND*%
X106750000Y-69500000D03*
%TO.P,C7,2*%
%TO.N,VDC*%
X111750000Y-69500000D03*
%TD*%
D16*
%TO.P,D2,1,K*%
%TO.N,VDC*%
X133000000Y-66660000D03*
D17*
%TO.P,D2,2,A*%
%TO.N,Net-(D2-A)*%
X133000000Y-56500000D03*
%TD*%
D10*
%TO.P,C8,1*%
%TO.N,GND*%
X84250000Y-43000000D03*
%TO.P,C8,2*%
%TO.N,+3.3V*%
X89250000Y-43000000D03*
%TD*%
%TO.P,C9,1*%
%TO.N,GND*%
X97000000Y-43250000D03*
%TO.P,C9,2*%
%TO.N,+3.3V*%
X102000000Y-43250000D03*
%TD*%
D14*
%TO.P,K8,1*%
%TO.N,D1*%
X127800000Y-65700000D03*
%TO.P,K8,2*%
%TO.N,VDC*%
X120180000Y-63160000D03*
%TO.P,K8,A1*%
%TO.N,Net-(D8-A)*%
X127800000Y-50500000D03*
%TO.P,K8,A2*%
%TO.N,VDC*%
X120180000Y-50500000D03*
%TD*%
D10*
%TO.P,R1,1*%
%TO.N,Net-(D9-A)*%
X112500000Y-96000000D03*
D11*
%TO.P,R1,2*%
%TO.N,+3.3V*%
X104880000Y-96000000D03*
%TD*%
D14*
%TO.P,K5,1*%
%TO.N,G1*%
X153800000Y-100200000D03*
%TO.P,K5,2*%
%TO.N,VDC*%
X151260000Y-107820000D03*
%TO.P,K5,A1*%
%TO.N,Net-(D5-A)*%
X138600000Y-100200000D03*
%TO.P,K5,A2*%
%TO.N,VDC*%
X138600000Y-107820000D03*
%TD*%
D18*
%TO.P,J7,1,Pin_1*%
%TO.N,Net-(J7-Pin_1)*%
X65500000Y-50840000D03*
D19*
%TO.P,J7,2,Pin_2*%
%TO.N,Net-(J7-Pin_2)*%
X65500000Y-53380000D03*
%TO.P,J7,3,Pin_3*%
%TO.N,Net-(J7-Pin_3)*%
X65500000Y-55920000D03*
%TO.P,J7,4,Pin_4*%
%TO.N,Net-(J7-Pin_4)*%
X65500000Y-58460000D03*
%TO.P,J7,5,Pin_5*%
%TO.N,Net-(J7-Pin_5)*%
X65500000Y-61000000D03*
%TO.P,J7,6,Pin_6*%
%TO.N,Net-(J7-Pin_6)*%
X65500000Y-63540000D03*
%TO.P,J7,7,Pin_7*%
%TO.N,Net-(J7-Pin_7)*%
X65500000Y-66080000D03*
%TO.P,J7,8,Pin_8*%
%TO.N,Net-(J7-Pin_8)*%
X65500000Y-68620000D03*
%TD*%
D18*
%TO.P,J1,1,Pin_1*%
%TO.N,GND*%
X103500000Y-74000000D03*
D19*
%TO.P,J1,2,Pin_2*%
X103500000Y-76540000D03*
%TO.P,J1,3,Pin_3*%
X103500000Y-79080000D03*
%TD*%
D10*
%TO.P,C5,1*%
%TO.N,GND*%
X63500000Y-98250000D03*
%TO.P,C5,2*%
%TO.N,VDC*%
X68500000Y-98250000D03*
%TD*%
%TO.P,C4,1*%
%TO.N,+5V*%
X115500000Y-105000000D03*
%TO.P,C4,2*%
%TO.N,GND*%
X110500000Y-105000000D03*
%TD*%
D18*
%TO.P,J5,1,Pin_1*%
%TO.N,Net-(J5-Pin_1)*%
X65504400Y-73460600D03*
D19*
%TO.P,J5,2,Pin_2*%
%TO.N,Net-(J5-Pin_2)*%
X65504400Y-76000600D03*
%TO.P,J5,3,Pin_3*%
%TO.N,Net-(J5-Pin_3)*%
X65504400Y-78540600D03*
%TO.P,J5,4,Pin_4*%
%TO.N,Net-(J5-Pin_4)*%
X65504400Y-81080600D03*
%TO.P,J5,5,Pin_5*%
%TO.N,Net-(J5-Pin_5)*%
X65504400Y-83620600D03*
%TO.P,J5,6,Pin_6*%
%TO.N,Net-(J5-Pin_6)*%
X65504400Y-86160600D03*
%TO.P,J5,7,Pin_7*%
%TO.N,Net-(J5-Pin_7)*%
X65504400Y-88700600D03*
%TO.P,J5,8,Pin_8*%
%TO.N,Net-(J5-Pin_8)*%
X65504400Y-91240600D03*
%TD*%
D18*
%TO.P,J6,1,Pin_1*%
%TO.N,Net-(A1A-A0)*%
X66990000Y-134930000D03*
D19*
%TO.P,J6,2,Pin_2*%
%TO.N,Net-(A1A-RSV1)*%
X69530000Y-134930000D03*
%TO.P,J6,3,Pin_3*%
%TO.N,Net-(A1A-RSV2)*%
X72070000Y-134930000D03*
%TO.P,J6,4,Pin_4*%
%TO.N,Net-(A1A-SD3)*%
X74610000Y-134930000D03*
%TO.P,J6,5,Pin_5*%
%TO.N,Net-(A1A-SD2)*%
X77150000Y-134930000D03*
%TO.P,J6,6,Pin_6*%
%TO.N,Net-(A1A-SD1)*%
X79690000Y-134930000D03*
%TO.P,J6,7,Pin_7*%
%TO.N,Net-(A1A-CMD)*%
X82230000Y-134930000D03*
%TO.P,J6,8,Pin_8*%
%TO.N,Net-(A1A-SD0)*%
X84770000Y-134930000D03*
%TO.P,J6,9,Pin_9*%
%TO.N,Net-(A1A-CLK)*%
X87310000Y-134930000D03*
%TO.P,J6,10,Pin_10*%
%TO.N,GND*%
X89850000Y-134930000D03*
%TO.P,J6,11,Pin_11*%
%TO.N,+3.3V*%
X92390000Y-134930000D03*
%TO.P,J6,12,Pin_12*%
%TO.N,Net-(A1A-EN)*%
X94930000Y-134930000D03*
%TO.P,J6,13,Pin_13*%
%TO.N,Net-(A1A-RST)*%
X97470000Y-134930000D03*
%TO.P,J6,14,Pin_14*%
%TO.N,GND*%
X100010000Y-134930000D03*
%TO.P,J6,15,Pin_15*%
%TO.N,Net-(A1A-VIN)*%
X102550000Y-134930000D03*
%TD*%
D16*
%TO.P,D7,1,K*%
%TO.N,VDC*%
X133000000Y-137080000D03*
D17*
%TO.P,D7,2,A*%
%TO.N,Net-(D7-A)*%
X133000000Y-126920000D03*
%TD*%
D16*
%TO.P,D5,1,K*%
%TO.N,VDC*%
X133000000Y-109080000D03*
D17*
%TO.P,D5,2,A*%
%TO.N,Net-(D5-A)*%
X133000000Y-98920000D03*
%TD*%
D16*
%TO.P,D6,1,K*%
%TO.N,VDC*%
X133000000Y-123080000D03*
D17*
%TO.P,D6,2,A*%
%TO.N,Net-(D6-A)*%
X133000000Y-112920000D03*
%TD*%
D18*
%TO.P,J2,1,Pin_1*%
%TO.N,VDC*%
X116500000Y-74040000D03*
D19*
%TO.P,J2,2,Pin_2*%
X116500000Y-76580000D03*
%TO.P,J2,3,Pin_3*%
X116500000Y-79120000D03*
%TD*%
D10*
%TO.P,C2,1*%
%TO.N,GND*%
X80250000Y-69750000D03*
%TO.P,C2,2*%
%TO.N,+3.3V*%
X85250000Y-69750000D03*
%TD*%
D25*
%TO.P,D9,1,K*%
%TO.N,GND*%
X110000000Y-89500000D03*
D26*
%TO.P,D9,2,A*%
%TO.N,Net-(D9-A)*%
X107460000Y-89500000D03*
%TD*%
D16*
%TO.P,D8,1,K*%
%TO.N,VDC*%
X118920000Y-44500000D03*
D17*
%TO.P,D8,2,A*%
%TO.N,Net-(D8-A)*%
X129080000Y-44500000D03*
%TD*%
D14*
%TO.P,K1,1*%
%TO.N,B1*%
X153800000Y-43700000D03*
%TO.P,K1,2*%
%TO.N,VDC*%
X151260000Y-51320000D03*
%TO.P,K1,A1*%
%TO.N,Net-(D1-A)*%
X138600000Y-43700000D03*
%TO.P,K1,A2*%
%TO.N,VDC*%
X138600000Y-51320000D03*
%TD*%
%TO.P,K3,1*%
%TO.N,C1*%
X153800000Y-72200000D03*
%TO.P,K3,2*%
%TO.N,VDC*%
X151260000Y-79820000D03*
%TO.P,K3,A1*%
%TO.N,Net-(D3-A)*%
X138600000Y-72200000D03*
%TO.P,K3,A2*%
%TO.N,VDC*%
X138600000Y-79820000D03*
%TD*%
D27*
%TO.P,C1,1*%
%TO.N,VDC*%
X122632300Y-76700000D03*
D28*
%TO.P,C1,2*%
%TO.N,GND*%
X127632300Y-76700000D03*
%TD*%
D18*
%TO.P,J3,1,Pin_1*%
%TO.N,+5V*%
X110000000Y-74000000D03*
D19*
%TO.P,J3,2,Pin_2*%
X110000000Y-76540000D03*
%TO.P,J3,3,Pin_3*%
X110000000Y-79080000D03*
%TD*%
D12*
%TO.P,U5,1,I1*%
%TO.N,Net-(U5-I1)*%
X107314400Y-44920000D03*
D13*
%TO.P,U5,2,I2*%
%TO.N,Net-(U5-I2)*%
X107314400Y-47460000D03*
%TO.P,U5,3,I3*%
%TO.N,Net-(U5-I3)*%
X107314400Y-50000000D03*
%TO.P,U5,4,I4*%
%TO.N,Net-(U5-I4)*%
X107314400Y-52540000D03*
%TO.P,U5,5,I5*%
%TO.N,Net-(U5-I5)*%
X107314400Y-55080000D03*
%TO.P,U5,6,I6*%
%TO.N,Net-(U5-I6)*%
X107314400Y-57620000D03*
%TO.P,U5,7,I7*%
%TO.N,Net-(U5-I7)*%
X107314400Y-60160000D03*
%TO.P,U5,8,I8*%
%TO.N,Net-(U5-I8)*%
X107305600Y-62701200D03*
%TO.P,U5,9,GND*%
%TO.N,GND*%
X107305600Y-65241200D03*
%TO.P,U5,10,COM*%
%TO.N,VDC*%
X114925600Y-65241200D03*
%TO.P,U5,11,O8*%
%TO.N,Net-(D6-A)*%
X114925600Y-62701200D03*
%TO.P,U5,12,O7*%
%TO.N,Net-(D5-A)*%
X114934400Y-60160000D03*
%TO.P,U5,13,O6*%
%TO.N,Net-(D7-A)*%
X114934400Y-57620000D03*
%TO.P,U5,14,O5*%
%TO.N,Net-(D4-A)*%
X114934400Y-55080000D03*
%TO.P,U5,15,O4*%
%TO.N,Net-(D8-A)*%
X114934400Y-52540000D03*
%TO.P,U5,16,O3*%
%TO.N,Net-(D3-A)*%
X114934400Y-50000000D03*
%TO.P,U5,17,O2*%
%TO.N,Net-(D1-A)*%
X114934400Y-47460000D03*
%TO.P,U5,18,O1*%
%TO.N,Net-(D2-A)*%
X114934400Y-44920000D03*
%TD*%
D12*
%TO.P,U2,1,QB*%
%TO.N,Net-(U1-I2)*%
X83194400Y-73570600D03*
D13*
%TO.P,U2,2,QC*%
%TO.N,Net-(U1-I3)*%
X83194400Y-76110600D03*
%TO.P,U2,3,QD*%
%TO.N,Net-(U1-I4)*%
X83194400Y-78650600D03*
%TO.P,U2,4,QE*%
%TO.N,Net-(U1-I5)*%
X83194400Y-81190600D03*
%TO.P,U2,5,QF*%
%TO.N,Net-(U1-I6)*%
X83194400Y-83730600D03*
%TO.P,U2,6,QG*%
%TO.N,Net-(U1-I7)*%
X83194400Y-86270600D03*
%TO.P,U2,7,QH*%
%TO.N,Net-(U1-I8)*%
X83194400Y-88810600D03*
%TO.P,U2,8,GND*%
%TO.N,GND*%
X83194400Y-91350600D03*
%TO.P,U2,9,QH'*%
%TO.N,Net-(U2-QH')*%
X90814400Y-91350600D03*
%TO.P,U2,10,~{SRCLR}*%
%TO.N,Net-(A1B-D1)*%
X90814400Y-88810600D03*
%TO.P,U2,11,SRCLK*%
%TO.N,Net-(A1B-D0)*%
X90814400Y-86270600D03*
%TO.P,U2,12,RCLK*%
%TO.N,Net-(A1B-D2)*%
X90814400Y-83730600D03*
%TO.P,U2,13,~{OE}*%
%TO.N,Net-(A1B-D3)*%
X90814400Y-81190600D03*
%TO.P,U2,14,SER*%
%TO.N,Net-(A1B-D4)*%
X90814400Y-78650600D03*
%TO.P,U2,15,QA*%
%TO.N,Net-(U1-I1)*%
X90814400Y-76110600D03*
%TO.P,U2,16,VCC*%
%TO.N,+3.3V*%
X90814400Y-73570600D03*
%TD*%
D14*
%TO.P,K6,1*%
%TO.N,H1*%
X153800000Y-114200000D03*
%TO.P,K6,2*%
%TO.N,VDC*%
X151260000Y-121820000D03*
%TO.P,K6,A1*%
%TO.N,Net-(D6-A)*%
X138600000Y-114200000D03*
%TO.P,K6,A2*%
%TO.N,VDC*%
X138600000Y-121820000D03*
%TD*%
%TO.P,K7,1*%
%TO.N,F1*%
X153800000Y-128200000D03*
%TO.P,K7,2*%
%TO.N,VDC*%
X151260000Y-135820000D03*
%TO.P,K7,A1*%
%TO.N,Net-(D7-A)*%
X138600000Y-128200000D03*
%TO.P,K7,A2*%
%TO.N,VDC*%
X138600000Y-135820000D03*
%TD*%
D29*
%TO.N,F1*%
X152800000Y-83700000D03*
X148500000Y-92750000D03*
%TO.N,G1*%
X154000000Y-82250000D03*
%TO.N,H1*%
X155000000Y-80750000D03*
%TD*%
D30*
%TO.N,Net-(A1B-D7)*%
X89860000Y-107570000D02*
X89860000Y-102930000D01*
%TO.N,Net-(A1B-D6)*%
X87320000Y-107570000D02*
X87320000Y-102930000D01*
%TO.N,Net-(A1B-D3)*%
X90814400Y-81190600D02*
X92500000Y-79505000D01*
X95000000Y-91000000D02*
X95000000Y-88844100D01*
X92500000Y-79505000D02*
X92500000Y-72617200D01*
X89665100Y-82339900D02*
X90814400Y-81190600D01*
X91265400Y-85109500D02*
X90564500Y-85109500D01*
X95000000Y-88844100D02*
X91265400Y-85109500D01*
X89000000Y-69117200D02*
X89000000Y-56005000D01*
X92500000Y-72617200D02*
X89000000Y-69117200D01*
X89665100Y-84210100D02*
X89665100Y-82339900D01*
X90564500Y-85109500D02*
X89665100Y-84210100D01*
X97000000Y-93000000D02*
X95000000Y-91000000D01*
X89000000Y-56005000D02*
X90814400Y-54190600D01*
D31*
%TO.N,GND*%
X103500000Y-76540000D02*
X103500000Y-79080000D01*
D30*
X103500000Y-79080000D02*
X103500000Y-81798300D01*
X71091200Y-93041200D02*
X68708800Y-93041200D01*
X110000000Y-89500000D02*
X110000000Y-88298300D01*
X106750000Y-69500000D02*
X106750000Y-65796800D01*
X103500000Y-74000000D02*
X103500000Y-69046800D01*
X100020000Y-107570000D02*
X100020000Y-102930000D01*
X82240000Y-92305000D02*
X83194400Y-91350600D01*
D31*
X103500000Y-76540000D02*
X103500000Y-74000000D01*
D30*
X82240000Y-107570000D02*
X82240000Y-102930000D01*
X103500000Y-81798300D02*
X110000000Y-88298300D01*
X103500000Y-69046800D02*
X107305600Y-65241200D01*
X82240000Y-102930000D02*
X82240000Y-92305000D01*
X106750000Y-65796800D02*
X107305600Y-65241200D01*
X68708800Y-93041200D02*
X63500000Y-98250000D01*
%TO.N,Net-(A1B-D8)*%
X92400000Y-107570000D02*
X92400000Y-102930000D01*
%TO.N,Net-(A1A-SD1)*%
X79690000Y-130440000D02*
X79690000Y-134930000D01*
%TO.N,Net-(A1B-D1)*%
X69540000Y-109040000D02*
X69540000Y-107570000D01*
X100994800Y-83565300D02*
X97000000Y-87560100D01*
X100994800Y-64365200D02*
X100994800Y-83565300D01*
X69540000Y-107570000D02*
X69540000Y-102930000D01*
X70500000Y-110000000D02*
X69540000Y-109040000D01*
X103120000Y-62240000D02*
X100994800Y-64365200D01*
X89880000Y-110630000D02*
X89250000Y-110000000D01*
X89250000Y-110000000D02*
X70500000Y-110000000D01*
X89880000Y-113250000D02*
X89880000Y-110630000D01*
%TO.N,Net-(A1B-D10)*%
X97480000Y-107570000D02*
X97480000Y-102930000D01*
%TO.N,Net-(J9-Pin_15)*%
X102560000Y-107570000D02*
X102560000Y-102930000D01*
%TO.N,Net-(A1A-RST)*%
X97470000Y-130440000D02*
X97470000Y-134930000D01*
%TO.N,Net-(A1B-D5)*%
X84780000Y-107570000D02*
X84780000Y-102930000D01*
%TO.N,Net-(A1A-VIN)*%
X102560000Y-133768300D02*
X102550000Y-133778300D01*
X102560000Y-130430000D02*
X102560000Y-133768300D01*
X102550000Y-134930000D02*
X102550000Y-133778300D01*
%TO.N,Net-(A1A-SD0)*%
X84770000Y-130440000D02*
X84770000Y-134930000D01*
%TO.N,Net-(A1A-RSV1)*%
X69540000Y-130430000D02*
X69540000Y-133768300D01*
X69540000Y-133768300D02*
X69530000Y-133778300D01*
X69530000Y-134930000D02*
X69530000Y-133778300D01*
%TO.N,Net-(A1A-SD2)*%
X77150000Y-130440000D02*
X77150000Y-134930000D01*
%TO.N,Net-(A1A-A0)*%
X67000000Y-133768300D02*
X66990000Y-133778300D01*
X66990000Y-134930000D02*
X66990000Y-133778300D01*
X67000000Y-130430000D02*
X67000000Y-133768300D01*
%TO.N,Net-(A1B-D9)*%
X94940000Y-107570000D02*
X94940000Y-102930000D01*
%TO.N,Net-(A1A-CLK)*%
X87310000Y-130440000D02*
X87310000Y-134930000D01*
%TO.N,Net-(A1A-SD3)*%
X74610000Y-130440000D02*
X74610000Y-134930000D01*
%TO.N,Net-(A1A-EN)*%
X94930000Y-130440000D02*
X94930000Y-134930000D01*
%TO.N,+3.3V*%
X97500000Y-114750000D02*
X97500000Y-113250000D01*
X104880000Y-96000000D02*
X104880000Y-97101700D01*
X91969800Y-52182000D02*
X91231200Y-52920600D01*
X101290000Y-100691700D02*
X104880000Y-97101700D01*
X97500000Y-113250000D02*
X101290000Y-113250000D01*
X83000000Y-115500000D02*
X96750000Y-115500000D01*
X82310000Y-113250000D02*
X82310000Y-114810000D01*
X91231200Y-52920600D02*
X90454500Y-52920600D01*
X101290000Y-121540000D02*
X101290000Y-100691700D01*
X89250000Y-43000000D02*
X90814400Y-44564400D01*
X92390000Y-134930000D02*
X92390000Y-130440000D01*
X96750000Y-115500000D02*
X97500000Y-114750000D01*
X97000000Y-76540000D02*
X97000000Y-79080000D01*
X115500000Y-88000000D02*
X123048400Y-95548400D01*
X88000000Y-70756200D02*
X90814400Y-73570600D01*
X91969800Y-48142500D02*
X91969800Y-47726000D01*
X91969800Y-47726000D02*
X90814400Y-46570600D01*
X88000000Y-55375100D02*
X88000000Y-70756200D01*
X97000000Y-74000000D02*
X97000000Y-76540000D01*
X90814400Y-44564400D02*
X90814400Y-46570600D01*
X123048400Y-95548400D02*
X123048400Y-105203400D01*
X90454500Y-52920600D02*
X88000000Y-55375100D01*
X82310000Y-114810000D02*
X83000000Y-115500000D01*
X91969800Y-48142500D02*
X91969800Y-52182000D01*
X91969800Y-48142500D02*
X101977500Y-48142500D01*
X115500000Y-86000000D02*
X115500000Y-88000000D01*
X101977500Y-48142500D02*
X103120000Y-47000000D01*
X92400000Y-130430000D02*
X101290000Y-121540000D01*
%TO.N,Net-(A1A-RSV2)*%
X72070000Y-130440000D02*
X72070000Y-134930000D01*
%TO.N,Net-(A1A-CMD)*%
X82230000Y-130440000D02*
X82230000Y-134930000D01*
%TO.N,Net-(A1B-D0)*%
X98151700Y-83076600D02*
X97000000Y-84228300D01*
X98151700Y-64668300D02*
X98151700Y-83076600D01*
X97000000Y-85380000D02*
X97000000Y-84228300D01*
X67000000Y-107570000D02*
X67000000Y-102930000D01*
X103120000Y-59700000D02*
X98151700Y-64668300D01*
%TO.N,Net-(A1B-D2)*%
X90814400Y-83730600D02*
X93500000Y-81045000D01*
X72080000Y-107570000D02*
X72080000Y-102930000D01*
X93500000Y-81045000D02*
X93500000Y-69311000D01*
X89500000Y-65311000D02*
X89500000Y-58045000D01*
X97000000Y-89916200D02*
X90814400Y-83730600D01*
X93500000Y-69311000D02*
X89500000Y-65311000D01*
X89500000Y-58045000D02*
X90814400Y-56730600D01*
%TO.N,Net-(A1B-D4)*%
X82814300Y-90080600D02*
X81671800Y-91223100D01*
X81671800Y-97266500D02*
X77160000Y-101778300D01*
X81671800Y-91223100D02*
X81671800Y-97266500D01*
X88000000Y-85654100D02*
X83573500Y-90080600D01*
X77160000Y-101778300D02*
X77160000Y-102930000D01*
X90814400Y-78650600D02*
X88000000Y-81465000D01*
X77160000Y-107570000D02*
X77160000Y-102930000D01*
X88000000Y-81465000D02*
X88000000Y-85654100D01*
X83573500Y-90080600D02*
X82814300Y-90080600D01*
%TO.N,VDC*%
X68500000Y-98250000D02*
X70580000Y-98250000D01*
X138600000Y-107820000D02*
X135661700Y-107820000D01*
X77250000Y-91580000D02*
X78711200Y-93041200D01*
X120180000Y-50500000D02*
X120180000Y-63160000D01*
X120180000Y-47161700D02*
X120180000Y-50500000D01*
D31*
X116500000Y-76580000D02*
X116500000Y-74040000D01*
D30*
X133000000Y-95080000D02*
X133000000Y-96481700D01*
X135661700Y-107820000D02*
X134401700Y-109080000D01*
X133000000Y-109080000D02*
X134401700Y-109080000D01*
X78611200Y-69250000D02*
X78611200Y-70388800D01*
X77500000Y-69250000D02*
X78611200Y-69250000D01*
X151260000Y-79820000D02*
X151260000Y-93820000D01*
X78611200Y-70388800D02*
X77250000Y-71750000D01*
X118920000Y-44500000D02*
X118920000Y-45901700D01*
X138600000Y-65320000D02*
X151260000Y-65320000D01*
X78611200Y-65941200D02*
X78611200Y-69250000D01*
X135661700Y-107820000D02*
X135661700Y-99143400D01*
X135661700Y-99143400D02*
X133000000Y-96481700D01*
X151260000Y-135820000D02*
X151260000Y-121820000D01*
X70580000Y-98250000D02*
X77250000Y-91580000D01*
X77250000Y-71750000D02*
X77250000Y-91580000D01*
X118920000Y-45901700D02*
X120180000Y-47161700D01*
%TO.N,+5V*%
X116400000Y-132800000D02*
X116400000Y-131398300D01*
X115500000Y-90500000D02*
X110000000Y-85000000D01*
X115500000Y-130498300D02*
X115500000Y-105000000D01*
D31*
X110000000Y-76540000D02*
X110000000Y-79080000D01*
D30*
X116400000Y-131398300D02*
X115500000Y-130498300D01*
X115500000Y-105000000D02*
X115500000Y-90500000D01*
X110000000Y-85000000D02*
X110000000Y-79080000D01*
D31*
X110000000Y-74000000D02*
X110000000Y-76540000D01*
D30*
%TO.N,Net-(D2-A)*%
X117354400Y-42500000D02*
X114934400Y-44920000D01*
X133000000Y-56500000D02*
X131598300Y-56500000D01*
X131598300Y-56500000D02*
X122035100Y-46936800D01*
X122035100Y-46936800D02*
X122035100Y-44922500D01*
X122035100Y-44922500D02*
X119612600Y-42500000D01*
X119612600Y-42500000D02*
X117354400Y-42500000D01*
%TO.N,Net-(D3-A)*%
X117430500Y-62478800D02*
X117430500Y-52496100D01*
X117430500Y-52496100D02*
X114934400Y-50000000D01*
X133000000Y-70920000D02*
X125871700Y-70920000D01*
X125871700Y-70920000D02*
X117430500Y-62478800D01*
%TO.N,Net-(D4-A)*%
X116737700Y-56883300D02*
X116737700Y-62618500D01*
X116737700Y-62618500D02*
X131598300Y-77479100D01*
X131598300Y-82379500D02*
X133000000Y-83781200D01*
X133000000Y-83781200D02*
X133000000Y-84920000D01*
X114934400Y-55080000D02*
X116737700Y-56883300D01*
X131598300Y-77479100D02*
X131598300Y-82379500D01*
%TO.N,Net-(D5-A)*%
X130579100Y-77106700D02*
X116136100Y-62663700D01*
X133000000Y-98920000D02*
X133000000Y-97736100D01*
X116136100Y-62663700D02*
X116136100Y-61361700D01*
X116136100Y-61361700D02*
X114934400Y-60160000D01*
X133000000Y-97736100D02*
X130579100Y-95315200D01*
X130579100Y-95315200D02*
X130579100Y-77106700D01*
%TO.N,Net-(D6-A)*%
X133000000Y-111781200D02*
X131598300Y-110379500D01*
X137320000Y-112920000D02*
X138600000Y-114200000D01*
X121308400Y-90808400D02*
X121308400Y-69084000D01*
X121308400Y-69084000D02*
X114925600Y-62701200D01*
X133000000Y-112920000D02*
X137320000Y-112920000D01*
X131598300Y-110379500D02*
X131598300Y-101098300D01*
X133000000Y-112920000D02*
X133000000Y-111781200D01*
X131598300Y-101098300D02*
X121308400Y-90808400D01*
%TO.N,Net-(D7-A)*%
X125000000Y-103500000D02*
X124725000Y-103225000D01*
X113784600Y-79877200D02*
X113784600Y-58769800D01*
X127500000Y-103500000D02*
X125000000Y-103500000D01*
X113784600Y-58769800D02*
X114934400Y-57620000D01*
X119761200Y-90796900D02*
X119761200Y-85853800D01*
X132920000Y-126920000D02*
X130500000Y-124500000D01*
X130500000Y-106500000D02*
X127500000Y-103500000D01*
X124725000Y-95760700D02*
X119761200Y-90796900D01*
X119761200Y-85853800D02*
X113784600Y-79877200D01*
X124725000Y-103225000D02*
X124725000Y-95760700D01*
X130500000Y-124500000D02*
X130500000Y-106500000D01*
%TO.N,Net-(D8-A)*%
X129080000Y-45901700D02*
X127800000Y-47181700D01*
X127800000Y-47181700D02*
X127800000Y-50500000D01*
X129080000Y-44500000D02*
X129080000Y-45901700D01*
%TO.N,Net-(D9-A)*%
X107460000Y-90960000D02*
X112500000Y-96000000D01*
X107460000Y-89500000D02*
X107460000Y-90960000D01*
%TO.N,C1*%
X157900000Y-95280000D02*
X159500000Y-93680000D01*
X159500000Y-93680000D02*
X159500000Y-77900000D01*
X159500000Y-77900000D02*
X153800000Y-72200000D01*
%TO.N,D1*%
X130900000Y-68800000D02*
X127800000Y-65700000D01*
X157900000Y-92740000D02*
X156240000Y-92740000D01*
X156240000Y-92740000D02*
X152000000Y-88500000D01*
X152000000Y-88500000D02*
X152000000Y-81900000D01*
X153200000Y-80700000D02*
X153200000Y-78700000D01*
X142500101Y-68800000D02*
X130900000Y-68800000D01*
X151600101Y-77900000D02*
X142500101Y-68800000D01*
X152400000Y-77900000D02*
X151600101Y-77900000D01*
X153200000Y-78700000D02*
X152400000Y-77900000D01*
X152000000Y-81900000D02*
X153200000Y-80700000D01*
%TO.N,F1*%
X148500000Y-92750000D02*
X148500000Y-115250000D01*
X148500000Y-115250000D02*
X153800000Y-120550000D01*
X153940000Y-83700000D02*
X157900000Y-87660000D01*
X152800000Y-83700000D02*
X153940000Y-83700000D01*
X153800000Y-120550000D02*
X153800000Y-128200000D01*
%TO.N,G1*%
X154000000Y-82250000D02*
X155030000Y-82250000D01*
X155030000Y-82250000D02*
X157900000Y-85120000D01*
%TO.N,E1*%
X157900000Y-90200000D02*
X153900000Y-86200000D01*
%TO.N,H1*%
X156070000Y-80750000D02*
X155000000Y-80750000D01*
X157900000Y-82580000D02*
X156070000Y-80750000D01*
%TO.N,Net-(J10-Pin_5)*%
X97000000Y-95540000D02*
X97000000Y-94676200D01*
X97000000Y-94676200D02*
X101500000Y-90176200D01*
X101500000Y-90176200D02*
X101500000Y-66400000D01*
X101500000Y-66400000D02*
X103120000Y-64780000D01*
%TO.N,Net-(U2-QH')*%
X88900000Y-81423200D02*
X88900000Y-89436200D01*
X90394000Y-79929200D02*
X88900000Y-81423200D01*
X87000000Y-73944600D02*
X90436000Y-77380600D01*
X90436000Y-77380600D02*
X91213500Y-77380600D01*
X87000000Y-55465000D02*
X87000000Y-73944600D01*
X91156500Y-79929200D02*
X90394000Y-79929200D01*
X91989300Y-79096400D02*
X91156500Y-79929200D01*
X91989300Y-78156400D02*
X91989300Y-79096400D01*
X88900000Y-89436200D02*
X90814400Y-91350600D01*
X91213500Y-77380600D02*
X91989300Y-78156400D01*
X90814400Y-51650600D02*
X87000000Y-55465000D01*
%TO.N,Net-(U3-I1)*%
X72139900Y-45620000D02*
X73279800Y-46759900D01*
X89478500Y-47774700D02*
X90814400Y-49110600D01*
X79925200Y-46759900D02*
X80940000Y-47774700D01*
X71000000Y-45620000D02*
X72139900Y-45620000D01*
X80940000Y-47774700D02*
X89478500Y-47774700D01*
X73279800Y-46759900D02*
X79925200Y-46759900D01*
%TO.N,Net-(U4-QH')*%
X94828050Y-58430000D02*
X96770000Y-58430000D01*
X93503600Y-59754450D02*
X94828050Y-58430000D01*
X93503600Y-61661400D02*
X93503600Y-59754450D01*
X96770000Y-58430000D02*
X103120000Y-52080000D01*
X90814400Y-64350600D02*
X93503600Y-61661400D01*
%TO.N,Net-(U5-I1)*%
X103120000Y-49540000D02*
X107314400Y-45345600D01*
%TO.N,Net-(U5-I7)*%
X95500000Y-59700000D02*
X101243600Y-59700000D01*
X102431500Y-58512100D02*
X105666500Y-58512100D01*
X101243600Y-59700000D02*
X102431500Y-58512100D01*
X105666500Y-58512100D02*
X107314400Y-60160000D01*
%TO.N,Net-(U5-I4)*%
X95500000Y-52080000D02*
X96687900Y-50892100D01*
X105666500Y-50892100D02*
X107314400Y-52540000D01*
X96687900Y-50892100D02*
X105666500Y-50892100D01*
%TD*%
M02*
