M48
; DRILL file {KiCad 8.0.3} date 2024-07-07T19:21:36+0800
; FORMAT={-:-/ absolute / inch / decimal}
; #@! TF.CreationDate,2024-07-07T19:21:36+08:00
; #@! TF.GenerationSoftware,Kicad,Pcbnew,8.0.3
; #@! TF.FileFunction,Plated,1,2,PTH
FMAT,2
INCH
; #@! TA.AperFunction,Plated,PTH,ViaDrill
T1C0.0118
; #@! TA.AperFunction,Plated,PTH,ComponentDrill
T2C0.0394
; #@! TA.AperFunction,Plated,PTH,ComponentDrill
T3C0.0630
%
G90
G05
T1
X4.6128Y-3.3425
X5.4129Y-4.3149
X5.4388Y-4.2386
X5.4593Y-3.9921
X5.4837Y-3.7564
X5.502Y-3.5925
X5.705Y-3.0611
X5.7589Y-3.1324
X5.7831Y-2.723
T2
X4.4783Y-2.774
X4.4783Y-2.874
X4.4783Y-2.974
X4.4783Y-3.074
X4.4783Y-3.174
X4.4783Y-3.274
X4.4783Y-3.374
X4.4783Y-3.474
X4.4783Y-3.6386
X4.4783Y-3.7386
X4.4783Y-3.8386
X4.4783Y-3.9386
X4.4783Y-4.0386
X4.4783Y-4.1386
X4.4783Y-4.2386
X4.4783Y-4.3386
X4.6693Y-4.8134
X4.6693Y-4.9134
X4.6693Y-5.0134
X4.6693Y-5.1134
X4.6693Y-5.2134
X4.6693Y-5.3134
X4.6693Y-5.4134
X4.6693Y-5.5134
X5.374Y-4.8134
X5.374Y-4.9134
X5.374Y-5.0134
X5.374Y-5.1134
X5.374Y-5.2134
X5.374Y-5.3134
X5.374Y-5.4134
X5.374Y-5.5134
X5.5398Y-2.8039
X5.5398Y-2.9039
X5.5398Y-3.0039
X5.5398Y-3.1039
X5.5398Y-3.2039
X5.5398Y-3.3039
X5.5398Y-3.4039
X5.5398Y-3.5039
X5.5398Y-3.8583
X5.5398Y-4.2136
X5.6398Y-2.8039
X5.6398Y-2.9039
X5.6398Y-3.0039
X5.6398Y-3.1039
X5.6398Y-3.2039
X5.6398Y-3.3039
X5.6398Y-3.4039
X5.6398Y-3.5039
X5.6398Y-3.8583
X5.6398Y-4.2136
X5.8071Y-4.813
X5.8071Y-4.913
X5.8071Y-5.013
X5.8071Y-5.113
X5.8071Y-5.213
X5.8071Y-5.313
X5.8071Y-5.413
X5.8071Y-5.513
X6.5118Y-4.813
X6.5118Y-4.913
X6.5118Y-5.013
X6.5118Y-5.113
X6.5118Y-5.213
X6.5118Y-5.313
X6.5118Y-5.413
X6.5118Y-5.513
X6.7028Y-2.7736
X6.7028Y-2.8736
X6.7028Y-2.9736
X6.7028Y-3.0736
X6.7028Y-3.1736
X6.7028Y-3.2736
X6.7028Y-3.3736
X6.7028Y-3.4736
X6.7028Y-3.6386
X6.7028Y-3.7386
X6.7028Y-3.8386
X6.7028Y-3.9386
X6.7028Y-4.0386
X6.7028Y-4.1386
X6.7028Y-4.2386
X6.7028Y-4.3386
T3
X4.7098Y-2.7362
X4.7098Y-2.9724
X4.7098Y-3.2087
X4.7098Y-3.4449
X4.7098Y-3.6811
X4.7098Y-3.9173
X4.7098Y-4.1535
X4.7098Y-4.3898
X5.3098Y-2.7362
X5.3098Y-2.9724
X5.3098Y-3.2087
X5.3098Y-3.4449
X5.3098Y-3.6811
X5.3098Y-3.9173
X5.3098Y-4.1535
X5.3098Y-4.3898
X5.8811Y-2.7362
X5.8811Y-2.9724
X5.8811Y-3.2087
X5.8811Y-3.4449
X5.8811Y-3.6811
X5.8811Y-3.9173
X5.8811Y-4.1535
X5.8811Y-4.3898
X6.4811Y-2.7362
X6.4811Y-2.9724
X6.4811Y-3.2087
X6.4811Y-3.4449
X6.4811Y-3.6811
X6.4811Y-3.9173
X6.4811Y-4.1535
X6.4811Y-4.3898
M30
