%TF.GenerationSoftware,KiCad,Pcbnew,8.0.7*%
%TF.CreationDate,2025-01-09T07:47:35+08:00*%
%TF.ProjectId,V2.5 Mechanical Seven Segment Digit,56322e35-204d-4656-9368-616e6963616c,rev?*%
%TF.SameCoordinates,Original*%
%TF.FileFunction,Profile,NP*%
%FSLAX46Y46*%
G04 Gerber Fmt 4.6, Leading zero omitted, Abs format (unit mm)*
G04 Created by KiCad (PCBNEW 8.0.7) date 2025-01-09 07:47:35*
%MOMM*%
%LPD*%
G01*
G04 APERTURE LIST*
%TA.AperFunction,Profile*%
%ADD10C,0.050000*%
%TD*%
G04 APERTURE END LIST*
D10*
X144998970Y-122399973D02*
X145000001Y-141000000D01*
X112999999Y-119250001D02*
G75*
G02*
X109999999Y-116250001I1J3000001D01*
G01*
X117500000Y-142500000D02*
G75*
G02*
X116000000Y-141000000I0J1500000D01*
G01*
X174000000Y-116250000D02*
G75*
G02*
X171000000Y-119250000I-3000000J0D01*
G01*
X139000000Y-141000001D02*
G75*
G02*
X137500000Y-142500000I-1500000J1D01*
G01*
X139000001Y-122321320D02*
G75*
G02*
X142000000Y-119321301I2999999J20D01*
G01*
X171000000Y-61250000D02*
G75*
G02*
X174000000Y-64250000I0J-3000000D01*
G01*
X146500001Y-142500000D02*
G75*
G02*
X145000000Y-141000000I-1J1500000D01*
G01*
X117500000Y-142500000D02*
X137500000Y-142500001D01*
X166499999Y-142500001D02*
X146500001Y-142500000D01*
X167999999Y-141000001D02*
X168000000Y-122250001D01*
X167999999Y-141000001D02*
G75*
G02*
X166499999Y-142499999I-1499999J1D01*
G01*
X110000000Y-64250000D02*
G75*
G02*
X113000000Y-61250000I3000000J0D01*
G01*
X174000000Y-64250000D02*
X174000000Y-116250000D01*
X115999999Y-122250000D02*
X116000000Y-141000000D01*
X139000000Y-141000001D02*
X139000001Y-122321320D01*
X142000000Y-119321320D02*
G75*
G02*
X144998948Y-122399972I0J-2999980D01*
G01*
X168000000Y-122250001D02*
G75*
G02*
X171000000Y-119250000I3000000J1D01*
G01*
X112999999Y-119250001D02*
G75*
G02*
X115999999Y-122250000I1J-2999999D01*
G01*
X109999999Y-116250001D02*
X110000000Y-64250000D01*
X113000000Y-61250000D02*
X171000000Y-61250000D01*
M02*
