%TF.GenerationSoftware,KiCad,Pcbnew,8.0.7*%
%TF.CreationDate,2025-01-09T07:47:35+08:00*%
%TF.ProjectId,V2.5 Mechanical Seven Segment Digit,56322e35-204d-4656-9368-616e6963616c,rev?*%
%TF.SameCoordinates,Original*%
%TF.FileFunction,Legend,Bot*%
%TF.FilePolarity,Positive*%
%FSLAX46Y46*%
G04 Gerber Fmt 4.6, Leading zero omitted, Abs format (unit mm)*
G04 Created by KiCad (PCBNEW 8.0.7) date 2025-01-09 07:47:35*
%MOMM*%
%LPD*%
G01*
G04 APERTURE LIST*
%ADD10C,0.100000*%
%ADD11C,0.240000*%
%ADD12C,0.180000*%
%ADD13C,0.200000*%
%ADD14C,0.150000*%
%ADD15C,0.120000*%
G04 APERTURE END LIST*
D10*
X140750000Y-103250000D02*
G75*
G02*
X140250000Y-102750000I0J500000D01*
G01*
X168250000Y-120250000D02*
X167150000Y-120250000D01*
X166750000Y-120250000D02*
X165650000Y-120250000D01*
X165250000Y-120250000D02*
X164150000Y-120250000D01*
X163750000Y-120250000D02*
X162650000Y-120250000D01*
X162250000Y-120250000D02*
X161150000Y-120250000D01*
X160750000Y-120250000D02*
X159650000Y-120250000D01*
X159250000Y-120250000D02*
X158150000Y-120250000D01*
X157750000Y-120250000D02*
X156650000Y-120250000D01*
X156250000Y-120250000D02*
X155150000Y-120250000D01*
X154750000Y-120250000D02*
X153650000Y-120250000D01*
X153250000Y-120250000D02*
X152150000Y-120250000D01*
X151750000Y-120250000D02*
X150650000Y-120250000D01*
X150250000Y-120250000D02*
X149150000Y-120250000D01*
X148750000Y-120250000D02*
X147650000Y-120250000D01*
X147250000Y-120250000D02*
X146150000Y-120250000D01*
X145750000Y-120250000D02*
X144750000Y-120250000D01*
X140750000Y-93250000D02*
X143250000Y-93250000D01*
X143250000Y-93250000D02*
G75*
G02*
X143750000Y-93750000I0J-500000D01*
G01*
X143750000Y-102750000D02*
G75*
G02*
X143250000Y-103250000I-500000J0D01*
G01*
X143750000Y-93750000D02*
X143750000Y-102750000D01*
X139250000Y-120250000D02*
X138150000Y-120250000D01*
X137750000Y-120250000D02*
X136650000Y-120250000D01*
X136250000Y-120250000D02*
X135150000Y-120250000D01*
X134750000Y-120250000D02*
X133650000Y-120250000D01*
X133250000Y-120250000D02*
X132150000Y-120250000D01*
X131750000Y-120250000D02*
X130650000Y-120250000D01*
X130250000Y-120250000D02*
X129150000Y-120250000D01*
X128750000Y-120250000D02*
X127650000Y-120250000D01*
X127250000Y-120250000D02*
X126150000Y-120250000D01*
X125750000Y-120250000D02*
X124650000Y-120250000D01*
X124250000Y-120250000D02*
X123150000Y-120250000D01*
X122750000Y-120250000D02*
X121650000Y-120250000D01*
X121250000Y-120250000D02*
X120150000Y-120250000D01*
X119750000Y-120250000D02*
X118650000Y-120250000D01*
X118250000Y-120250000D02*
X117150000Y-120250000D01*
X116750000Y-120250000D02*
X115750000Y-120250000D01*
X143250000Y-103250000D02*
X140750000Y-103250000D01*
X140250000Y-102750000D02*
X140250000Y-93750000D01*
X140250000Y-93750000D02*
G75*
G02*
X140750000Y-93250000I500000J0D01*
G01*
D11*
X141945139Y-95550751D02*
X142040377Y-95836465D01*
X142040377Y-95836465D02*
X142135615Y-95931703D01*
X142135615Y-95931703D02*
X142326091Y-96026941D01*
X142326091Y-96026941D02*
X142611805Y-96026941D01*
X142611805Y-96026941D02*
X142802281Y-95931703D01*
X142802281Y-95931703D02*
X142897520Y-95836465D01*
X142897520Y-95836465D02*
X142992758Y-95645989D01*
X142992758Y-95645989D02*
X142992758Y-94884084D01*
X142992758Y-94884084D02*
X140992758Y-94884084D01*
X140992758Y-94884084D02*
X140992758Y-95550751D01*
X140992758Y-95550751D02*
X141087996Y-95741227D01*
X141087996Y-95741227D02*
X141183234Y-95836465D01*
X141183234Y-95836465D02*
X141373710Y-95931703D01*
X141373710Y-95931703D02*
X141564186Y-95931703D01*
X141564186Y-95931703D02*
X141754662Y-95836465D01*
X141754662Y-95836465D02*
X141849900Y-95741227D01*
X141849900Y-95741227D02*
X141945139Y-95550751D01*
X141945139Y-95550751D02*
X141945139Y-94884084D01*
X142421329Y-96788846D02*
X142421329Y-97741227D01*
X142992758Y-96598370D02*
X140992758Y-97265036D01*
X140992758Y-97265036D02*
X142992758Y-97931703D01*
X142802281Y-99741227D02*
X142897520Y-99645989D01*
X142897520Y-99645989D02*
X142992758Y-99360275D01*
X142992758Y-99360275D02*
X142992758Y-99169799D01*
X142992758Y-99169799D02*
X142897520Y-98884084D01*
X142897520Y-98884084D02*
X142707043Y-98693608D01*
X142707043Y-98693608D02*
X142516567Y-98598370D01*
X142516567Y-98598370D02*
X142135615Y-98503132D01*
X142135615Y-98503132D02*
X141849900Y-98503132D01*
X141849900Y-98503132D02*
X141468948Y-98598370D01*
X141468948Y-98598370D02*
X141278472Y-98693608D01*
X141278472Y-98693608D02*
X141087996Y-98884084D01*
X141087996Y-98884084D02*
X140992758Y-99169799D01*
X140992758Y-99169799D02*
X140992758Y-99360275D01*
X140992758Y-99360275D02*
X141087996Y-99645989D01*
X141087996Y-99645989D02*
X141183234Y-99741227D01*
X142992758Y-100598370D02*
X140992758Y-100598370D01*
X142992758Y-101741227D02*
X141849900Y-100884084D01*
X140992758Y-101741227D02*
X142135615Y-100598370D01*
D12*
X127498854Y-122471428D02*
X127570282Y-122685714D01*
X127570282Y-122685714D02*
X127641711Y-122757143D01*
X127641711Y-122757143D02*
X127784568Y-122828571D01*
X127784568Y-122828571D02*
X127998854Y-122828571D01*
X127998854Y-122828571D02*
X128141711Y-122757143D01*
X128141711Y-122757143D02*
X128213140Y-122685714D01*
X128213140Y-122685714D02*
X128284568Y-122542857D01*
X128284568Y-122542857D02*
X128284568Y-121971428D01*
X128284568Y-121971428D02*
X126784568Y-121971428D01*
X126784568Y-121971428D02*
X126784568Y-122471428D01*
X126784568Y-122471428D02*
X126855997Y-122614286D01*
X126855997Y-122614286D02*
X126927425Y-122685714D01*
X126927425Y-122685714D02*
X127070282Y-122757143D01*
X127070282Y-122757143D02*
X127213140Y-122757143D01*
X127213140Y-122757143D02*
X127355997Y-122685714D01*
X127355997Y-122685714D02*
X127427425Y-122614286D01*
X127427425Y-122614286D02*
X127498854Y-122471428D01*
X127498854Y-122471428D02*
X127498854Y-121971428D01*
X128284568Y-123685714D02*
X128213140Y-123542857D01*
X128213140Y-123542857D02*
X128070282Y-123471428D01*
X128070282Y-123471428D02*
X126784568Y-123471428D01*
X128284568Y-124900000D02*
X127498854Y-124900000D01*
X127498854Y-124900000D02*
X127355997Y-124828571D01*
X127355997Y-124828571D02*
X127284568Y-124685714D01*
X127284568Y-124685714D02*
X127284568Y-124400000D01*
X127284568Y-124400000D02*
X127355997Y-124257142D01*
X128213140Y-124900000D02*
X128284568Y-124757142D01*
X128284568Y-124757142D02*
X128284568Y-124400000D01*
X128284568Y-124400000D02*
X128213140Y-124257142D01*
X128213140Y-124257142D02*
X128070282Y-124185714D01*
X128070282Y-124185714D02*
X127927425Y-124185714D01*
X127927425Y-124185714D02*
X127784568Y-124257142D01*
X127784568Y-124257142D02*
X127713140Y-124400000D01*
X127713140Y-124400000D02*
X127713140Y-124757142D01*
X127713140Y-124757142D02*
X127641711Y-124900000D01*
X128213140Y-126257143D02*
X128284568Y-126114285D01*
X128284568Y-126114285D02*
X128284568Y-125828571D01*
X128284568Y-125828571D02*
X128213140Y-125685714D01*
X128213140Y-125685714D02*
X128141711Y-125614285D01*
X128141711Y-125614285D02*
X127998854Y-125542857D01*
X127998854Y-125542857D02*
X127570282Y-125542857D01*
X127570282Y-125542857D02*
X127427425Y-125614285D01*
X127427425Y-125614285D02*
X127355997Y-125685714D01*
X127355997Y-125685714D02*
X127284568Y-125828571D01*
X127284568Y-125828571D02*
X127284568Y-126114285D01*
X127284568Y-126114285D02*
X127355997Y-126257143D01*
X128284568Y-126899999D02*
X126784568Y-126899999D01*
X127713140Y-127042857D02*
X128284568Y-127471428D01*
X127284568Y-127471428D02*
X127855997Y-126899999D01*
X128141711Y-130114285D02*
X128213140Y-130042857D01*
X128213140Y-130042857D02*
X128284568Y-129828571D01*
X128284568Y-129828571D02*
X128284568Y-129685714D01*
X128284568Y-129685714D02*
X128213140Y-129471428D01*
X128213140Y-129471428D02*
X128070282Y-129328571D01*
X128070282Y-129328571D02*
X127927425Y-129257142D01*
X127927425Y-129257142D02*
X127641711Y-129185714D01*
X127641711Y-129185714D02*
X127427425Y-129185714D01*
X127427425Y-129185714D02*
X127141711Y-129257142D01*
X127141711Y-129257142D02*
X126998854Y-129328571D01*
X126998854Y-129328571D02*
X126855997Y-129471428D01*
X126855997Y-129471428D02*
X126784568Y-129685714D01*
X126784568Y-129685714D02*
X126784568Y-129828571D01*
X126784568Y-129828571D02*
X126855997Y-130042857D01*
X126855997Y-130042857D02*
X126927425Y-130114285D01*
X128284568Y-130971428D02*
X128213140Y-130828571D01*
X128213140Y-130828571D02*
X128141711Y-130757142D01*
X128141711Y-130757142D02*
X127998854Y-130685714D01*
X127998854Y-130685714D02*
X127570282Y-130685714D01*
X127570282Y-130685714D02*
X127427425Y-130757142D01*
X127427425Y-130757142D02*
X127355997Y-130828571D01*
X127355997Y-130828571D02*
X127284568Y-130971428D01*
X127284568Y-130971428D02*
X127284568Y-131185714D01*
X127284568Y-131185714D02*
X127355997Y-131328571D01*
X127355997Y-131328571D02*
X127427425Y-131400000D01*
X127427425Y-131400000D02*
X127570282Y-131471428D01*
X127570282Y-131471428D02*
X127998854Y-131471428D01*
X127998854Y-131471428D02*
X128141711Y-131400000D01*
X128141711Y-131400000D02*
X128213140Y-131328571D01*
X128213140Y-131328571D02*
X128284568Y-131185714D01*
X128284568Y-131185714D02*
X128284568Y-130971428D01*
X127284568Y-132114285D02*
X128284568Y-132114285D01*
X127427425Y-132114285D02*
X127355997Y-132185714D01*
X127355997Y-132185714D02*
X127284568Y-132328571D01*
X127284568Y-132328571D02*
X127284568Y-132542857D01*
X127284568Y-132542857D02*
X127355997Y-132685714D01*
X127355997Y-132685714D02*
X127498854Y-132757143D01*
X127498854Y-132757143D02*
X128284568Y-132757143D01*
X127284568Y-133471428D02*
X128284568Y-133471428D01*
X127427425Y-133471428D02*
X127355997Y-133542857D01*
X127355997Y-133542857D02*
X127284568Y-133685714D01*
X127284568Y-133685714D02*
X127284568Y-133900000D01*
X127284568Y-133900000D02*
X127355997Y-134042857D01*
X127355997Y-134042857D02*
X127498854Y-134114286D01*
X127498854Y-134114286D02*
X128284568Y-134114286D01*
X128213140Y-135400000D02*
X128284568Y-135257143D01*
X128284568Y-135257143D02*
X128284568Y-134971429D01*
X128284568Y-134971429D02*
X128213140Y-134828571D01*
X128213140Y-134828571D02*
X128070282Y-134757143D01*
X128070282Y-134757143D02*
X127498854Y-134757143D01*
X127498854Y-134757143D02*
X127355997Y-134828571D01*
X127355997Y-134828571D02*
X127284568Y-134971429D01*
X127284568Y-134971429D02*
X127284568Y-135257143D01*
X127284568Y-135257143D02*
X127355997Y-135400000D01*
X127355997Y-135400000D02*
X127498854Y-135471429D01*
X127498854Y-135471429D02*
X127641711Y-135471429D01*
X127641711Y-135471429D02*
X127784568Y-134757143D01*
X128213140Y-136757143D02*
X128284568Y-136614285D01*
X128284568Y-136614285D02*
X128284568Y-136328571D01*
X128284568Y-136328571D02*
X128213140Y-136185714D01*
X128213140Y-136185714D02*
X128141711Y-136114285D01*
X128141711Y-136114285D02*
X127998854Y-136042857D01*
X127998854Y-136042857D02*
X127570282Y-136042857D01*
X127570282Y-136042857D02*
X127427425Y-136114285D01*
X127427425Y-136114285D02*
X127355997Y-136185714D01*
X127355997Y-136185714D02*
X127284568Y-136328571D01*
X127284568Y-136328571D02*
X127284568Y-136614285D01*
X127284568Y-136614285D02*
X127355997Y-136757143D01*
X127284568Y-137185714D02*
X127284568Y-137757142D01*
X126784568Y-137399999D02*
X128070282Y-137399999D01*
X128070282Y-137399999D02*
X128213140Y-137471428D01*
X128213140Y-137471428D02*
X128284568Y-137614285D01*
X128284568Y-137614285D02*
X128284568Y-137757142D01*
X128284568Y-138471428D02*
X128213140Y-138328571D01*
X128213140Y-138328571D02*
X128141711Y-138257142D01*
X128141711Y-138257142D02*
X127998854Y-138185714D01*
X127998854Y-138185714D02*
X127570282Y-138185714D01*
X127570282Y-138185714D02*
X127427425Y-138257142D01*
X127427425Y-138257142D02*
X127355997Y-138328571D01*
X127355997Y-138328571D02*
X127284568Y-138471428D01*
X127284568Y-138471428D02*
X127284568Y-138685714D01*
X127284568Y-138685714D02*
X127355997Y-138828571D01*
X127355997Y-138828571D02*
X127427425Y-138900000D01*
X127427425Y-138900000D02*
X127570282Y-138971428D01*
X127570282Y-138971428D02*
X127998854Y-138971428D01*
X127998854Y-138971428D02*
X128141711Y-138900000D01*
X128141711Y-138900000D02*
X128213140Y-138828571D01*
X128213140Y-138828571D02*
X128284568Y-138685714D01*
X128284568Y-138685714D02*
X128284568Y-138471428D01*
X128284568Y-139614285D02*
X127284568Y-139614285D01*
X127570282Y-139614285D02*
X127427425Y-139685714D01*
X127427425Y-139685714D02*
X127355997Y-139757143D01*
X127355997Y-139757143D02*
X127284568Y-139900000D01*
X127284568Y-139900000D02*
X127284568Y-140042857D01*
X155784568Y-121935714D02*
X157284568Y-122292857D01*
X157284568Y-122292857D02*
X156213140Y-122578571D01*
X156213140Y-122578571D02*
X157284568Y-122864286D01*
X157284568Y-122864286D02*
X155784568Y-123221429D01*
X157284568Y-123792857D02*
X155784568Y-123792857D01*
X157284568Y-124435715D02*
X156498854Y-124435715D01*
X156498854Y-124435715D02*
X156355997Y-124364286D01*
X156355997Y-124364286D02*
X156284568Y-124221429D01*
X156284568Y-124221429D02*
X156284568Y-124007143D01*
X156284568Y-124007143D02*
X156355997Y-123864286D01*
X156355997Y-123864286D02*
X156427425Y-123792857D01*
X157284568Y-125150000D02*
X156284568Y-125150000D01*
X155784568Y-125150000D02*
X155855997Y-125078572D01*
X155855997Y-125078572D02*
X155927425Y-125150000D01*
X155927425Y-125150000D02*
X155855997Y-125221429D01*
X155855997Y-125221429D02*
X155784568Y-125150000D01*
X155784568Y-125150000D02*
X155927425Y-125150000D01*
X156284568Y-125650001D02*
X156284568Y-126221429D01*
X155784568Y-125864286D02*
X157070282Y-125864286D01*
X157070282Y-125864286D02*
X157213140Y-125935715D01*
X157213140Y-125935715D02*
X157284568Y-126078572D01*
X157284568Y-126078572D02*
X157284568Y-126221429D01*
X157213140Y-127292858D02*
X157284568Y-127150001D01*
X157284568Y-127150001D02*
X157284568Y-126864287D01*
X157284568Y-126864287D02*
X157213140Y-126721429D01*
X157213140Y-126721429D02*
X157070282Y-126650001D01*
X157070282Y-126650001D02*
X156498854Y-126650001D01*
X156498854Y-126650001D02*
X156355997Y-126721429D01*
X156355997Y-126721429D02*
X156284568Y-126864287D01*
X156284568Y-126864287D02*
X156284568Y-127150001D01*
X156284568Y-127150001D02*
X156355997Y-127292858D01*
X156355997Y-127292858D02*
X156498854Y-127364287D01*
X156498854Y-127364287D02*
X156641711Y-127364287D01*
X156641711Y-127364287D02*
X156784568Y-126650001D01*
X157141711Y-130007143D02*
X157213140Y-129935715D01*
X157213140Y-129935715D02*
X157284568Y-129721429D01*
X157284568Y-129721429D02*
X157284568Y-129578572D01*
X157284568Y-129578572D02*
X157213140Y-129364286D01*
X157213140Y-129364286D02*
X157070282Y-129221429D01*
X157070282Y-129221429D02*
X156927425Y-129150000D01*
X156927425Y-129150000D02*
X156641711Y-129078572D01*
X156641711Y-129078572D02*
X156427425Y-129078572D01*
X156427425Y-129078572D02*
X156141711Y-129150000D01*
X156141711Y-129150000D02*
X155998854Y-129221429D01*
X155998854Y-129221429D02*
X155855997Y-129364286D01*
X155855997Y-129364286D02*
X155784568Y-129578572D01*
X155784568Y-129578572D02*
X155784568Y-129721429D01*
X155784568Y-129721429D02*
X155855997Y-129935715D01*
X155855997Y-129935715D02*
X155927425Y-130007143D01*
X157284568Y-130864286D02*
X157213140Y-130721429D01*
X157213140Y-130721429D02*
X157141711Y-130650000D01*
X157141711Y-130650000D02*
X156998854Y-130578572D01*
X156998854Y-130578572D02*
X156570282Y-130578572D01*
X156570282Y-130578572D02*
X156427425Y-130650000D01*
X156427425Y-130650000D02*
X156355997Y-130721429D01*
X156355997Y-130721429D02*
X156284568Y-130864286D01*
X156284568Y-130864286D02*
X156284568Y-131078572D01*
X156284568Y-131078572D02*
X156355997Y-131221429D01*
X156355997Y-131221429D02*
X156427425Y-131292858D01*
X156427425Y-131292858D02*
X156570282Y-131364286D01*
X156570282Y-131364286D02*
X156998854Y-131364286D01*
X156998854Y-131364286D02*
X157141711Y-131292858D01*
X157141711Y-131292858D02*
X157213140Y-131221429D01*
X157213140Y-131221429D02*
X157284568Y-131078572D01*
X157284568Y-131078572D02*
X157284568Y-130864286D01*
X156284568Y-132007143D02*
X157284568Y-132007143D01*
X156427425Y-132007143D02*
X156355997Y-132078572D01*
X156355997Y-132078572D02*
X156284568Y-132221429D01*
X156284568Y-132221429D02*
X156284568Y-132435715D01*
X156284568Y-132435715D02*
X156355997Y-132578572D01*
X156355997Y-132578572D02*
X156498854Y-132650001D01*
X156498854Y-132650001D02*
X157284568Y-132650001D01*
X156284568Y-133364286D02*
X157284568Y-133364286D01*
X156427425Y-133364286D02*
X156355997Y-133435715D01*
X156355997Y-133435715D02*
X156284568Y-133578572D01*
X156284568Y-133578572D02*
X156284568Y-133792858D01*
X156284568Y-133792858D02*
X156355997Y-133935715D01*
X156355997Y-133935715D02*
X156498854Y-134007144D01*
X156498854Y-134007144D02*
X157284568Y-134007144D01*
X157213140Y-135292858D02*
X157284568Y-135150001D01*
X157284568Y-135150001D02*
X157284568Y-134864287D01*
X157284568Y-134864287D02*
X157213140Y-134721429D01*
X157213140Y-134721429D02*
X157070282Y-134650001D01*
X157070282Y-134650001D02*
X156498854Y-134650001D01*
X156498854Y-134650001D02*
X156355997Y-134721429D01*
X156355997Y-134721429D02*
X156284568Y-134864287D01*
X156284568Y-134864287D02*
X156284568Y-135150001D01*
X156284568Y-135150001D02*
X156355997Y-135292858D01*
X156355997Y-135292858D02*
X156498854Y-135364287D01*
X156498854Y-135364287D02*
X156641711Y-135364287D01*
X156641711Y-135364287D02*
X156784568Y-134650001D01*
X157213140Y-136650001D02*
X157284568Y-136507143D01*
X157284568Y-136507143D02*
X157284568Y-136221429D01*
X157284568Y-136221429D02*
X157213140Y-136078572D01*
X157213140Y-136078572D02*
X157141711Y-136007143D01*
X157141711Y-136007143D02*
X156998854Y-135935715D01*
X156998854Y-135935715D02*
X156570282Y-135935715D01*
X156570282Y-135935715D02*
X156427425Y-136007143D01*
X156427425Y-136007143D02*
X156355997Y-136078572D01*
X156355997Y-136078572D02*
X156284568Y-136221429D01*
X156284568Y-136221429D02*
X156284568Y-136507143D01*
X156284568Y-136507143D02*
X156355997Y-136650001D01*
X156284568Y-137078572D02*
X156284568Y-137650000D01*
X155784568Y-137292857D02*
X157070282Y-137292857D01*
X157070282Y-137292857D02*
X157213140Y-137364286D01*
X157213140Y-137364286D02*
X157284568Y-137507143D01*
X157284568Y-137507143D02*
X157284568Y-137650000D01*
X157284568Y-138364286D02*
X157213140Y-138221429D01*
X157213140Y-138221429D02*
X157141711Y-138150000D01*
X157141711Y-138150000D02*
X156998854Y-138078572D01*
X156998854Y-138078572D02*
X156570282Y-138078572D01*
X156570282Y-138078572D02*
X156427425Y-138150000D01*
X156427425Y-138150000D02*
X156355997Y-138221429D01*
X156355997Y-138221429D02*
X156284568Y-138364286D01*
X156284568Y-138364286D02*
X156284568Y-138578572D01*
X156284568Y-138578572D02*
X156355997Y-138721429D01*
X156355997Y-138721429D02*
X156427425Y-138792858D01*
X156427425Y-138792858D02*
X156570282Y-138864286D01*
X156570282Y-138864286D02*
X156998854Y-138864286D01*
X156998854Y-138864286D02*
X157141711Y-138792858D01*
X157141711Y-138792858D02*
X157213140Y-138721429D01*
X157213140Y-138721429D02*
X157284568Y-138578572D01*
X157284568Y-138578572D02*
X157284568Y-138364286D01*
X157284568Y-139507143D02*
X156284568Y-139507143D01*
X156570282Y-139507143D02*
X156427425Y-139578572D01*
X156427425Y-139578572D02*
X156355997Y-139650001D01*
X156355997Y-139650001D02*
X156284568Y-139792858D01*
X156284568Y-139792858D02*
X156284568Y-139935715D01*
D13*
X126097880Y-75512530D02*
X124497880Y-75512530D01*
X124497880Y-75512530D02*
X124497880Y-75893482D01*
X124497880Y-75893482D02*
X124574070Y-76122054D01*
X124574070Y-76122054D02*
X124726451Y-76274435D01*
X124726451Y-76274435D02*
X124878832Y-76350625D01*
X124878832Y-76350625D02*
X125183594Y-76426816D01*
X125183594Y-76426816D02*
X125412166Y-76426816D01*
X125412166Y-76426816D02*
X125716928Y-76350625D01*
X125716928Y-76350625D02*
X125869309Y-76274435D01*
X125869309Y-76274435D02*
X126021690Y-76122054D01*
X126021690Y-76122054D02*
X126097880Y-75893482D01*
X126097880Y-75893482D02*
X126097880Y-75512530D01*
X126021690Y-77722054D02*
X126097880Y-77569673D01*
X126097880Y-77569673D02*
X126097880Y-77264911D01*
X126097880Y-77264911D02*
X126021690Y-77112530D01*
X126021690Y-77112530D02*
X125869309Y-77036339D01*
X125869309Y-77036339D02*
X125259785Y-77036339D01*
X125259785Y-77036339D02*
X125107404Y-77112530D01*
X125107404Y-77112530D02*
X125031213Y-77264911D01*
X125031213Y-77264911D02*
X125031213Y-77569673D01*
X125031213Y-77569673D02*
X125107404Y-77722054D01*
X125107404Y-77722054D02*
X125259785Y-77798244D01*
X125259785Y-77798244D02*
X125412166Y-77798244D01*
X125412166Y-77798244D02*
X125564547Y-77036339D01*
X126021690Y-78407768D02*
X126097880Y-78560149D01*
X126097880Y-78560149D02*
X126097880Y-78864911D01*
X126097880Y-78864911D02*
X126021690Y-79017292D01*
X126021690Y-79017292D02*
X125869309Y-79093483D01*
X125869309Y-79093483D02*
X125793118Y-79093483D01*
X125793118Y-79093483D02*
X125640737Y-79017292D01*
X125640737Y-79017292D02*
X125564547Y-78864911D01*
X125564547Y-78864911D02*
X125564547Y-78636340D01*
X125564547Y-78636340D02*
X125488356Y-78483959D01*
X125488356Y-78483959D02*
X125335975Y-78407768D01*
X125335975Y-78407768D02*
X125259785Y-78407768D01*
X125259785Y-78407768D02*
X125107404Y-78483959D01*
X125107404Y-78483959D02*
X125031213Y-78636340D01*
X125031213Y-78636340D02*
X125031213Y-78864911D01*
X125031213Y-78864911D02*
X125107404Y-79017292D01*
X126097880Y-79779197D02*
X125031213Y-79779197D01*
X124497880Y-79779197D02*
X124574070Y-79703006D01*
X124574070Y-79703006D02*
X124650261Y-79779197D01*
X124650261Y-79779197D02*
X124574070Y-79855387D01*
X124574070Y-79855387D02*
X124497880Y-79779197D01*
X124497880Y-79779197D02*
X124650261Y-79779197D01*
X125031213Y-81226816D02*
X126326451Y-81226816D01*
X126326451Y-81226816D02*
X126478832Y-81150626D01*
X126478832Y-81150626D02*
X126555023Y-81074435D01*
X126555023Y-81074435D02*
X126631213Y-80922054D01*
X126631213Y-80922054D02*
X126631213Y-80693483D01*
X126631213Y-80693483D02*
X126555023Y-80541102D01*
X126021690Y-81226816D02*
X126097880Y-81074435D01*
X126097880Y-81074435D02*
X126097880Y-80769673D01*
X126097880Y-80769673D02*
X126021690Y-80617292D01*
X126021690Y-80617292D02*
X125945499Y-80541102D01*
X125945499Y-80541102D02*
X125793118Y-80464911D01*
X125793118Y-80464911D02*
X125335975Y-80464911D01*
X125335975Y-80464911D02*
X125183594Y-80541102D01*
X125183594Y-80541102D02*
X125107404Y-80617292D01*
X125107404Y-80617292D02*
X125031213Y-80769673D01*
X125031213Y-80769673D02*
X125031213Y-81074435D01*
X125031213Y-81074435D02*
X125107404Y-81226816D01*
X125031213Y-81988721D02*
X126097880Y-81988721D01*
X125183594Y-81988721D02*
X125107404Y-82064911D01*
X125107404Y-82064911D02*
X125031213Y-82217292D01*
X125031213Y-82217292D02*
X125031213Y-82445864D01*
X125031213Y-82445864D02*
X125107404Y-82598245D01*
X125107404Y-82598245D02*
X125259785Y-82674435D01*
X125259785Y-82674435D02*
X126097880Y-82674435D01*
X126021690Y-84045864D02*
X126097880Y-83893483D01*
X126097880Y-83893483D02*
X126097880Y-83588721D01*
X126097880Y-83588721D02*
X126021690Y-83436340D01*
X126021690Y-83436340D02*
X125869309Y-83360149D01*
X125869309Y-83360149D02*
X125259785Y-83360149D01*
X125259785Y-83360149D02*
X125107404Y-83436340D01*
X125107404Y-83436340D02*
X125031213Y-83588721D01*
X125031213Y-83588721D02*
X125031213Y-83893483D01*
X125031213Y-83893483D02*
X125107404Y-84045864D01*
X125107404Y-84045864D02*
X125259785Y-84122054D01*
X125259785Y-84122054D02*
X125412166Y-84122054D01*
X125412166Y-84122054D02*
X125564547Y-83360149D01*
X126097880Y-85493483D02*
X124497880Y-85493483D01*
X126021690Y-85493483D02*
X126097880Y-85341102D01*
X126097880Y-85341102D02*
X126097880Y-85036340D01*
X126097880Y-85036340D02*
X126021690Y-84883959D01*
X126021690Y-84883959D02*
X125945499Y-84807769D01*
X125945499Y-84807769D02*
X125793118Y-84731578D01*
X125793118Y-84731578D02*
X125335975Y-84731578D01*
X125335975Y-84731578D02*
X125183594Y-84807769D01*
X125183594Y-84807769D02*
X125107404Y-84883959D01*
X125107404Y-84883959D02*
X125031213Y-85036340D01*
X125031213Y-85036340D02*
X125031213Y-85341102D01*
X125031213Y-85341102D02*
X125107404Y-85493483D01*
X126097880Y-87474436D02*
X124497880Y-87474436D01*
X125107404Y-87474436D02*
X125031213Y-87626817D01*
X125031213Y-87626817D02*
X125031213Y-87931579D01*
X125031213Y-87931579D02*
X125107404Y-88083960D01*
X125107404Y-88083960D02*
X125183594Y-88160150D01*
X125183594Y-88160150D02*
X125335975Y-88236341D01*
X125335975Y-88236341D02*
X125793118Y-88236341D01*
X125793118Y-88236341D02*
X125945499Y-88160150D01*
X125945499Y-88160150D02*
X126021690Y-88083960D01*
X126021690Y-88083960D02*
X126097880Y-87931579D01*
X126097880Y-87931579D02*
X126097880Y-87626817D01*
X126097880Y-87626817D02*
X126021690Y-87474436D01*
X125031213Y-88769674D02*
X126097880Y-89150626D01*
X125031213Y-89531579D02*
X126097880Y-89150626D01*
X126097880Y-89150626D02*
X126478832Y-88998245D01*
X126478832Y-88998245D02*
X126555023Y-88922055D01*
X126555023Y-88922055D02*
X126631213Y-88769674D01*
X124497880Y-91131579D02*
X124497880Y-92045865D01*
X126097880Y-91588722D02*
X124497880Y-91588722D01*
X126097880Y-92579199D02*
X125031213Y-92579199D01*
X124497880Y-92579199D02*
X124574070Y-92503008D01*
X124574070Y-92503008D02*
X124650261Y-92579199D01*
X124650261Y-92579199D02*
X124574070Y-92655389D01*
X124574070Y-92655389D02*
X124497880Y-92579199D01*
X124497880Y-92579199D02*
X124650261Y-92579199D01*
X125031213Y-93341104D02*
X126097880Y-93341104D01*
X125183594Y-93341104D02*
X125107404Y-93417294D01*
X125107404Y-93417294D02*
X125031213Y-93569675D01*
X125031213Y-93569675D02*
X125031213Y-93798247D01*
X125031213Y-93798247D02*
X125107404Y-93950628D01*
X125107404Y-93950628D02*
X125259785Y-94026818D01*
X125259785Y-94026818D02*
X126097880Y-94026818D01*
X125488356Y-94788723D02*
X125488356Y-96007771D01*
X125259785Y-97303008D02*
X125259785Y-96769675D01*
X126097880Y-96769675D02*
X124497880Y-96769675D01*
X124497880Y-96769675D02*
X124497880Y-97531580D01*
X126097880Y-98369675D02*
X126021690Y-98217294D01*
X126021690Y-98217294D02*
X125945499Y-98141104D01*
X125945499Y-98141104D02*
X125793118Y-98064913D01*
X125793118Y-98064913D02*
X125335975Y-98064913D01*
X125335975Y-98064913D02*
X125183594Y-98141104D01*
X125183594Y-98141104D02*
X125107404Y-98217294D01*
X125107404Y-98217294D02*
X125031213Y-98369675D01*
X125031213Y-98369675D02*
X125031213Y-98598247D01*
X125031213Y-98598247D02*
X125107404Y-98750628D01*
X125107404Y-98750628D02*
X125183594Y-98826818D01*
X125183594Y-98826818D02*
X125335975Y-98903009D01*
X125335975Y-98903009D02*
X125793118Y-98903009D01*
X125793118Y-98903009D02*
X125945499Y-98826818D01*
X125945499Y-98826818D02*
X126021690Y-98750628D01*
X126021690Y-98750628D02*
X126097880Y-98598247D01*
X126097880Y-98598247D02*
X126097880Y-98369675D01*
X126097880Y-99588723D02*
X125031213Y-99588723D01*
X124497880Y-99588723D02*
X124574070Y-99512532D01*
X124574070Y-99512532D02*
X124650261Y-99588723D01*
X124650261Y-99588723D02*
X124574070Y-99664913D01*
X124574070Y-99664913D02*
X124497880Y-99588723D01*
X124497880Y-99588723D02*
X124650261Y-99588723D01*
X126097880Y-100579199D02*
X126021690Y-100426818D01*
X126021690Y-100426818D02*
X125869309Y-100350628D01*
X125869309Y-100350628D02*
X124497880Y-100350628D01*
X125488356Y-101188723D02*
X125488356Y-102407771D01*
X126097880Y-103169675D02*
X124497880Y-103169675D01*
X125259785Y-103169675D02*
X125259785Y-104083961D01*
X126097880Y-104083961D02*
X124497880Y-104083961D01*
X126097880Y-105531579D02*
X125259785Y-105531579D01*
X125259785Y-105531579D02*
X125107404Y-105455389D01*
X125107404Y-105455389D02*
X125031213Y-105303008D01*
X125031213Y-105303008D02*
X125031213Y-104998246D01*
X125031213Y-104998246D02*
X125107404Y-104845865D01*
X126021690Y-105531579D02*
X126097880Y-105379198D01*
X126097880Y-105379198D02*
X126097880Y-104998246D01*
X126097880Y-104998246D02*
X126021690Y-104845865D01*
X126021690Y-104845865D02*
X125869309Y-104769674D01*
X125869309Y-104769674D02*
X125716928Y-104769674D01*
X125716928Y-104769674D02*
X125564547Y-104845865D01*
X125564547Y-104845865D02*
X125488356Y-104998246D01*
X125488356Y-104998246D02*
X125488356Y-105379198D01*
X125488356Y-105379198D02*
X125412166Y-105531579D01*
X125031213Y-106064912D02*
X125031213Y-106674436D01*
X124497880Y-106293484D02*
X125869309Y-106293484D01*
X125869309Y-106293484D02*
X126021690Y-106369674D01*
X126021690Y-106369674D02*
X126097880Y-106522055D01*
X126097880Y-106522055D02*
X126097880Y-106674436D01*
X127226171Y-75436339D02*
X127149980Y-75512530D01*
X127149980Y-75512530D02*
X127073790Y-75664911D01*
X127073790Y-75664911D02*
X127073790Y-76045863D01*
X127073790Y-76045863D02*
X127149980Y-76198244D01*
X127149980Y-76198244D02*
X127226171Y-76274435D01*
X127226171Y-76274435D02*
X127378552Y-76350625D01*
X127378552Y-76350625D02*
X127530933Y-76350625D01*
X127530933Y-76350625D02*
X127759504Y-76274435D01*
X127759504Y-76274435D02*
X128673790Y-75360149D01*
X128673790Y-75360149D02*
X128673790Y-76350625D01*
X127073790Y-77341102D02*
X127073790Y-77493483D01*
X127073790Y-77493483D02*
X127149980Y-77645864D01*
X127149980Y-77645864D02*
X127226171Y-77722054D01*
X127226171Y-77722054D02*
X127378552Y-77798245D01*
X127378552Y-77798245D02*
X127683314Y-77874435D01*
X127683314Y-77874435D02*
X128064266Y-77874435D01*
X128064266Y-77874435D02*
X128369028Y-77798245D01*
X128369028Y-77798245D02*
X128521409Y-77722054D01*
X128521409Y-77722054D02*
X128597600Y-77645864D01*
X128597600Y-77645864D02*
X128673790Y-77493483D01*
X128673790Y-77493483D02*
X128673790Y-77341102D01*
X128673790Y-77341102D02*
X128597600Y-77188721D01*
X128597600Y-77188721D02*
X128521409Y-77112530D01*
X128521409Y-77112530D02*
X128369028Y-77036340D01*
X128369028Y-77036340D02*
X128064266Y-76960149D01*
X128064266Y-76960149D02*
X127683314Y-76960149D01*
X127683314Y-76960149D02*
X127378552Y-77036340D01*
X127378552Y-77036340D02*
X127226171Y-77112530D01*
X127226171Y-77112530D02*
X127149980Y-77188721D01*
X127149980Y-77188721D02*
X127073790Y-77341102D01*
X127226171Y-78483959D02*
X127149980Y-78560150D01*
X127149980Y-78560150D02*
X127073790Y-78712531D01*
X127073790Y-78712531D02*
X127073790Y-79093483D01*
X127073790Y-79093483D02*
X127149980Y-79245864D01*
X127149980Y-79245864D02*
X127226171Y-79322055D01*
X127226171Y-79322055D02*
X127378552Y-79398245D01*
X127378552Y-79398245D02*
X127530933Y-79398245D01*
X127530933Y-79398245D02*
X127759504Y-79322055D01*
X127759504Y-79322055D02*
X128673790Y-78407769D01*
X128673790Y-78407769D02*
X128673790Y-79398245D01*
X127607123Y-80769674D02*
X128673790Y-80769674D01*
X126997600Y-80388722D02*
X128140457Y-80007769D01*
X128140457Y-80007769D02*
X128140457Y-80998246D01*
D10*
X129872419Y-75458646D02*
X130872419Y-75696741D01*
X130872419Y-75696741D02*
X130158133Y-75887217D01*
X130158133Y-75887217D02*
X130872419Y-76077693D01*
X130872419Y-76077693D02*
X129872419Y-76315789D01*
X130872419Y-77125312D02*
X130348609Y-77125312D01*
X130348609Y-77125312D02*
X130253371Y-77077693D01*
X130253371Y-77077693D02*
X130205752Y-76982455D01*
X130205752Y-76982455D02*
X130205752Y-76791979D01*
X130205752Y-76791979D02*
X130253371Y-76696741D01*
X130824800Y-77125312D02*
X130872419Y-77030074D01*
X130872419Y-77030074D02*
X130872419Y-76791979D01*
X130872419Y-76791979D02*
X130824800Y-76696741D01*
X130824800Y-76696741D02*
X130729561Y-76649122D01*
X130729561Y-76649122D02*
X130634323Y-76649122D01*
X130634323Y-76649122D02*
X130539085Y-76696741D01*
X130539085Y-76696741D02*
X130491466Y-76791979D01*
X130491466Y-76791979D02*
X130491466Y-77030074D01*
X130491466Y-77030074D02*
X130443847Y-77125312D01*
X130205752Y-77506265D02*
X130872419Y-77744360D01*
X130205752Y-77982455D02*
X130872419Y-77744360D01*
X130872419Y-77744360D02*
X131110514Y-77649122D01*
X131110514Y-77649122D02*
X131158133Y-77601503D01*
X131158133Y-77601503D02*
X131205752Y-77506265D01*
X129872419Y-78268170D02*
X130872419Y-78506265D01*
X130872419Y-78506265D02*
X130158133Y-78696741D01*
X130158133Y-78696741D02*
X130872419Y-78887217D01*
X130872419Y-78887217D02*
X129872419Y-79125313D01*
X130872419Y-79934836D02*
X130348609Y-79934836D01*
X130348609Y-79934836D02*
X130253371Y-79887217D01*
X130253371Y-79887217D02*
X130205752Y-79791979D01*
X130205752Y-79791979D02*
X130205752Y-79601503D01*
X130205752Y-79601503D02*
X130253371Y-79506265D01*
X130824800Y-79934836D02*
X130872419Y-79839598D01*
X130872419Y-79839598D02*
X130872419Y-79601503D01*
X130872419Y-79601503D02*
X130824800Y-79506265D01*
X130824800Y-79506265D02*
X130729561Y-79458646D01*
X130729561Y-79458646D02*
X130634323Y-79458646D01*
X130634323Y-79458646D02*
X130539085Y-79506265D01*
X130539085Y-79506265D02*
X130491466Y-79601503D01*
X130491466Y-79601503D02*
X130491466Y-79839598D01*
X130491466Y-79839598D02*
X130443847Y-79934836D01*
X130205752Y-80315789D02*
X130872419Y-80553884D01*
X130205752Y-80791979D02*
X130872419Y-80553884D01*
X130872419Y-80553884D02*
X131110514Y-80458646D01*
X131110514Y-80458646D02*
X131158133Y-80411027D01*
X131158133Y-80411027D02*
X131205752Y-80315789D01*
X129872419Y-81077694D02*
X130872419Y-81315789D01*
X130872419Y-81315789D02*
X130158133Y-81506265D01*
X130158133Y-81506265D02*
X130872419Y-81696741D01*
X130872419Y-81696741D02*
X129872419Y-81934837D01*
X130872419Y-82744360D02*
X130348609Y-82744360D01*
X130348609Y-82744360D02*
X130253371Y-82696741D01*
X130253371Y-82696741D02*
X130205752Y-82601503D01*
X130205752Y-82601503D02*
X130205752Y-82411027D01*
X130205752Y-82411027D02*
X130253371Y-82315789D01*
X130824800Y-82744360D02*
X130872419Y-82649122D01*
X130872419Y-82649122D02*
X130872419Y-82411027D01*
X130872419Y-82411027D02*
X130824800Y-82315789D01*
X130824800Y-82315789D02*
X130729561Y-82268170D01*
X130729561Y-82268170D02*
X130634323Y-82268170D01*
X130634323Y-82268170D02*
X130539085Y-82315789D01*
X130539085Y-82315789D02*
X130491466Y-82411027D01*
X130491466Y-82411027D02*
X130491466Y-82649122D01*
X130491466Y-82649122D02*
X130443847Y-82744360D01*
X130205752Y-83125313D02*
X130872419Y-83363408D01*
X130205752Y-83601503D02*
X130872419Y-83363408D01*
X130872419Y-83363408D02*
X131110514Y-83268170D01*
X131110514Y-83268170D02*
X131158133Y-83220551D01*
X131158133Y-83220551D02*
X131205752Y-83125313D01*
D14*
X172454819Y-76188094D02*
X172454819Y-76378570D01*
X172454819Y-76378570D02*
X172502438Y-76473808D01*
X172502438Y-76473808D02*
X172597676Y-76569046D01*
X172597676Y-76569046D02*
X172788152Y-76616665D01*
X172788152Y-76616665D02*
X173121485Y-76616665D01*
X173121485Y-76616665D02*
X173311961Y-76569046D01*
X173311961Y-76569046D02*
X173407200Y-76473808D01*
X173407200Y-76473808D02*
X173454819Y-76378570D01*
X173454819Y-76378570D02*
X173454819Y-76188094D01*
X173454819Y-76188094D02*
X173407200Y-76092856D01*
X173407200Y-76092856D02*
X173311961Y-75997618D01*
X173311961Y-75997618D02*
X173121485Y-75949999D01*
X173121485Y-75949999D02*
X172788152Y-75949999D01*
X172788152Y-75949999D02*
X172597676Y-75997618D01*
X172597676Y-75997618D02*
X172502438Y-76092856D01*
X172502438Y-76092856D02*
X172454819Y-76188094D01*
X172788152Y-77473808D02*
X173454819Y-77473808D01*
X172788152Y-77045237D02*
X173311961Y-77045237D01*
X173311961Y-77045237D02*
X173407200Y-77092856D01*
X173407200Y-77092856D02*
X173454819Y-77188094D01*
X173454819Y-77188094D02*
X173454819Y-77330951D01*
X173454819Y-77330951D02*
X173407200Y-77426189D01*
X173407200Y-77426189D02*
X173359580Y-77473808D01*
X172788152Y-77807142D02*
X172788152Y-78188094D01*
X172454819Y-77949999D02*
X173311961Y-77949999D01*
X173311961Y-77949999D02*
X173407200Y-77997618D01*
X173407200Y-77997618D02*
X173454819Y-78092856D01*
X173454819Y-78092856D02*
X173454819Y-78188094D01*
X172931009Y-79616666D02*
X172978628Y-79759523D01*
X172978628Y-79759523D02*
X173026247Y-79807142D01*
X173026247Y-79807142D02*
X173121485Y-79854761D01*
X173121485Y-79854761D02*
X173264342Y-79854761D01*
X173264342Y-79854761D02*
X173359580Y-79807142D01*
X173359580Y-79807142D02*
X173407200Y-79759523D01*
X173407200Y-79759523D02*
X173454819Y-79664285D01*
X173454819Y-79664285D02*
X173454819Y-79283333D01*
X173454819Y-79283333D02*
X172454819Y-79283333D01*
X172454819Y-79283333D02*
X172454819Y-79616666D01*
X172454819Y-79616666D02*
X172502438Y-79711904D01*
X172502438Y-79711904D02*
X172550057Y-79759523D01*
X172550057Y-79759523D02*
X172645295Y-79807142D01*
X172645295Y-79807142D02*
X172740533Y-79807142D01*
X172740533Y-79807142D02*
X172835771Y-79759523D01*
X172835771Y-79759523D02*
X172883390Y-79711904D01*
X172883390Y-79711904D02*
X172931009Y-79616666D01*
X172931009Y-79616666D02*
X172931009Y-79283333D01*
X173454819Y-80426190D02*
X173407200Y-80330952D01*
X173407200Y-80330952D02*
X173311961Y-80283333D01*
X173311961Y-80283333D02*
X172454819Y-80283333D01*
X173454819Y-81235714D02*
X172931009Y-81235714D01*
X172931009Y-81235714D02*
X172835771Y-81188095D01*
X172835771Y-81188095D02*
X172788152Y-81092857D01*
X172788152Y-81092857D02*
X172788152Y-80902381D01*
X172788152Y-80902381D02*
X172835771Y-80807143D01*
X173407200Y-81235714D02*
X173454819Y-81140476D01*
X173454819Y-81140476D02*
X173454819Y-80902381D01*
X173454819Y-80902381D02*
X173407200Y-80807143D01*
X173407200Y-80807143D02*
X173311961Y-80759524D01*
X173311961Y-80759524D02*
X173216723Y-80759524D01*
X173216723Y-80759524D02*
X173121485Y-80807143D01*
X173121485Y-80807143D02*
X173073866Y-80902381D01*
X173073866Y-80902381D02*
X173073866Y-81140476D01*
X173073866Y-81140476D02*
X173026247Y-81235714D01*
X173407200Y-82140476D02*
X173454819Y-82045238D01*
X173454819Y-82045238D02*
X173454819Y-81854762D01*
X173454819Y-81854762D02*
X173407200Y-81759524D01*
X173407200Y-81759524D02*
X173359580Y-81711905D01*
X173359580Y-81711905D02*
X173264342Y-81664286D01*
X173264342Y-81664286D02*
X172978628Y-81664286D01*
X172978628Y-81664286D02*
X172883390Y-81711905D01*
X172883390Y-81711905D02*
X172835771Y-81759524D01*
X172835771Y-81759524D02*
X172788152Y-81854762D01*
X172788152Y-81854762D02*
X172788152Y-82045238D01*
X172788152Y-82045238D02*
X172835771Y-82140476D01*
X173454819Y-82569048D02*
X172454819Y-82569048D01*
X173073866Y-82664286D02*
X173454819Y-82950000D01*
X172788152Y-82950000D02*
X173169104Y-82569048D01*
X148694286Y-110684580D02*
X148741905Y-110732200D01*
X148741905Y-110732200D02*
X148884762Y-110779819D01*
X148884762Y-110779819D02*
X148980000Y-110779819D01*
X148980000Y-110779819D02*
X149122857Y-110732200D01*
X149122857Y-110732200D02*
X149218095Y-110636961D01*
X149218095Y-110636961D02*
X149265714Y-110541723D01*
X149265714Y-110541723D02*
X149313333Y-110351247D01*
X149313333Y-110351247D02*
X149313333Y-110208390D01*
X149313333Y-110208390D02*
X149265714Y-110017914D01*
X149265714Y-110017914D02*
X149218095Y-109922676D01*
X149218095Y-109922676D02*
X149122857Y-109827438D01*
X149122857Y-109827438D02*
X148980000Y-109779819D01*
X148980000Y-109779819D02*
X148884762Y-109779819D01*
X148884762Y-109779819D02*
X148741905Y-109827438D01*
X148741905Y-109827438D02*
X148694286Y-109875057D01*
X148122857Y-110779819D02*
X148218095Y-110732200D01*
X148218095Y-110732200D02*
X148265714Y-110684580D01*
X148265714Y-110684580D02*
X148313333Y-110589342D01*
X148313333Y-110589342D02*
X148313333Y-110303628D01*
X148313333Y-110303628D02*
X148265714Y-110208390D01*
X148265714Y-110208390D02*
X148218095Y-110160771D01*
X148218095Y-110160771D02*
X148122857Y-110113152D01*
X148122857Y-110113152D02*
X147980000Y-110113152D01*
X147980000Y-110113152D02*
X147884762Y-110160771D01*
X147884762Y-110160771D02*
X147837143Y-110208390D01*
X147837143Y-110208390D02*
X147789524Y-110303628D01*
X147789524Y-110303628D02*
X147789524Y-110589342D01*
X147789524Y-110589342D02*
X147837143Y-110684580D01*
X147837143Y-110684580D02*
X147884762Y-110732200D01*
X147884762Y-110732200D02*
X147980000Y-110779819D01*
X147980000Y-110779819D02*
X148122857Y-110779819D01*
X147360952Y-110779819D02*
X147360952Y-110113152D01*
X147360952Y-110208390D02*
X147313333Y-110160771D01*
X147313333Y-110160771D02*
X147218095Y-110113152D01*
X147218095Y-110113152D02*
X147075238Y-110113152D01*
X147075238Y-110113152D02*
X146980000Y-110160771D01*
X146980000Y-110160771D02*
X146932381Y-110256009D01*
X146932381Y-110256009D02*
X146932381Y-110779819D01*
X146932381Y-110256009D02*
X146884762Y-110160771D01*
X146884762Y-110160771D02*
X146789524Y-110113152D01*
X146789524Y-110113152D02*
X146646667Y-110113152D01*
X146646667Y-110113152D02*
X146551428Y-110160771D01*
X146551428Y-110160771D02*
X146503809Y-110256009D01*
X146503809Y-110256009D02*
X146503809Y-110779819D01*
X146027619Y-110779819D02*
X146027619Y-110113152D01*
X146027619Y-110208390D02*
X145980000Y-110160771D01*
X145980000Y-110160771D02*
X145884762Y-110113152D01*
X145884762Y-110113152D02*
X145741905Y-110113152D01*
X145741905Y-110113152D02*
X145646667Y-110160771D01*
X145646667Y-110160771D02*
X145599048Y-110256009D01*
X145599048Y-110256009D02*
X145599048Y-110779819D01*
X145599048Y-110256009D02*
X145551429Y-110160771D01*
X145551429Y-110160771D02*
X145456191Y-110113152D01*
X145456191Y-110113152D02*
X145313334Y-110113152D01*
X145313334Y-110113152D02*
X145218095Y-110160771D01*
X145218095Y-110160771D02*
X145170476Y-110256009D01*
X145170476Y-110256009D02*
X145170476Y-110779819D01*
X144551429Y-110779819D02*
X144646667Y-110732200D01*
X144646667Y-110732200D02*
X144694286Y-110684580D01*
X144694286Y-110684580D02*
X144741905Y-110589342D01*
X144741905Y-110589342D02*
X144741905Y-110303628D01*
X144741905Y-110303628D02*
X144694286Y-110208390D01*
X144694286Y-110208390D02*
X144646667Y-110160771D01*
X144646667Y-110160771D02*
X144551429Y-110113152D01*
X144551429Y-110113152D02*
X144408572Y-110113152D01*
X144408572Y-110113152D02*
X144313334Y-110160771D01*
X144313334Y-110160771D02*
X144265715Y-110208390D01*
X144265715Y-110208390D02*
X144218096Y-110303628D01*
X144218096Y-110303628D02*
X144218096Y-110589342D01*
X144218096Y-110589342D02*
X144265715Y-110684580D01*
X144265715Y-110684580D02*
X144313334Y-110732200D01*
X144313334Y-110732200D02*
X144408572Y-110779819D01*
X144408572Y-110779819D02*
X144551429Y-110779819D01*
X143789524Y-110113152D02*
X143789524Y-110779819D01*
X143789524Y-110208390D02*
X143741905Y-110160771D01*
X143741905Y-110160771D02*
X143646667Y-110113152D01*
X143646667Y-110113152D02*
X143503810Y-110113152D01*
X143503810Y-110113152D02*
X143408572Y-110160771D01*
X143408572Y-110160771D02*
X143360953Y-110256009D01*
X143360953Y-110256009D02*
X143360953Y-110779819D01*
X142170476Y-110494104D02*
X141694286Y-110494104D01*
X142265714Y-110779819D02*
X141932381Y-109779819D01*
X141932381Y-109779819D02*
X141599048Y-110779819D01*
X141265714Y-110113152D02*
X141265714Y-110779819D01*
X141265714Y-110208390D02*
X141218095Y-110160771D01*
X141218095Y-110160771D02*
X141122857Y-110113152D01*
X141122857Y-110113152D02*
X140980000Y-110113152D01*
X140980000Y-110113152D02*
X140884762Y-110160771D01*
X140884762Y-110160771D02*
X140837143Y-110256009D01*
X140837143Y-110256009D02*
X140837143Y-110779819D01*
X140218095Y-110779819D02*
X140313333Y-110732200D01*
X140313333Y-110732200D02*
X140360952Y-110684580D01*
X140360952Y-110684580D02*
X140408571Y-110589342D01*
X140408571Y-110589342D02*
X140408571Y-110303628D01*
X140408571Y-110303628D02*
X140360952Y-110208390D01*
X140360952Y-110208390D02*
X140313333Y-110160771D01*
X140313333Y-110160771D02*
X140218095Y-110113152D01*
X140218095Y-110113152D02*
X140075238Y-110113152D01*
X140075238Y-110113152D02*
X139980000Y-110160771D01*
X139980000Y-110160771D02*
X139932381Y-110208390D01*
X139932381Y-110208390D02*
X139884762Y-110303628D01*
X139884762Y-110303628D02*
X139884762Y-110589342D01*
X139884762Y-110589342D02*
X139932381Y-110684580D01*
X139932381Y-110684580D02*
X139980000Y-110732200D01*
X139980000Y-110732200D02*
X140075238Y-110779819D01*
X140075238Y-110779819D02*
X140218095Y-110779819D01*
X139027619Y-110779819D02*
X139027619Y-109779819D01*
X139027619Y-110732200D02*
X139122857Y-110779819D01*
X139122857Y-110779819D02*
X139313333Y-110779819D01*
X139313333Y-110779819D02*
X139408571Y-110732200D01*
X139408571Y-110732200D02*
X139456190Y-110684580D01*
X139456190Y-110684580D02*
X139503809Y-110589342D01*
X139503809Y-110589342D02*
X139503809Y-110303628D01*
X139503809Y-110303628D02*
X139456190Y-110208390D01*
X139456190Y-110208390D02*
X139408571Y-110160771D01*
X139408571Y-110160771D02*
X139313333Y-110113152D01*
X139313333Y-110113152D02*
X139122857Y-110113152D01*
X139122857Y-110113152D02*
X139027619Y-110160771D01*
X138170476Y-110732200D02*
X138265714Y-110779819D01*
X138265714Y-110779819D02*
X138456190Y-110779819D01*
X138456190Y-110779819D02*
X138551428Y-110732200D01*
X138551428Y-110732200D02*
X138599047Y-110636961D01*
X138599047Y-110636961D02*
X138599047Y-110256009D01*
X138599047Y-110256009D02*
X138551428Y-110160771D01*
X138551428Y-110160771D02*
X138456190Y-110113152D01*
X138456190Y-110113152D02*
X138265714Y-110113152D01*
X138265714Y-110113152D02*
X138170476Y-110160771D01*
X138170476Y-110160771D02*
X138122857Y-110256009D01*
X138122857Y-110256009D02*
X138122857Y-110351247D01*
X138122857Y-110351247D02*
X138599047Y-110446485D01*
X136646666Y-111160771D02*
X136694285Y-111113152D01*
X136694285Y-111113152D02*
X136789523Y-110970295D01*
X136789523Y-110970295D02*
X136837142Y-110875057D01*
X136837142Y-110875057D02*
X136884761Y-110732200D01*
X136884761Y-110732200D02*
X136932380Y-110494104D01*
X136932380Y-110494104D02*
X136932380Y-110303628D01*
X136932380Y-110303628D02*
X136884761Y-110065533D01*
X136884761Y-110065533D02*
X136837142Y-109922676D01*
X136837142Y-109922676D02*
X136789523Y-109827438D01*
X136789523Y-109827438D02*
X136694285Y-109684580D01*
X136694285Y-109684580D02*
X136646666Y-109636961D01*
X136265713Y-110779819D02*
X136265713Y-109779819D01*
X135789523Y-110113152D02*
X135789523Y-110779819D01*
X135789523Y-110208390D02*
X135741904Y-110160771D01*
X135741904Y-110160771D02*
X135646666Y-110113152D01*
X135646666Y-110113152D02*
X135503809Y-110113152D01*
X135503809Y-110113152D02*
X135408571Y-110160771D01*
X135408571Y-110160771D02*
X135360952Y-110256009D01*
X135360952Y-110256009D02*
X135360952Y-110779819D01*
X134979999Y-111160771D02*
X134932380Y-111113152D01*
X134932380Y-111113152D02*
X134837142Y-110970295D01*
X134837142Y-110970295D02*
X134789523Y-110875057D01*
X134789523Y-110875057D02*
X134741904Y-110732200D01*
X134741904Y-110732200D02*
X134694285Y-110494104D01*
X134694285Y-110494104D02*
X134694285Y-110303628D01*
X134694285Y-110303628D02*
X134741904Y-110065533D01*
X134741904Y-110065533D02*
X134789523Y-109922676D01*
X134789523Y-109922676D02*
X134837142Y-109827438D01*
X134837142Y-109827438D02*
X134932380Y-109684580D01*
X134932380Y-109684580D02*
X134979999Y-109636961D01*
X111454819Y-98390476D02*
X110454819Y-98390476D01*
X110788152Y-98866666D02*
X111454819Y-98866666D01*
X110883390Y-98866666D02*
X110835771Y-98914285D01*
X110835771Y-98914285D02*
X110788152Y-99009523D01*
X110788152Y-99009523D02*
X110788152Y-99152380D01*
X110788152Y-99152380D02*
X110835771Y-99247618D01*
X110835771Y-99247618D02*
X110931009Y-99295237D01*
X110931009Y-99295237D02*
X111454819Y-99295237D01*
X110454819Y-100438095D02*
X111454819Y-100676190D01*
X111454819Y-100676190D02*
X110740533Y-100866666D01*
X110740533Y-100866666D02*
X111454819Y-101057142D01*
X111454819Y-101057142D02*
X110454819Y-101295238D01*
X111454819Y-101676190D02*
X110454819Y-101676190D01*
X111454819Y-102104761D02*
X110931009Y-102104761D01*
X110931009Y-102104761D02*
X110835771Y-102057142D01*
X110835771Y-102057142D02*
X110788152Y-101961904D01*
X110788152Y-101961904D02*
X110788152Y-101819047D01*
X110788152Y-101819047D02*
X110835771Y-101723809D01*
X110835771Y-101723809D02*
X110883390Y-101676190D01*
X111454819Y-102580952D02*
X110788152Y-102580952D01*
X110454819Y-102580952D02*
X110502438Y-102533333D01*
X110502438Y-102533333D02*
X110550057Y-102580952D01*
X110550057Y-102580952D02*
X110502438Y-102628571D01*
X110502438Y-102628571D02*
X110454819Y-102580952D01*
X110454819Y-102580952D02*
X110550057Y-102580952D01*
X110788152Y-102914285D02*
X110788152Y-103295237D01*
X110454819Y-103057142D02*
X111311961Y-103057142D01*
X111311961Y-103057142D02*
X111407200Y-103104761D01*
X111407200Y-103104761D02*
X111454819Y-103199999D01*
X111454819Y-103199999D02*
X111454819Y-103295237D01*
X111407200Y-104009523D02*
X111454819Y-103914285D01*
X111454819Y-103914285D02*
X111454819Y-103723809D01*
X111454819Y-103723809D02*
X111407200Y-103628571D01*
X111407200Y-103628571D02*
X111311961Y-103580952D01*
X111311961Y-103580952D02*
X110931009Y-103580952D01*
X110931009Y-103580952D02*
X110835771Y-103628571D01*
X110835771Y-103628571D02*
X110788152Y-103723809D01*
X110788152Y-103723809D02*
X110788152Y-103914285D01*
X110788152Y-103914285D02*
X110835771Y-104009523D01*
X110835771Y-104009523D02*
X110931009Y-104057142D01*
X110931009Y-104057142D02*
X111026247Y-104057142D01*
X111026247Y-104057142D02*
X111121485Y-103580952D01*
X111454819Y-76579047D02*
X110454819Y-76579047D01*
X110788152Y-77055237D02*
X111454819Y-77055237D01*
X110883390Y-77055237D02*
X110835771Y-77102856D01*
X110835771Y-77102856D02*
X110788152Y-77198094D01*
X110788152Y-77198094D02*
X110788152Y-77340951D01*
X110788152Y-77340951D02*
X110835771Y-77436189D01*
X110835771Y-77436189D02*
X110931009Y-77483808D01*
X110931009Y-77483808D02*
X111454819Y-77483808D01*
X110931009Y-79055237D02*
X110978628Y-79198094D01*
X110978628Y-79198094D02*
X111026247Y-79245713D01*
X111026247Y-79245713D02*
X111121485Y-79293332D01*
X111121485Y-79293332D02*
X111264342Y-79293332D01*
X111264342Y-79293332D02*
X111359580Y-79245713D01*
X111359580Y-79245713D02*
X111407200Y-79198094D01*
X111407200Y-79198094D02*
X111454819Y-79102856D01*
X111454819Y-79102856D02*
X111454819Y-78721904D01*
X111454819Y-78721904D02*
X110454819Y-78721904D01*
X110454819Y-78721904D02*
X110454819Y-79055237D01*
X110454819Y-79055237D02*
X110502438Y-79150475D01*
X110502438Y-79150475D02*
X110550057Y-79198094D01*
X110550057Y-79198094D02*
X110645295Y-79245713D01*
X110645295Y-79245713D02*
X110740533Y-79245713D01*
X110740533Y-79245713D02*
X110835771Y-79198094D01*
X110835771Y-79198094D02*
X110883390Y-79150475D01*
X110883390Y-79150475D02*
X110931009Y-79055237D01*
X110931009Y-79055237D02*
X110931009Y-78721904D01*
X111454819Y-79864761D02*
X111407200Y-79769523D01*
X111407200Y-79769523D02*
X111311961Y-79721904D01*
X111311961Y-79721904D02*
X110454819Y-79721904D01*
X111454819Y-80674285D02*
X110931009Y-80674285D01*
X110931009Y-80674285D02*
X110835771Y-80626666D01*
X110835771Y-80626666D02*
X110788152Y-80531428D01*
X110788152Y-80531428D02*
X110788152Y-80340952D01*
X110788152Y-80340952D02*
X110835771Y-80245714D01*
X111407200Y-80674285D02*
X111454819Y-80579047D01*
X111454819Y-80579047D02*
X111454819Y-80340952D01*
X111454819Y-80340952D02*
X111407200Y-80245714D01*
X111407200Y-80245714D02*
X111311961Y-80198095D01*
X111311961Y-80198095D02*
X111216723Y-80198095D01*
X111216723Y-80198095D02*
X111121485Y-80245714D01*
X111121485Y-80245714D02*
X111073866Y-80340952D01*
X111073866Y-80340952D02*
X111073866Y-80579047D01*
X111073866Y-80579047D02*
X111026247Y-80674285D01*
X111407200Y-81579047D02*
X111454819Y-81483809D01*
X111454819Y-81483809D02*
X111454819Y-81293333D01*
X111454819Y-81293333D02*
X111407200Y-81198095D01*
X111407200Y-81198095D02*
X111359580Y-81150476D01*
X111359580Y-81150476D02*
X111264342Y-81102857D01*
X111264342Y-81102857D02*
X110978628Y-81102857D01*
X110978628Y-81102857D02*
X110883390Y-81150476D01*
X110883390Y-81150476D02*
X110835771Y-81198095D01*
X110835771Y-81198095D02*
X110788152Y-81293333D01*
X110788152Y-81293333D02*
X110788152Y-81483809D01*
X110788152Y-81483809D02*
X110835771Y-81579047D01*
X111454819Y-82007619D02*
X110454819Y-82007619D01*
X111073866Y-82102857D02*
X111454819Y-82388571D01*
X110788152Y-82388571D02*
X111169104Y-82007619D01*
X172454819Y-98009523D02*
X172454819Y-98199999D01*
X172454819Y-98199999D02*
X172502438Y-98295237D01*
X172502438Y-98295237D02*
X172597676Y-98390475D01*
X172597676Y-98390475D02*
X172788152Y-98438094D01*
X172788152Y-98438094D02*
X173121485Y-98438094D01*
X173121485Y-98438094D02*
X173311961Y-98390475D01*
X173311961Y-98390475D02*
X173407200Y-98295237D01*
X173407200Y-98295237D02*
X173454819Y-98199999D01*
X173454819Y-98199999D02*
X173454819Y-98009523D01*
X173454819Y-98009523D02*
X173407200Y-97914285D01*
X173407200Y-97914285D02*
X173311961Y-97819047D01*
X173311961Y-97819047D02*
X173121485Y-97771428D01*
X173121485Y-97771428D02*
X172788152Y-97771428D01*
X172788152Y-97771428D02*
X172597676Y-97819047D01*
X172597676Y-97819047D02*
X172502438Y-97914285D01*
X172502438Y-97914285D02*
X172454819Y-98009523D01*
X172788152Y-99295237D02*
X173454819Y-99295237D01*
X172788152Y-98866666D02*
X173311961Y-98866666D01*
X173311961Y-98866666D02*
X173407200Y-98914285D01*
X173407200Y-98914285D02*
X173454819Y-99009523D01*
X173454819Y-99009523D02*
X173454819Y-99152380D01*
X173454819Y-99152380D02*
X173407200Y-99247618D01*
X173407200Y-99247618D02*
X173359580Y-99295237D01*
X172788152Y-99628571D02*
X172788152Y-100009523D01*
X172454819Y-99771428D02*
X173311961Y-99771428D01*
X173311961Y-99771428D02*
X173407200Y-99819047D01*
X173407200Y-99819047D02*
X173454819Y-99914285D01*
X173454819Y-99914285D02*
X173454819Y-100009523D01*
X172454819Y-101009524D02*
X173454819Y-101247619D01*
X173454819Y-101247619D02*
X172740533Y-101438095D01*
X172740533Y-101438095D02*
X173454819Y-101628571D01*
X173454819Y-101628571D02*
X172454819Y-101866667D01*
X173454819Y-102247619D02*
X172454819Y-102247619D01*
X173454819Y-102676190D02*
X172931009Y-102676190D01*
X172931009Y-102676190D02*
X172835771Y-102628571D01*
X172835771Y-102628571D02*
X172788152Y-102533333D01*
X172788152Y-102533333D02*
X172788152Y-102390476D01*
X172788152Y-102390476D02*
X172835771Y-102295238D01*
X172835771Y-102295238D02*
X172883390Y-102247619D01*
X173454819Y-103152381D02*
X172788152Y-103152381D01*
X172454819Y-103152381D02*
X172502438Y-103104762D01*
X172502438Y-103104762D02*
X172550057Y-103152381D01*
X172550057Y-103152381D02*
X172502438Y-103200000D01*
X172502438Y-103200000D02*
X172454819Y-103152381D01*
X172454819Y-103152381D02*
X172550057Y-103152381D01*
X172788152Y-103485714D02*
X172788152Y-103866666D01*
X172454819Y-103628571D02*
X173311961Y-103628571D01*
X173311961Y-103628571D02*
X173407200Y-103676190D01*
X173407200Y-103676190D02*
X173454819Y-103771428D01*
X173454819Y-103771428D02*
X173454819Y-103866666D01*
X173407200Y-104580952D02*
X173454819Y-104485714D01*
X173454819Y-104485714D02*
X173454819Y-104295238D01*
X173454819Y-104295238D02*
X173407200Y-104200000D01*
X173407200Y-104200000D02*
X173311961Y-104152381D01*
X173311961Y-104152381D02*
X172931009Y-104152381D01*
X172931009Y-104152381D02*
X172835771Y-104200000D01*
X172835771Y-104200000D02*
X172788152Y-104295238D01*
X172788152Y-104295238D02*
X172788152Y-104485714D01*
X172788152Y-104485714D02*
X172835771Y-104580952D01*
X172835771Y-104580952D02*
X172931009Y-104628571D01*
X172931009Y-104628571D02*
X173026247Y-104628571D01*
X173026247Y-104628571D02*
X173121485Y-104152381D01*
D15*
%TO.C,J6*%
X168920000Y-69120000D02*
X168920000Y-86960000D01*
X171580000Y-69120000D02*
X168920000Y-69120000D01*
X171580000Y-69120000D02*
X171580000Y-86960000D01*
X171580000Y-86960000D02*
X168920000Y-86960000D01*
X171580000Y-88230000D02*
X171580000Y-89560000D01*
X171580000Y-89560000D02*
X170250000Y-89560000D01*
%TO.C,J5*%
X139380000Y-105695000D02*
X140710000Y-105695000D01*
X139380000Y-107025000D02*
X139380000Y-105695000D01*
X139380000Y-108295000D02*
X141980000Y-108295000D01*
X139380000Y-108355000D02*
X139380000Y-108295000D01*
X139380000Y-108355000D02*
X144580000Y-108355000D01*
X141980000Y-105695000D02*
X144580000Y-105695000D01*
X141980000Y-108295000D02*
X141980000Y-105695000D01*
X144580000Y-108355000D02*
X144580000Y-105695000D01*
%TO.C,J2*%
X112420000Y-91090000D02*
X112420000Y-108930000D01*
X115080000Y-91090000D02*
X112420000Y-91090000D01*
X115080000Y-91090000D02*
X115080000Y-108930000D01*
X115080000Y-108930000D02*
X112420000Y-108930000D01*
X115080000Y-110200000D02*
X115080000Y-111530000D01*
X115080000Y-111530000D02*
X113750000Y-111530000D01*
%TO.C,J1*%
X112420000Y-69130000D02*
X112420000Y-86970000D01*
X115080000Y-69130000D02*
X112420000Y-69130000D01*
X115080000Y-69130000D02*
X115080000Y-86970000D01*
X115080000Y-86970000D02*
X112420000Y-86970000D01*
X115080000Y-88240000D02*
X115080000Y-89570000D01*
X115080000Y-89570000D02*
X113750000Y-89570000D01*
%TO.C,J7*%
X168920000Y-91090000D02*
X168920000Y-108930000D01*
X171580000Y-91090000D02*
X168920000Y-91090000D01*
X171580000Y-91090000D02*
X171580000Y-108930000D01*
X171580000Y-108930000D02*
X168920000Y-108930000D01*
X171580000Y-110200000D02*
X171580000Y-111530000D01*
X171580000Y-111530000D02*
X170250000Y-111530000D01*
%TD*%
M02*
