%TF.GenerationSoftware,KiCad,Pcbnew,8.0.7*%
%TF.CreationDate,2025-01-09T07:47:35+08:00*%
%TF.ProjectId,V2.5 Mechanical Seven Segment Digit,56322e35-204d-4656-9368-616e6963616c,rev?*%
%TF.SameCoordinates,Original*%
%TF.FileFunction,Copper,L2,Bot*%
%TF.FilePolarity,Positive*%
%FSLAX46Y46*%
G04 Gerber Fmt 4.6, Leading zero omitted, Abs format (unit mm)*
G04 Created by KiCad (PCBNEW 8.0.7) date 2025-01-09 07:47:35*
%MOMM*%
%LPD*%
G01*
G04 APERTURE LIST*
%TA.AperFunction,ComponentPad*%
%ADD10R,1.700000X1.700000*%
%TD*%
%TA.AperFunction,ComponentPad*%
%ADD11O,1.700000X1.700000*%
%TD*%
%TA.AperFunction,ComponentPad*%
%ADD12R,3.200000X3.200000*%
%TD*%
%TA.AperFunction,ComponentPad*%
%ADD13O,3.200000X3.200000*%
%TD*%
%TA.AperFunction,ComponentPad*%
%ADD14C,1.600000*%
%TD*%
%TA.AperFunction,ComponentPad*%
%ADD15O,1.600000X1.600000*%
%TD*%
%TA.AperFunction,ViaPad*%
%ADD16C,0.600000*%
%TD*%
%TA.AperFunction,Conductor*%
%ADD17C,0.200000*%
%TD*%
%TA.AperFunction,Conductor*%
%ADD18C,0.800000*%
%TD*%
G04 APERTURE END LIST*
D10*
%TO.P,J9,1,Pin_1*%
%TO.N,Net-(J11-Pin_1)*%
X147500000Y-122250000D03*
D11*
%TO.P,J9,2,Pin_2*%
%TO.N,Net-(J11-Pin_2)*%
X147500000Y-124790000D03*
%TO.P,J9,3,Pin_3*%
%TO.N,Net-(J11-Pin_3)*%
X147500000Y-127330000D03*
%TO.P,J9,4,Pin_4*%
%TO.N,Net-(J11-Pin_4)*%
X147500000Y-129870000D03*
%TO.P,J9,5,Pin_5*%
%TO.N,Net-(J11-Pin_5)*%
X147500000Y-132410000D03*
%TO.P,J9,6,Pin_6*%
%TO.N,Net-(J11-Pin_6)*%
X147500000Y-134950000D03*
%TO.P,J9,7,Pin_7*%
%TO.N,Net-(J11-Pin_7)*%
X147500000Y-137490000D03*
%TO.P,J9,8,Pin_8*%
%TO.N,Net-(J11-Pin_8)*%
X147500000Y-140030000D03*
%TD*%
D12*
%TO.P,D5,1,K*%
%TO.N,Net-(D1-K)*%
X134870000Y-99500000D03*
D13*
%TO.P,D5,2,A*%
%TO.N,Net-(D5-A)*%
X119630000Y-99500000D03*
%TD*%
D10*
%TO.P,J12,1,Pin_1*%
%TO.N,Net-(D1-A)*%
X143250000Y-71220000D03*
D11*
%TO.P,J12,2,Pin_2*%
%TO.N,Net-(D2-A)*%
X140710000Y-71220000D03*
%TO.P,J12,3,Pin_3*%
%TO.N,Net-(D3-A)*%
X143250000Y-73760000D03*
%TO.P,J12,4,Pin_4*%
%TO.N,Net-(D4-A)*%
X140710000Y-73760000D03*
%TO.P,J12,5,Pin_5*%
%TO.N,Net-(D5-A)*%
X143250000Y-76300000D03*
%TO.P,J12,6,Pin_6*%
%TO.N,Net-(D6-A)*%
X140710000Y-76300000D03*
%TO.P,J12,7,Pin_7*%
%TO.N,Net-(D7-A)*%
X143250000Y-78840000D03*
%TO.P,J12,8,Pin_8*%
%TO.N,Net-(D8-A)*%
X140710000Y-78840000D03*
%TO.P,J12,9,Pin_9*%
%TO.N,Net-(D9-A)*%
X143250000Y-81380000D03*
%TO.P,J12,10,Pin_10*%
%TO.N,Net-(D10-A)*%
X140710000Y-81380000D03*
%TO.P,J12,11,Pin_11*%
%TO.N,Net-(D11-A)*%
X143250000Y-83920000D03*
%TO.P,J12,12,Pin_12*%
%TO.N,Net-(D12-A)*%
X140710000Y-83920000D03*
%TO.P,J12,13,Pin_13*%
%TO.N,Net-(D13-A)*%
X143250000Y-86460000D03*
%TO.P,J12,14,Pin_14*%
%TO.N,Net-(D14-A)*%
X140710000Y-86460000D03*
%TO.P,J12,15,Pin_15*%
%TO.N,Net-(D15-A)*%
X143250000Y-89000000D03*
%TO.P,J12,16,Pin_16*%
%TO.N,Net-(D16-A)*%
X140710000Y-89000000D03*
%TD*%
D12*
%TO.P,D2,1,K*%
%TO.N,Net-(D1-K)*%
X149380000Y-111500000D03*
D13*
%TO.P,D2,2,A*%
%TO.N,Net-(D2-A)*%
X164620000Y-111500000D03*
%TD*%
D12*
%TO.P,D12,1,K*%
%TO.N,Net-(D1-K)*%
X149380000Y-81500000D03*
D13*
%TO.P,D12,2,A*%
%TO.N,Net-(D12-A)*%
X164620000Y-81500000D03*
%TD*%
D12*
%TO.P,D3,1,K*%
%TO.N,Net-(D1-K)*%
X134870000Y-105500000D03*
D13*
%TO.P,D3,2,A*%
%TO.N,Net-(D3-A)*%
X119630000Y-105500000D03*
%TD*%
D12*
%TO.P,D8,1,K*%
%TO.N,Net-(D1-K)*%
X149380000Y-93500000D03*
D13*
%TO.P,D8,2,A*%
%TO.N,Net-(D8-A)*%
X164620000Y-93500000D03*
%TD*%
D12*
%TO.P,D7,1,K*%
%TO.N,Net-(D1-K)*%
X134870000Y-93500000D03*
D13*
%TO.P,D7,2,A*%
%TO.N,Net-(D7-A)*%
X119630000Y-93500000D03*
%TD*%
D12*
%TO.P,D6,1,K*%
%TO.N,Net-(D1-K)*%
X149380000Y-99500000D03*
D13*
%TO.P,D6,2,A*%
%TO.N,Net-(D6-A)*%
X164620000Y-99500000D03*
%TD*%
D10*
%TO.P,J3,1,Pin_1*%
%TO.N,Com Anode*%
X143250000Y-114275000D03*
D11*
%TO.P,J3,2,Pin_2*%
X140710000Y-114275000D03*
%TD*%
D10*
%TO.P,J10,1,Pin_1*%
%TO.N,Net-(J10-Pin_1)*%
X136500000Y-122260000D03*
D11*
%TO.P,J10,2,Pin_2*%
%TO.N,Net-(J10-Pin_2)*%
X136500000Y-124800000D03*
%TO.P,J10,3,Pin_3*%
%TO.N,Net-(J10-Pin_3)*%
X136500000Y-127340000D03*
%TO.P,J10,4,Pin_4*%
%TO.N,Net-(J10-Pin_4)*%
X136500000Y-129880000D03*
%TO.P,J10,5,Pin_5*%
%TO.N,Net-(J10-Pin_5)*%
X136500000Y-132420000D03*
%TO.P,J10,6,Pin_6*%
%TO.N,Net-(J10-Pin_6)*%
X136500000Y-134960000D03*
%TO.P,J10,7,Pin_7*%
%TO.N,Net-(J10-Pin_7)*%
X136500000Y-137500000D03*
%TO.P,J10,8,Pin_8*%
%TO.N,Net-(J10-Pin_8)*%
X136500000Y-140040000D03*
%TD*%
D12*
%TO.P,D14,1,K*%
%TO.N,Net-(D1-K)*%
X149380000Y-75500000D03*
D13*
%TO.P,D14,2,A*%
%TO.N,Net-(D14-A)*%
X164620000Y-75500000D03*
%TD*%
D12*
%TO.P,D15,1,K*%
%TO.N,Net-(D1-K)*%
X134870000Y-69500000D03*
D13*
%TO.P,D15,2,A*%
%TO.N,Net-(D15-A)*%
X119630000Y-69500000D03*
%TD*%
D14*
%TO.P,R1,1*%
%TO.N,Net-(D1-K)*%
X160810000Y-116250000D03*
D15*
%TO.P,R1,2*%
%TO.N,Com Anode*%
X153190000Y-116250000D03*
%TD*%
D12*
%TO.P,D9,1,K*%
%TO.N,Net-(D1-K)*%
X134870000Y-87500000D03*
D13*
%TO.P,D9,2,A*%
%TO.N,Net-(D9-A)*%
X119630000Y-87500000D03*
%TD*%
D12*
%TO.P,D11,1,K*%
%TO.N,Net-(D1-K)*%
X134870000Y-81500000D03*
D13*
%TO.P,D11,2,A*%
%TO.N,Net-(D11-A)*%
X119630000Y-81500000D03*
%TD*%
D10*
%TO.P,J8,1,Pin_1*%
%TO.N,Net-(J10-Pin_1)*%
X118600000Y-122260000D03*
D11*
%TO.P,J8,2,Pin_2*%
%TO.N,Net-(J10-Pin_2)*%
X118600000Y-124800000D03*
%TO.P,J8,3,Pin_3*%
%TO.N,Net-(J10-Pin_3)*%
X118600000Y-127340000D03*
%TO.P,J8,4,Pin_4*%
%TO.N,Net-(J10-Pin_4)*%
X118600000Y-129880000D03*
%TO.P,J8,5,Pin_5*%
%TO.N,Net-(J10-Pin_5)*%
X118600000Y-132420000D03*
%TO.P,J8,6,Pin_6*%
%TO.N,Net-(J10-Pin_6)*%
X118600000Y-134960000D03*
%TO.P,J8,7,Pin_7*%
%TO.N,Net-(J10-Pin_7)*%
X118600000Y-137500000D03*
%TO.P,J8,8,Pin_8*%
%TO.N,Net-(J10-Pin_8)*%
X118600000Y-140040000D03*
%TD*%
D12*
%TO.P,D4,1,K*%
%TO.N,Net-(D1-K)*%
X149380000Y-105500000D03*
D13*
%TO.P,D4,2,A*%
%TO.N,Net-(D4-A)*%
X164620000Y-105500000D03*
%TD*%
D12*
%TO.P,D10,1,K*%
%TO.N,Net-(D1-K)*%
X149380000Y-87500000D03*
D13*
%TO.P,D10,2,A*%
%TO.N,Net-(D10-A)*%
X164620000Y-87500000D03*
%TD*%
D10*
%TO.P,J11,1,Pin_1*%
%TO.N,Net-(J11-Pin_1)*%
X165400000Y-122250000D03*
D11*
%TO.P,J11,2,Pin_2*%
%TO.N,Net-(J11-Pin_2)*%
X165400000Y-124790000D03*
%TO.P,J11,3,Pin_3*%
%TO.N,Net-(J11-Pin_3)*%
X165400000Y-127330000D03*
%TO.P,J11,4,Pin_4*%
%TO.N,Net-(J11-Pin_4)*%
X165400000Y-129870000D03*
%TO.P,J11,5,Pin_5*%
%TO.N,Net-(J11-Pin_5)*%
X165400000Y-132410000D03*
%TO.P,J11,6,Pin_6*%
%TO.N,Net-(J11-Pin_6)*%
X165400000Y-134950000D03*
%TO.P,J11,7,Pin_7*%
%TO.N,Net-(J11-Pin_7)*%
X165400000Y-137490000D03*
%TO.P,J11,8,Pin_8*%
%TO.N,Net-(J11-Pin_8)*%
X165400000Y-140030000D03*
%TD*%
D12*
%TO.P,D1,1,K*%
%TO.N,Net-(D1-K)*%
X134870000Y-111500000D03*
D13*
%TO.P,D1,2,A*%
%TO.N,Net-(D1-A)*%
X119630000Y-111500000D03*
%TD*%
D12*
%TO.P,D16,1,K*%
%TO.N,Net-(D1-K)*%
X149380000Y-69500000D03*
D13*
%TO.P,D16,2,A*%
%TO.N,Net-(D16-A)*%
X164620000Y-69500000D03*
%TD*%
D12*
%TO.P,D13,1,K*%
%TO.N,Net-(D1-K)*%
X134870000Y-75500000D03*
D13*
%TO.P,D13,2,A*%
%TO.N,Net-(D13-A)*%
X119630000Y-75500000D03*
%TD*%
D10*
%TO.P,J6,1,Pin_1*%
%TO.N,Net-(D1-A)*%
X170250000Y-88230000D03*
D11*
%TO.P,J6,2,Pin_2*%
%TO.N,Net-(D3-A)*%
X170250000Y-85690000D03*
%TO.P,J6,3,Pin_3*%
%TO.N,Net-(D5-A)*%
X170250000Y-83150000D03*
%TO.P,J6,4,Pin_4*%
%TO.N,Net-(D7-A)*%
X170250000Y-80610000D03*
%TO.P,J6,5,Pin_5*%
%TO.N,Net-(D9-A)*%
X170250000Y-78070000D03*
%TO.P,J6,6,Pin_6*%
%TO.N,Net-(D11-A)*%
X170250000Y-75530000D03*
%TO.P,J6,7,Pin_7*%
%TO.N,Net-(D13-A)*%
X170250000Y-72990000D03*
%TO.P,J6,8,Pin_8*%
%TO.N,Net-(D15-A)*%
X170250000Y-70450000D03*
%TD*%
D10*
%TO.P,J5,1,Pin_1*%
%TO.N,Com Anode*%
X140710000Y-107025000D03*
D11*
%TO.P,J5,2,Pin_2*%
X143250000Y-107025000D03*
%TD*%
D10*
%TO.P,J2,1,Pin_1*%
%TO.N,Net-(D2-A)*%
X113750000Y-110200000D03*
D11*
%TO.P,J2,2,Pin_2*%
%TO.N,Net-(D4-A)*%
X113750000Y-107660000D03*
%TO.P,J2,3,Pin_3*%
%TO.N,Net-(D6-A)*%
X113750000Y-105120000D03*
%TO.P,J2,4,Pin_4*%
%TO.N,Net-(D8-A)*%
X113750000Y-102580000D03*
%TO.P,J2,5,Pin_5*%
%TO.N,Net-(D10-A)*%
X113750000Y-100040000D03*
%TO.P,J2,6,Pin_6*%
%TO.N,Net-(D12-A)*%
X113750000Y-97500000D03*
%TO.P,J2,7,Pin_7*%
%TO.N,Net-(D14-A)*%
X113750000Y-94960000D03*
%TO.P,J2,8,Pin_8*%
%TO.N,Net-(D16-A)*%
X113750000Y-92420000D03*
%TD*%
D10*
%TO.P,J1,1,Pin_1*%
%TO.N,Net-(D1-A)*%
X113750000Y-88240000D03*
D11*
%TO.P,J1,2,Pin_2*%
%TO.N,Net-(D3-A)*%
X113750000Y-85700000D03*
%TO.P,J1,3,Pin_3*%
%TO.N,Net-(D5-A)*%
X113750000Y-83160000D03*
%TO.P,J1,4,Pin_4*%
%TO.N,Net-(D7-A)*%
X113750000Y-80620000D03*
%TO.P,J1,5,Pin_5*%
%TO.N,Net-(D9-A)*%
X113750000Y-78080000D03*
%TO.P,J1,6,Pin_6*%
%TO.N,Net-(D11-A)*%
X113750000Y-75540000D03*
%TO.P,J1,7,Pin_7*%
%TO.N,Net-(D13-A)*%
X113750000Y-73000000D03*
%TO.P,J1,8,Pin_8*%
%TO.N,Net-(D15-A)*%
X113750000Y-70460000D03*
%TD*%
D10*
%TO.P,J7,1,Pin_1*%
%TO.N,Net-(D2-A)*%
X170250000Y-110200000D03*
D11*
%TO.P,J7,2,Pin_2*%
%TO.N,Net-(D4-A)*%
X170250000Y-107660000D03*
%TO.P,J7,3,Pin_3*%
%TO.N,Net-(D6-A)*%
X170250000Y-105120000D03*
%TO.P,J7,4,Pin_4*%
%TO.N,Net-(D8-A)*%
X170250000Y-102580000D03*
%TO.P,J7,5,Pin_5*%
%TO.N,Net-(D10-A)*%
X170250000Y-100040000D03*
%TO.P,J7,6,Pin_6*%
%TO.N,Net-(D12-A)*%
X170250000Y-97500000D03*
%TO.P,J7,7,Pin_7*%
%TO.N,Net-(D14-A)*%
X170250000Y-94960000D03*
%TO.P,J7,8,Pin_8*%
%TO.N,Net-(D16-A)*%
X170250000Y-92420000D03*
%TD*%
D16*
%TO.N,Net-(D2-A)*%
X137486400Y-109598300D03*
%TO.N,Net-(D3-A)*%
X146277300Y-79562200D03*
%TO.N,Net-(D4-A)*%
X138145000Y-107660000D03*
%TO.N,Net-(D6-A)*%
X138666500Y-101400000D03*
%TO.N,Net-(D7-A)*%
X117166300Y-84900100D03*
%TO.N,Net-(D8-A)*%
X139286000Y-95413000D03*
%TO.N,Net-(D11-A)*%
X144906700Y-77750900D03*
%TO.N,Net-(D12-A)*%
X139750000Y-91250000D03*
%TO.N,Net-(D15-A)*%
X146889500Y-69164200D03*
%TD*%
D17*
%TO.N,Net-(D1-A)*%
X142098300Y-72371700D02*
X131447700Y-72371700D01*
X120396200Y-83423200D02*
X118738100Y-83423200D01*
X112151900Y-86641900D02*
X113750000Y-88240000D01*
X131447700Y-72371700D02*
X120396200Y-83423200D01*
X114772300Y-79457400D02*
X113270800Y-79457400D01*
X143250000Y-71220000D02*
X142098300Y-72371700D01*
X112151900Y-80576300D02*
X112151900Y-86641900D01*
X118738100Y-83423200D02*
X114772300Y-79457400D01*
X113270800Y-79457400D02*
X112151900Y-80576300D01*
D18*
%TO.N,Com Anode*%
X152940000Y-116500000D02*
X153190000Y-116250000D01*
X143250000Y-107025000D02*
X140710000Y-107025000D01*
D17*
%TO.N,Net-(D2-A)*%
X167821700Y-110200000D02*
X166521700Y-111500000D01*
X113750000Y-110200000D02*
X114901700Y-110200000D01*
X160816600Y-109598300D02*
X162718300Y-111500000D01*
X164620000Y-111500000D02*
X166521700Y-111500000D01*
X115503400Y-109598300D02*
X137486400Y-109598300D01*
X137486400Y-109598300D02*
X160816600Y-109598300D01*
X170250000Y-110200000D02*
X167821700Y-110200000D01*
X164620000Y-111500000D02*
X162718300Y-111500000D01*
X114901700Y-110200000D02*
X115503400Y-109598300D01*
%TO.N,Net-(D3-A)*%
X142098300Y-74911700D02*
X140430500Y-74911700D01*
X120768500Y-83850600D02*
X118445900Y-83850600D01*
X118445900Y-83850600D02*
X116597000Y-82001700D01*
X113273500Y-82001700D02*
X112576700Y-82698500D01*
X137725800Y-77616400D02*
X127002700Y-77616400D01*
X140430500Y-74911700D02*
X137725800Y-77616400D01*
X169098300Y-85690000D02*
X168620900Y-85212600D01*
X170250000Y-85690000D02*
X169098300Y-85690000D01*
X164932600Y-85212600D02*
X159282200Y-79562200D01*
X168620900Y-85212600D02*
X164932600Y-85212600D01*
X112576700Y-82698500D02*
X112576700Y-83643500D01*
X113750000Y-84816800D02*
X113750000Y-85700000D01*
X116597000Y-82001700D02*
X113273500Y-82001700D01*
X127002700Y-77616400D02*
X120768500Y-83850600D01*
X143250000Y-73760000D02*
X142098300Y-74911700D01*
X112576700Y-83643500D02*
X113750000Y-84816800D01*
X159282200Y-79562200D02*
X146277300Y-79562200D01*
%TO.N,Net-(D4-A)*%
X113750000Y-107660000D02*
X114901700Y-107660000D01*
X162718300Y-105500000D02*
X160034100Y-108184200D01*
X138669200Y-108184200D02*
X138145000Y-107660000D01*
X169098300Y-107660000D02*
X166938300Y-105500000D01*
X166938300Y-105500000D02*
X164620000Y-105500000D01*
X170250000Y-107660000D02*
X169098300Y-107660000D01*
X164620000Y-105500000D02*
X162718300Y-105500000D01*
X114901700Y-107660000D02*
X138145000Y-107660000D01*
X160034100Y-108184200D02*
X138669200Y-108184200D01*
%TO.N,Net-(D5-A)*%
X114901700Y-83160000D02*
X116019700Y-84278000D01*
X143250000Y-76300000D02*
X143250000Y-77451700D01*
X144401700Y-78362900D02*
X143490500Y-77451700D01*
X113750000Y-83160000D02*
X114901700Y-83160000D01*
X137450300Y-79193800D02*
X139192400Y-77451700D01*
X170250000Y-82286200D02*
X171448900Y-81087300D01*
X167967900Y-79340000D02*
X166990900Y-78363000D01*
X170629400Y-79340000D02*
X167967900Y-79340000D01*
X170250000Y-83150000D02*
X170250000Y-82286200D01*
X166990900Y-78363000D02*
X144401700Y-78363000D01*
X144401700Y-78363000D02*
X144401700Y-78362900D01*
X122322500Y-84278000D02*
X127406700Y-79193800D01*
X143490500Y-77451700D02*
X143250000Y-77451700D01*
X116019700Y-84278000D02*
X122322500Y-84278000D01*
X127406700Y-79193800D02*
X137450300Y-79193800D01*
X139192400Y-77451700D02*
X143250000Y-77451700D01*
X171448900Y-80159500D02*
X170629400Y-79340000D01*
X171448900Y-81087300D02*
X171448900Y-80159500D01*
%TO.N,Net-(D6-A)*%
X138668200Y-101401700D02*
X162718300Y-101401700D01*
X138664800Y-101401700D02*
X118620000Y-101401700D01*
X118620000Y-101401700D02*
X114901700Y-105120000D01*
X138666500Y-101400000D02*
X138668200Y-101401700D01*
X138666500Y-101400000D02*
X138664800Y-101401700D01*
X162718300Y-101401700D02*
X164620000Y-99500000D01*
X164620000Y-100641700D02*
X164620000Y-99500000D01*
X113750000Y-105120000D02*
X114901700Y-105120000D01*
X169098300Y-105120000D02*
X164620000Y-100641700D01*
X170250000Y-105120000D02*
X169098300Y-105120000D01*
%TO.N,Net-(D7-A)*%
X117166300Y-84900100D02*
X122336900Y-84900100D01*
X143825900Y-78840000D02*
X144401700Y-78840000D01*
X139996700Y-80000000D02*
X141226200Y-80000000D01*
X141226200Y-80000000D02*
X142098300Y-79127900D01*
X142098300Y-78840000D02*
X143250000Y-78840000D01*
X123833800Y-83403200D02*
X136593500Y-83403200D01*
X142098300Y-79127900D02*
X142098300Y-78840000D01*
X143825900Y-78840000D02*
X143250000Y-78840000D01*
X144401700Y-78840000D02*
X164708400Y-78840000D01*
X136593500Y-83403200D02*
X139996700Y-80000000D01*
X164708400Y-78840000D02*
X166478400Y-80610000D01*
X122336900Y-84900100D02*
X123833800Y-83403200D01*
X166478400Y-80610000D02*
X170250000Y-80610000D01*
%TO.N,Net-(D8-A)*%
X160805300Y-95413000D02*
X139286000Y-95413000D01*
X113822000Y-102580000D02*
X119547700Y-96854300D01*
X137844700Y-96854300D02*
X139286000Y-95413000D01*
X113750000Y-102580000D02*
X113822000Y-102580000D01*
X119547700Y-96854300D02*
X137844700Y-96854300D01*
X164620000Y-93500000D02*
X162718300Y-93500000D01*
X162718300Y-93500000D02*
X160805300Y-95413000D01*
%TO.N,Net-(D9-A)*%
X158137300Y-85598300D02*
X161941800Y-89402800D01*
X138409800Y-84538500D02*
X140298300Y-82650000D01*
X147468300Y-85598300D02*
X158137300Y-85598300D01*
X119630000Y-87500000D02*
X128820200Y-87500000D01*
X131781700Y-84538500D02*
X138409800Y-84538500D01*
X161941800Y-89402800D02*
X165487000Y-89402800D01*
X143250000Y-81380000D02*
X147468300Y-85598300D01*
X170633500Y-86937400D02*
X171899300Y-85671600D01*
X141980000Y-82650000D02*
X143250000Y-81380000D01*
X171899300Y-79719300D02*
X170250000Y-78070000D01*
X140298300Y-82650000D02*
X141980000Y-82650000D01*
X165487000Y-89402800D02*
X167952400Y-86937400D01*
X167952400Y-86937400D02*
X170633500Y-86937400D01*
X128820200Y-87500000D02*
X131781700Y-84538500D01*
X171899300Y-85671600D02*
X171899300Y-79719300D01*
%TO.N,Net-(D10-A)*%
X159161800Y-83943500D02*
X162718300Y-87500000D01*
X147446600Y-83943500D02*
X159161800Y-83943500D01*
X141573800Y-81380000D02*
X142745400Y-80208400D01*
X112250000Y-98540000D02*
X112250000Y-92097300D01*
X162718300Y-87500000D02*
X164620000Y-87500000D01*
X142745400Y-80208400D02*
X143711500Y-80208400D01*
X140710000Y-81380000D02*
X141573800Y-81380000D01*
X113750000Y-100040000D02*
X112250000Y-98540000D01*
X112250000Y-92097300D02*
X119038800Y-85308500D01*
X136826700Y-84111600D02*
X139558300Y-81380000D01*
X143711500Y-80208400D02*
X147446600Y-83943500D01*
X125515500Y-85308500D02*
X126712400Y-84111600D01*
X126712400Y-84111600D02*
X136826700Y-84111600D01*
X119038800Y-85308500D02*
X125515500Y-85308500D01*
X139558300Y-81380000D02*
X140710000Y-81380000D01*
%TO.N,Net-(D11-A)*%
X166877400Y-77750900D02*
X169098300Y-75530000D01*
X119630000Y-81500000D02*
X121531700Y-81500000D01*
X138986700Y-70058400D02*
X137348500Y-71696600D01*
X131335100Y-71696600D02*
X121531700Y-81500000D01*
X144906700Y-77750900D02*
X144906700Y-70694700D01*
X137348500Y-71696600D02*
X131335100Y-71696600D01*
X144906700Y-77750900D02*
X166877400Y-77750900D01*
X118826200Y-81500000D02*
X119630000Y-81500000D01*
X113750000Y-75540000D02*
X113750000Y-76423800D01*
X144906700Y-70694700D02*
X144270400Y-70058400D01*
X170250000Y-75530000D02*
X169098300Y-75530000D01*
X144270400Y-70058400D02*
X138986700Y-70058400D01*
X113750000Y-76423800D02*
X118826200Y-81500000D01*
%TO.N,Net-(D12-A)*%
X132751900Y-91598200D02*
X127897500Y-96452600D01*
X115949100Y-96452600D02*
X114901700Y-97500000D01*
X167948400Y-94403900D02*
X170250000Y-96705500D01*
X139750000Y-91250000D02*
X140021900Y-90978100D01*
X170250000Y-96705500D02*
X170250000Y-97500000D01*
X114901700Y-97500000D02*
X113750000Y-97500000D01*
X167948400Y-94107000D02*
X167948400Y-94403900D01*
X164819500Y-90978100D02*
X167948400Y-94107000D01*
X127897500Y-96452600D02*
X115949100Y-96452600D01*
X139750000Y-91250000D02*
X139401800Y-91598200D01*
X140021900Y-90978100D02*
X164819500Y-90978100D01*
X139401800Y-91598200D02*
X132751900Y-91598200D01*
%TO.N,Net-(D13-A)*%
X113750000Y-73000000D02*
X115228300Y-73000000D01*
X115228300Y-73000000D02*
X117728300Y-75500000D01*
X119630000Y-75500000D02*
X117728300Y-75500000D01*
%TO.N,Net-(D14-A)*%
X132184000Y-91398300D02*
X118463400Y-91398300D01*
X135021700Y-90996600D02*
X132585700Y-90996600D01*
X169382300Y-94960000D02*
X164998700Y-90576400D01*
X164998700Y-90576400D02*
X140576400Y-90576400D01*
X138044200Y-87974100D02*
X139558300Y-86460000D01*
X140576400Y-90576400D02*
X138044200Y-88044200D01*
X113750000Y-94960000D02*
X114901700Y-94960000D01*
X170250000Y-94960000D02*
X169382300Y-94960000D01*
X118463400Y-91398300D02*
X114901700Y-94960000D01*
X140710000Y-86460000D02*
X139558300Y-86460000D01*
X138044200Y-88044200D02*
X138044200Y-87974100D01*
X138044200Y-87974100D02*
X135021700Y-90996600D01*
X132585700Y-90996600D02*
X132184000Y-91398300D01*
%TO.N,Net-(D15-A)*%
X146889500Y-67566800D02*
X166215100Y-67566800D01*
X113750000Y-70460000D02*
X116768300Y-70460000D01*
X119630000Y-69500000D02*
X121531700Y-69500000D01*
X166215100Y-67566800D02*
X169098300Y-70450000D01*
X119630000Y-69500000D02*
X117728300Y-69500000D01*
X123464900Y-67566800D02*
X146889500Y-67566800D01*
X116768300Y-70460000D02*
X117728300Y-69500000D01*
X121531700Y-69500000D02*
X123464900Y-67566800D01*
X146889500Y-67566800D02*
X146889500Y-69164200D01*
X170250000Y-70450000D02*
X169098300Y-70450000D01*
%TO.N,Net-(D16-A)*%
X142767900Y-90174700D02*
X141861700Y-89268500D01*
X127874600Y-90866600D02*
X116455100Y-90866600D01*
X140710000Y-89000000D02*
X141861700Y-89000000D01*
X170250000Y-92420000D02*
X169098300Y-92420000D01*
X141861700Y-89268500D02*
X141861700Y-89000000D01*
X133491300Y-85249900D02*
X127874600Y-90866600D01*
X116455100Y-90866600D02*
X114901700Y-92420000D01*
X141188200Y-85249900D02*
X133491300Y-85249900D01*
X166853000Y-90174700D02*
X142767900Y-90174700D01*
X169098300Y-92420000D02*
X166853000Y-90174700D01*
X141861700Y-85923400D02*
X141188200Y-85249900D01*
X113750000Y-92420000D02*
X114901700Y-92420000D01*
X141861700Y-89000000D02*
X141861700Y-85923400D01*
D18*
%TO.N,Net-(D1-K)*%
X146726253Y-70750000D02*
X148130000Y-70750000D01*
X134870000Y-69500000D02*
X135370000Y-69000000D01*
X135370000Y-69000000D02*
X144976253Y-69000000D01*
X144976253Y-69000000D02*
X146726253Y-70750000D01*
X134870000Y-93500000D02*
X149380000Y-93500000D01*
X134870000Y-99500000D02*
X149380000Y-99500000D01*
X134870000Y-111500000D02*
X149380000Y-111500000D01*
X148130000Y-70750000D02*
X149380000Y-69500000D01*
%TD*%
M02*
