%TF.GenerationSoftware,KiCad,Pcbnew,8.0.7*%
%TF.CreationDate,2025-01-09T07:47:35+08:00*%
%TF.ProjectId,V2.5 Mechanical Seven Segment Digit,56322e35-204d-4656-9368-616e6963616c,rev?*%
%TF.SameCoordinates,Original*%
%TF.FileFunction,Copper,L1,Top*%
%TF.FilePolarity,Positive*%
%FSLAX46Y46*%
G04 Gerber Fmt 4.6, Leading zero omitted, Abs format (unit mm)*
G04 Created by KiCad (PCBNEW 8.0.7) date 2025-01-09 07:47:35*
%MOMM*%
%LPD*%
G01*
G04 APERTURE LIST*
%TA.AperFunction,ComponentPad*%
%ADD10R,1.700000X1.700000*%
%TD*%
%TA.AperFunction,ComponentPad*%
%ADD11O,1.700000X1.700000*%
%TD*%
%TA.AperFunction,ComponentPad*%
%ADD12R,3.200000X3.200000*%
%TD*%
%TA.AperFunction,ComponentPad*%
%ADD13O,3.200000X3.200000*%
%TD*%
%TA.AperFunction,ComponentPad*%
%ADD14C,1.600000*%
%TD*%
%TA.AperFunction,ComponentPad*%
%ADD15O,1.600000X1.600000*%
%TD*%
%TA.AperFunction,ViaPad*%
%ADD16C,0.600000*%
%TD*%
%TA.AperFunction,Conductor*%
%ADD17C,0.200000*%
%TD*%
%TA.AperFunction,Conductor*%
%ADD18C,1.200000*%
%TD*%
%TA.AperFunction,Conductor*%
%ADD19C,0.800000*%
%TD*%
%TA.AperFunction,Conductor*%
%ADD20C,1.000000*%
%TD*%
%TA.AperFunction,Conductor*%
%ADD21C,1.600000*%
%TD*%
G04 APERTURE END LIST*
D10*
%TO.P,J9,1,Pin_1*%
%TO.N,Net-(J11-Pin_1)*%
X147500000Y-122250000D03*
D11*
%TO.P,J9,2,Pin_2*%
%TO.N,Net-(J11-Pin_2)*%
X147500000Y-124790000D03*
%TO.P,J9,3,Pin_3*%
%TO.N,Net-(J11-Pin_3)*%
X147500000Y-127330000D03*
%TO.P,J9,4,Pin_4*%
%TO.N,Net-(J11-Pin_4)*%
X147500000Y-129870000D03*
%TO.P,J9,5,Pin_5*%
%TO.N,Net-(J11-Pin_5)*%
X147500000Y-132410000D03*
%TO.P,J9,6,Pin_6*%
%TO.N,Net-(J11-Pin_6)*%
X147500000Y-134950000D03*
%TO.P,J9,7,Pin_7*%
%TO.N,Net-(J11-Pin_7)*%
X147500000Y-137490000D03*
%TO.P,J9,8,Pin_8*%
%TO.N,Net-(J11-Pin_8)*%
X147500000Y-140030000D03*
%TD*%
D12*
%TO.P,D5,1,K*%
%TO.N,Net-(D1-K)*%
X134870000Y-99500000D03*
D13*
%TO.P,D5,2,A*%
%TO.N,Net-(D5-A)*%
X119630000Y-99500000D03*
%TD*%
D10*
%TO.P,J12,1,Pin_1*%
%TO.N,Net-(D1-A)*%
X143250000Y-71220000D03*
D11*
%TO.P,J12,2,Pin_2*%
%TO.N,Net-(D2-A)*%
X140710000Y-71220000D03*
%TO.P,J12,3,Pin_3*%
%TO.N,Net-(D3-A)*%
X143250000Y-73760000D03*
%TO.P,J12,4,Pin_4*%
%TO.N,Net-(D4-A)*%
X140710000Y-73760000D03*
%TO.P,J12,5,Pin_5*%
%TO.N,Net-(D5-A)*%
X143250000Y-76300000D03*
%TO.P,J12,6,Pin_6*%
%TO.N,Net-(D6-A)*%
X140710000Y-76300000D03*
%TO.P,J12,7,Pin_7*%
%TO.N,Net-(D7-A)*%
X143250000Y-78840000D03*
%TO.P,J12,8,Pin_8*%
%TO.N,Net-(D8-A)*%
X140710000Y-78840000D03*
%TO.P,J12,9,Pin_9*%
%TO.N,Net-(D9-A)*%
X143250000Y-81380000D03*
%TO.P,J12,10,Pin_10*%
%TO.N,Net-(D10-A)*%
X140710000Y-81380000D03*
%TO.P,J12,11,Pin_11*%
%TO.N,Net-(D11-A)*%
X143250000Y-83920000D03*
%TO.P,J12,12,Pin_12*%
%TO.N,Net-(D12-A)*%
X140710000Y-83920000D03*
%TO.P,J12,13,Pin_13*%
%TO.N,Net-(D13-A)*%
X143250000Y-86460000D03*
%TO.P,J12,14,Pin_14*%
%TO.N,Net-(D14-A)*%
X140710000Y-86460000D03*
%TO.P,J12,15,Pin_15*%
%TO.N,Net-(D15-A)*%
X143250000Y-89000000D03*
%TO.P,J12,16,Pin_16*%
%TO.N,Net-(D16-A)*%
X140710000Y-89000000D03*
%TD*%
D12*
%TO.P,D2,1,K*%
%TO.N,Net-(D1-K)*%
X149380000Y-111500000D03*
D13*
%TO.P,D2,2,A*%
%TO.N,Net-(D2-A)*%
X164620000Y-111500000D03*
%TD*%
D12*
%TO.P,D12,1,K*%
%TO.N,Net-(D1-K)*%
X149380000Y-81500000D03*
D13*
%TO.P,D12,2,A*%
%TO.N,Net-(D12-A)*%
X164620000Y-81500000D03*
%TD*%
D12*
%TO.P,D3,1,K*%
%TO.N,Net-(D1-K)*%
X134870000Y-105500000D03*
D13*
%TO.P,D3,2,A*%
%TO.N,Net-(D3-A)*%
X119630000Y-105500000D03*
%TD*%
D12*
%TO.P,D8,1,K*%
%TO.N,Net-(D1-K)*%
X149380000Y-93500000D03*
D13*
%TO.P,D8,2,A*%
%TO.N,Net-(D8-A)*%
X164620000Y-93500000D03*
%TD*%
D12*
%TO.P,D7,1,K*%
%TO.N,Net-(D1-K)*%
X134870000Y-93500000D03*
D13*
%TO.P,D7,2,A*%
%TO.N,Net-(D7-A)*%
X119630000Y-93500000D03*
%TD*%
D12*
%TO.P,D6,1,K*%
%TO.N,Net-(D1-K)*%
X149380000Y-99500000D03*
D13*
%TO.P,D6,2,A*%
%TO.N,Net-(D6-A)*%
X164620000Y-99500000D03*
%TD*%
D10*
%TO.P,J3,1,Pin_1*%
%TO.N,Com Anode*%
X143250000Y-114275000D03*
D11*
%TO.P,J3,2,Pin_2*%
X140710000Y-114275000D03*
%TD*%
D10*
%TO.P,J10,1,Pin_1*%
%TO.N,Net-(J10-Pin_1)*%
X136500000Y-122260000D03*
D11*
%TO.P,J10,2,Pin_2*%
%TO.N,Net-(J10-Pin_2)*%
X136500000Y-124800000D03*
%TO.P,J10,3,Pin_3*%
%TO.N,Net-(J10-Pin_3)*%
X136500000Y-127340000D03*
%TO.P,J10,4,Pin_4*%
%TO.N,Net-(J10-Pin_4)*%
X136500000Y-129880000D03*
%TO.P,J10,5,Pin_5*%
%TO.N,Net-(J10-Pin_5)*%
X136500000Y-132420000D03*
%TO.P,J10,6,Pin_6*%
%TO.N,Net-(J10-Pin_6)*%
X136500000Y-134960000D03*
%TO.P,J10,7,Pin_7*%
%TO.N,Net-(J10-Pin_7)*%
X136500000Y-137500000D03*
%TO.P,J10,8,Pin_8*%
%TO.N,Net-(J10-Pin_8)*%
X136500000Y-140040000D03*
%TD*%
D12*
%TO.P,D14,1,K*%
%TO.N,Net-(D1-K)*%
X149380000Y-75500000D03*
D13*
%TO.P,D14,2,A*%
%TO.N,Net-(D14-A)*%
X164620000Y-75500000D03*
%TD*%
D12*
%TO.P,D15,1,K*%
%TO.N,Net-(D1-K)*%
X134870000Y-69500000D03*
D13*
%TO.P,D15,2,A*%
%TO.N,Net-(D15-A)*%
X119630000Y-69500000D03*
%TD*%
D14*
%TO.P,R1,1*%
%TO.N,Net-(D1-K)*%
X160810000Y-116250000D03*
D15*
%TO.P,R1,2*%
%TO.N,Com Anode*%
X153190000Y-116250000D03*
%TD*%
D12*
%TO.P,D9,1,K*%
%TO.N,Net-(D1-K)*%
X134870000Y-87500000D03*
D13*
%TO.P,D9,2,A*%
%TO.N,Net-(D9-A)*%
X119630000Y-87500000D03*
%TD*%
D12*
%TO.P,D11,1,K*%
%TO.N,Net-(D1-K)*%
X134870000Y-81500000D03*
D13*
%TO.P,D11,2,A*%
%TO.N,Net-(D11-A)*%
X119630000Y-81500000D03*
%TD*%
D10*
%TO.P,J8,1,Pin_1*%
%TO.N,Net-(J10-Pin_1)*%
X118600000Y-122260000D03*
D11*
%TO.P,J8,2,Pin_2*%
%TO.N,Net-(J10-Pin_2)*%
X118600000Y-124800000D03*
%TO.P,J8,3,Pin_3*%
%TO.N,Net-(J10-Pin_3)*%
X118600000Y-127340000D03*
%TO.P,J8,4,Pin_4*%
%TO.N,Net-(J10-Pin_4)*%
X118600000Y-129880000D03*
%TO.P,J8,5,Pin_5*%
%TO.N,Net-(J10-Pin_5)*%
X118600000Y-132420000D03*
%TO.P,J8,6,Pin_6*%
%TO.N,Net-(J10-Pin_6)*%
X118600000Y-134960000D03*
%TO.P,J8,7,Pin_7*%
%TO.N,Net-(J10-Pin_7)*%
X118600000Y-137500000D03*
%TO.P,J8,8,Pin_8*%
%TO.N,Net-(J10-Pin_8)*%
X118600000Y-140040000D03*
%TD*%
D12*
%TO.P,D4,1,K*%
%TO.N,Net-(D1-K)*%
X149380000Y-105500000D03*
D13*
%TO.P,D4,2,A*%
%TO.N,Net-(D4-A)*%
X164620000Y-105500000D03*
%TD*%
D12*
%TO.P,D10,1,K*%
%TO.N,Net-(D1-K)*%
X149380000Y-87500000D03*
D13*
%TO.P,D10,2,A*%
%TO.N,Net-(D10-A)*%
X164620000Y-87500000D03*
%TD*%
D10*
%TO.P,J11,1,Pin_1*%
%TO.N,Net-(J11-Pin_1)*%
X165400000Y-122250000D03*
D11*
%TO.P,J11,2,Pin_2*%
%TO.N,Net-(J11-Pin_2)*%
X165400000Y-124790000D03*
%TO.P,J11,3,Pin_3*%
%TO.N,Net-(J11-Pin_3)*%
X165400000Y-127330000D03*
%TO.P,J11,4,Pin_4*%
%TO.N,Net-(J11-Pin_4)*%
X165400000Y-129870000D03*
%TO.P,J11,5,Pin_5*%
%TO.N,Net-(J11-Pin_5)*%
X165400000Y-132410000D03*
%TO.P,J11,6,Pin_6*%
%TO.N,Net-(J11-Pin_6)*%
X165400000Y-134950000D03*
%TO.P,J11,7,Pin_7*%
%TO.N,Net-(J11-Pin_7)*%
X165400000Y-137490000D03*
%TO.P,J11,8,Pin_8*%
%TO.N,Net-(J11-Pin_8)*%
X165400000Y-140030000D03*
%TD*%
D12*
%TO.P,D1,1,K*%
%TO.N,Net-(D1-K)*%
X134870000Y-111500000D03*
D13*
%TO.P,D1,2,A*%
%TO.N,Net-(D1-A)*%
X119630000Y-111500000D03*
%TD*%
D12*
%TO.P,D16,1,K*%
%TO.N,Net-(D1-K)*%
X149380000Y-69500000D03*
D13*
%TO.P,D16,2,A*%
%TO.N,Net-(D16-A)*%
X164620000Y-69500000D03*
%TD*%
D12*
%TO.P,D13,1,K*%
%TO.N,Net-(D1-K)*%
X134870000Y-75500000D03*
D13*
%TO.P,D13,2,A*%
%TO.N,Net-(D13-A)*%
X119630000Y-75500000D03*
%TD*%
D10*
%TO.P,J6,1,Pin_1*%
%TO.N,Net-(D1-A)*%
X170250000Y-88230000D03*
D11*
%TO.P,J6,2,Pin_2*%
%TO.N,Net-(D3-A)*%
X170250000Y-85690000D03*
%TO.P,J6,3,Pin_3*%
%TO.N,Net-(D5-A)*%
X170250000Y-83150000D03*
%TO.P,J6,4,Pin_4*%
%TO.N,Net-(D7-A)*%
X170250000Y-80610000D03*
%TO.P,J6,5,Pin_5*%
%TO.N,Net-(D9-A)*%
X170250000Y-78070000D03*
%TO.P,J6,6,Pin_6*%
%TO.N,Net-(D11-A)*%
X170250000Y-75530000D03*
%TO.P,J6,7,Pin_7*%
%TO.N,Net-(D13-A)*%
X170250000Y-72990000D03*
%TO.P,J6,8,Pin_8*%
%TO.N,Net-(D15-A)*%
X170250000Y-70450000D03*
%TD*%
D10*
%TO.P,J5,1,Pin_1*%
%TO.N,Com Anode*%
X140710000Y-107025000D03*
D11*
%TO.P,J5,2,Pin_2*%
X143250000Y-107025000D03*
%TD*%
D10*
%TO.P,J2,1,Pin_1*%
%TO.N,Net-(D2-A)*%
X113750000Y-110200000D03*
D11*
%TO.P,J2,2,Pin_2*%
%TO.N,Net-(D4-A)*%
X113750000Y-107660000D03*
%TO.P,J2,3,Pin_3*%
%TO.N,Net-(D6-A)*%
X113750000Y-105120000D03*
%TO.P,J2,4,Pin_4*%
%TO.N,Net-(D8-A)*%
X113750000Y-102580000D03*
%TO.P,J2,5,Pin_5*%
%TO.N,Net-(D10-A)*%
X113750000Y-100040000D03*
%TO.P,J2,6,Pin_6*%
%TO.N,Net-(D12-A)*%
X113750000Y-97500000D03*
%TO.P,J2,7,Pin_7*%
%TO.N,Net-(D14-A)*%
X113750000Y-94960000D03*
%TO.P,J2,8,Pin_8*%
%TO.N,Net-(D16-A)*%
X113750000Y-92420000D03*
%TD*%
D10*
%TO.P,J1,1,Pin_1*%
%TO.N,Net-(D1-A)*%
X113750000Y-88240000D03*
D11*
%TO.P,J1,2,Pin_2*%
%TO.N,Net-(D3-A)*%
X113750000Y-85700000D03*
%TO.P,J1,3,Pin_3*%
%TO.N,Net-(D5-A)*%
X113750000Y-83160000D03*
%TO.P,J1,4,Pin_4*%
%TO.N,Net-(D7-A)*%
X113750000Y-80620000D03*
%TO.P,J1,5,Pin_5*%
%TO.N,Net-(D9-A)*%
X113750000Y-78080000D03*
%TO.P,J1,6,Pin_6*%
%TO.N,Net-(D11-A)*%
X113750000Y-75540000D03*
%TO.P,J1,7,Pin_7*%
%TO.N,Net-(D13-A)*%
X113750000Y-73000000D03*
%TO.P,J1,8,Pin_8*%
%TO.N,Net-(D15-A)*%
X113750000Y-70460000D03*
%TD*%
D10*
%TO.P,J7,1,Pin_1*%
%TO.N,Net-(D2-A)*%
X170250000Y-110200000D03*
D11*
%TO.P,J7,2,Pin_2*%
%TO.N,Net-(D4-A)*%
X170250000Y-107660000D03*
%TO.P,J7,3,Pin_3*%
%TO.N,Net-(D6-A)*%
X170250000Y-105120000D03*
%TO.P,J7,4,Pin_4*%
%TO.N,Net-(D8-A)*%
X170250000Y-102580000D03*
%TO.P,J7,5,Pin_5*%
%TO.N,Net-(D10-A)*%
X170250000Y-100040000D03*
%TO.P,J7,6,Pin_6*%
%TO.N,Net-(D12-A)*%
X170250000Y-97500000D03*
%TO.P,J7,7,Pin_7*%
%TO.N,Net-(D14-A)*%
X170250000Y-94960000D03*
%TO.P,J7,8,Pin_8*%
%TO.N,Net-(D16-A)*%
X170250000Y-92420000D03*
%TD*%
D16*
%TO.N,Net-(D2-A)*%
X137486400Y-109598300D03*
%TO.N,Net-(D3-A)*%
X146277300Y-79562200D03*
%TO.N,Net-(D4-A)*%
X138145000Y-107660000D03*
%TO.N,Net-(D6-A)*%
X138666500Y-101400000D03*
%TO.N,Net-(D7-A)*%
X117166300Y-84900100D03*
%TO.N,Net-(D8-A)*%
X139286000Y-95413000D03*
%TO.N,Net-(D11-A)*%
X144906700Y-77750900D03*
%TO.N,Net-(D12-A)*%
X139750000Y-91250000D03*
%TO.N,Net-(D15-A)*%
X146889500Y-69164200D03*
%TD*%
D17*
%TO.N,Net-(D1-A)*%
X166890700Y-74099000D02*
X169098300Y-76306600D01*
X169098300Y-76306600D02*
X169098300Y-87078300D01*
X166890700Y-69029500D02*
X166890700Y-74099000D01*
X113750000Y-88240000D02*
X113750000Y-88250000D01*
X119500000Y-111500000D02*
X119630000Y-111500000D01*
X165459500Y-67598300D02*
X166890700Y-69029500D01*
X147591500Y-67598300D02*
X165459500Y-67598300D01*
X143250000Y-71220000D02*
X143969800Y-71220000D01*
X169098300Y-87078300D02*
X170250000Y-88230000D01*
X115750000Y-107750000D02*
X119500000Y-111500000D01*
X115750000Y-90250000D02*
X115750000Y-107750000D01*
X143969800Y-71220000D02*
X147591500Y-67598300D01*
X113750000Y-88250000D02*
X115750000Y-90250000D01*
D18*
%TO.N,Com Anode*%
X143250000Y-115500000D02*
X144000000Y-116250000D01*
D19*
X143250000Y-107025000D02*
X143250000Y-114275000D01*
D18*
X143250000Y-114275000D02*
X143250000Y-115500000D01*
D20*
X140710000Y-114275000D02*
X140710000Y-107025000D01*
X143250000Y-114275000D02*
X140710000Y-114275000D01*
D18*
X144000000Y-116250000D02*
X153190000Y-116250000D01*
D17*
%TO.N,Net-(D2-A)*%
X137486400Y-75326800D02*
X137486400Y-109598300D01*
X140710000Y-72103200D02*
X137486400Y-75326800D01*
X140710000Y-71220000D02*
X140710000Y-72103200D01*
%TO.N,Net-(D3-A)*%
X143250000Y-74643200D02*
X146277300Y-77670500D01*
X116374300Y-88684200D02*
X116374300Y-102374300D01*
X143250000Y-73760000D02*
X143250000Y-74643200D01*
X116374300Y-102374300D02*
X119500000Y-105500000D01*
X119500000Y-105500000D02*
X119630000Y-105500000D01*
X113750000Y-86059900D02*
X116374300Y-88684200D01*
X113750000Y-85700000D02*
X113750000Y-86059900D01*
X146277300Y-77670500D02*
X146277300Y-79562200D01*
%TO.N,Net-(D4-A)*%
X140710000Y-73760000D02*
X140710000Y-74643200D01*
X140710000Y-74643200D02*
X138052800Y-77300400D01*
X138052800Y-107567800D02*
X138145000Y-107660000D01*
X138052800Y-77300400D02*
X138052800Y-107567800D01*
%TO.N,Net-(D5-A)*%
X113750000Y-83160000D02*
X113750000Y-84023800D01*
X117028700Y-97028700D02*
X119500000Y-99500000D01*
X117028700Y-87302500D02*
X117028700Y-97028700D01*
X113750000Y-84023800D02*
X117028700Y-87302500D01*
X119500000Y-99500000D02*
X119630000Y-99500000D01*
%TO.N,Net-(D6-A)*%
X140710000Y-77183200D02*
X138666500Y-79226700D01*
X138666500Y-79226700D02*
X138666500Y-101400000D01*
X140710000Y-76300000D02*
X140710000Y-77183200D01*
%TO.N,Net-(D7-A)*%
X117437800Y-85171600D02*
X117437800Y-91437800D01*
X113750000Y-80620000D02*
X113750000Y-81483800D01*
X113750000Y-81483800D02*
X117166300Y-84900100D01*
X117437800Y-91437800D02*
X119500000Y-93500000D01*
X117166300Y-84900100D02*
X117437800Y-85171600D01*
X119500000Y-93500000D02*
X119630000Y-93500000D01*
%TO.N,Net-(D8-A)*%
X139119800Y-95246800D02*
X139286000Y-95413000D01*
X139119800Y-80430200D02*
X139119800Y-95246800D01*
X164620000Y-93500000D02*
X164620000Y-96066800D01*
X140710000Y-78840000D02*
X139119800Y-80430200D01*
X170250000Y-101696800D02*
X170250000Y-102580000D01*
X164620000Y-96066800D02*
X170250000Y-101696800D01*
%TO.N,Net-(D9-A)*%
X113750000Y-78985600D02*
X119630000Y-84865600D01*
X119630000Y-84865600D02*
X119630000Y-87500000D01*
X113750000Y-78080000D02*
X113750000Y-78985600D01*
%TO.N,Net-(D10-A)*%
X164620000Y-87500000D02*
X166521700Y-89401700D01*
X166521700Y-95428500D02*
X170250000Y-99156800D01*
X170250000Y-99156800D02*
X170250000Y-100040000D01*
X166521700Y-89401700D02*
X166521700Y-95428500D01*
%TO.N,Net-(D11-A)*%
X143250000Y-83920000D02*
X144906700Y-82263300D01*
X144906700Y-82263300D02*
X144906700Y-77750900D01*
%TO.N,Net-(D12-A)*%
X170250000Y-96636200D02*
X167017300Y-93403500D01*
X167017300Y-93403500D02*
X167017300Y-84517300D01*
X164620000Y-82120000D02*
X164620000Y-81500000D01*
X167017300Y-84517300D02*
X164620000Y-82120000D01*
X139750000Y-91250000D02*
X139536100Y-91036100D01*
X139536100Y-91036100D02*
X139536100Y-85093900D01*
X139536100Y-85093900D02*
X140710000Y-83920000D01*
X170250000Y-97500000D02*
X170250000Y-96636200D01*
%TO.N,Net-(D13-A)*%
X170250000Y-72106000D02*
X167458800Y-69314800D01*
X170250000Y-72990000D02*
X170250000Y-72106000D01*
X121531700Y-75500000D02*
X129458100Y-67573600D01*
X129458100Y-67573600D02*
X139252900Y-67573600D01*
X165714600Y-67195100D02*
X145085600Y-67195100D01*
X167458800Y-69314800D02*
X167458800Y-68939300D01*
X141980000Y-85190000D02*
X143250000Y-86460000D01*
X167458800Y-68939300D02*
X165714600Y-67195100D01*
X139252900Y-67573600D02*
X141980000Y-70300700D01*
X119630000Y-75500000D02*
X121531700Y-75500000D01*
X141980000Y-70300700D02*
X141980000Y-85190000D01*
X145085600Y-67195100D02*
X141980000Y-70300700D01*
%TO.N,Net-(D14-A)*%
X167750700Y-79750700D02*
X164620000Y-76620000D01*
X170250000Y-94960000D02*
X170250000Y-94096200D01*
X164620000Y-76620000D02*
X164620000Y-75500000D01*
X170250000Y-94096200D02*
X167750700Y-91596900D01*
X167750700Y-91596900D02*
X167750700Y-79750700D01*
%TO.N,Net-(D15-A)*%
X146889500Y-84477300D02*
X146889500Y-69164200D01*
X143250000Y-89000000D02*
X143250000Y-87848300D01*
X143250000Y-87848300D02*
X143518500Y-87848300D01*
X143518500Y-87848300D02*
X146889500Y-84477300D01*
%TO.N,Net-(D16-A)*%
X164620000Y-72537700D02*
X168696500Y-76614200D01*
X164620000Y-69500000D02*
X164620000Y-71401700D01*
X170250000Y-92420000D02*
X170250000Y-91268300D01*
X168696500Y-89714800D02*
X170250000Y-91268300D01*
X168696500Y-76614200D02*
X168696500Y-89714800D01*
X164620000Y-71401700D02*
X164620000Y-72537700D01*
D21*
%TO.N,Net-(J10-Pin_6)*%
X118600000Y-134960000D02*
X136500000Y-134960000D01*
%TO.N,Net-(J10-Pin_2)*%
X136500000Y-124800000D02*
X118600000Y-124800000D01*
%TO.N,Net-(J10-Pin_5)*%
X118600000Y-132420000D02*
X136500000Y-132420000D01*
%TO.N,Net-(J10-Pin_7)*%
X136500000Y-137500000D02*
X118600000Y-137500000D01*
%TO.N,Net-(J10-Pin_8)*%
X118600000Y-140040000D02*
X136500000Y-140040000D01*
%TO.N,Net-(J10-Pin_1)*%
X118600000Y-122260000D02*
X136500000Y-122260000D01*
%TO.N,Net-(J10-Pin_4)*%
X136500000Y-129880000D02*
X118600000Y-129880000D01*
%TO.N,Net-(J10-Pin_3)*%
X118600000Y-127340000D02*
X136500000Y-127340000D01*
%TO.N,Net-(J11-Pin_6)*%
X165400000Y-134950000D02*
X147500000Y-134950000D01*
%TO.N,Net-(J11-Pin_2)*%
X165400000Y-124790000D02*
X147500000Y-124790000D01*
%TO.N,Net-(J11-Pin_5)*%
X147500000Y-132410000D02*
X165400000Y-132410000D01*
%TO.N,Net-(J11-Pin_7)*%
X165400000Y-137490000D02*
X147500000Y-137490000D01*
%TO.N,Net-(J11-Pin_8)*%
X147500000Y-140030000D02*
X165400000Y-140030000D01*
%TO.N,Net-(J11-Pin_1)*%
X165400000Y-122250000D02*
X147500000Y-122250000D01*
%TO.N,Net-(J11-Pin_4)*%
X165400000Y-129870000D02*
X147500000Y-129870000D01*
%TO.N,Net-(J11-Pin_3)*%
X147500000Y-127330000D02*
X165400000Y-127330000D01*
D19*
%TO.N,Net-(D1-K)*%
X149380000Y-75500000D02*
X149380000Y-81500000D01*
X134870000Y-87500000D02*
X134870000Y-93500000D01*
X134870000Y-105500000D02*
X134870000Y-99500000D01*
X149380000Y-69500000D02*
X149380000Y-75500000D01*
X134870000Y-81500000D02*
X134870000Y-87500000D01*
X134870000Y-75500000D02*
X134870000Y-69500000D01*
X149380000Y-105500000D02*
X149380000Y-111500000D01*
D18*
X160810000Y-113310000D02*
X160810000Y-116250000D01*
X159000000Y-111500000D02*
X160810000Y-113310000D01*
D19*
X134870000Y-111500000D02*
X134870000Y-105500000D01*
X149380000Y-93500000D02*
X149380000Y-87500000D01*
D18*
X149380000Y-111500000D02*
X159000000Y-111500000D01*
D19*
X134870000Y-93500000D02*
X134870000Y-99500000D01*
X149380000Y-99500000D02*
X149380000Y-93500000D01*
X134870000Y-81500000D02*
X134870000Y-75500000D01*
X149380000Y-99500000D02*
X149380000Y-105500000D01*
X149380000Y-87500000D02*
X149380000Y-81500000D01*
%TD*%
M02*
