%TF.GenerationSoftware,KiCad,Pcbnew,8.0.7*%
%TF.CreationDate,2025-01-09T07:47:35+08:00*%
%TF.ProjectId,V2.5 Mechanical Seven Segment Digit,56322e35-204d-4656-9368-616e6963616c,rev?*%
%TF.SameCoordinates,Original*%
%TF.FileFunction,Soldermask,Top*%
%TF.FilePolarity,Negative*%
%FSLAX46Y46*%
G04 Gerber Fmt 4.6, Leading zero omitted, Abs format (unit mm)*
G04 Created by KiCad (PCBNEW 8.0.7) date 2025-01-09 07:47:35*
%MOMM*%
%LPD*%
G01*
G04 APERTURE LIST*
%ADD10R,1.700000X1.700000*%
%ADD11O,1.700000X1.700000*%
%ADD12R,3.200000X3.200000*%
%ADD13O,3.200000X3.200000*%
%ADD14C,1.600000*%
%ADD15O,1.600000X1.600000*%
G04 APERTURE END LIST*
D10*
%TO.C,J9*%
X147500000Y-122250000D03*
D11*
X147500000Y-124790000D03*
X147500000Y-127330000D03*
X147500000Y-129870000D03*
X147500000Y-132410000D03*
X147500000Y-134950000D03*
X147500000Y-137490000D03*
X147500000Y-140030000D03*
%TD*%
D12*
%TO.C,D5*%
X134870000Y-99500000D03*
D13*
X119630000Y-99500000D03*
%TD*%
D10*
%TO.C,J12*%
X143250000Y-71220000D03*
D11*
X140710000Y-71220000D03*
X143250000Y-73760000D03*
X140710000Y-73760000D03*
X143250000Y-76300000D03*
X140710000Y-76300000D03*
X143250000Y-78840000D03*
X140710000Y-78840000D03*
X143250000Y-81380000D03*
X140710000Y-81380000D03*
X143250000Y-83920000D03*
X140710000Y-83920000D03*
X143250000Y-86460000D03*
X140710000Y-86460000D03*
X143250000Y-89000000D03*
X140710000Y-89000000D03*
%TD*%
D12*
%TO.C,D2*%
X149380000Y-111500000D03*
D13*
X164620000Y-111500000D03*
%TD*%
D12*
%TO.C,D12*%
X149380000Y-81500000D03*
D13*
X164620000Y-81500000D03*
%TD*%
D12*
%TO.C,D3*%
X134870000Y-105500000D03*
D13*
X119630000Y-105500000D03*
%TD*%
D12*
%TO.C,D8*%
X149380000Y-93500000D03*
D13*
X164620000Y-93500000D03*
%TD*%
D12*
%TO.C,D7*%
X134870000Y-93500000D03*
D13*
X119630000Y-93500000D03*
%TD*%
D12*
%TO.C,D6*%
X149380000Y-99500000D03*
D13*
X164620000Y-99500000D03*
%TD*%
D10*
%TO.C,J3*%
X143250000Y-114275000D03*
D11*
X140710000Y-114275000D03*
%TD*%
D10*
%TO.C,J10*%
X136500000Y-122260000D03*
D11*
X136500000Y-124800000D03*
X136500000Y-127340000D03*
X136500000Y-129880000D03*
X136500000Y-132420000D03*
X136500000Y-134960000D03*
X136500000Y-137500000D03*
X136500000Y-140040000D03*
%TD*%
D12*
%TO.C,D14*%
X149380000Y-75500000D03*
D13*
X164620000Y-75500000D03*
%TD*%
D12*
%TO.C,D15*%
X134870000Y-69500000D03*
D13*
X119630000Y-69500000D03*
%TD*%
D14*
%TO.C,R1*%
X160810000Y-116250000D03*
D15*
X153190000Y-116250000D03*
%TD*%
D12*
%TO.C,D9*%
X134870000Y-87500000D03*
D13*
X119630000Y-87500000D03*
%TD*%
D12*
%TO.C,D11*%
X134870000Y-81500000D03*
D13*
X119630000Y-81500000D03*
%TD*%
D10*
%TO.C,J8*%
X118600000Y-122260000D03*
D11*
X118600000Y-124800000D03*
X118600000Y-127340000D03*
X118600000Y-129880000D03*
X118600000Y-132420000D03*
X118600000Y-134960000D03*
X118600000Y-137500000D03*
X118600000Y-140040000D03*
%TD*%
D12*
%TO.C,D4*%
X149380000Y-105500000D03*
D13*
X164620000Y-105500000D03*
%TD*%
D12*
%TO.C,D10*%
X149380000Y-87500000D03*
D13*
X164620000Y-87500000D03*
%TD*%
D10*
%TO.C,J11*%
X165400000Y-122250000D03*
D11*
X165400000Y-124790000D03*
X165400000Y-127330000D03*
X165400000Y-129870000D03*
X165400000Y-132410000D03*
X165400000Y-134950000D03*
X165400000Y-137490000D03*
X165400000Y-140030000D03*
%TD*%
D12*
%TO.C,D1*%
X134870000Y-111500000D03*
D13*
X119630000Y-111500000D03*
%TD*%
D12*
%TO.C,D16*%
X149380000Y-69500000D03*
D13*
X164620000Y-69500000D03*
%TD*%
D12*
%TO.C,D13*%
X134870000Y-75500000D03*
D13*
X119630000Y-75500000D03*
%TD*%
D10*
%TO.C,J6*%
X170250000Y-88230000D03*
D11*
X170250000Y-85690000D03*
X170250000Y-83150000D03*
X170250000Y-80610000D03*
X170250000Y-78070000D03*
X170250000Y-75530000D03*
X170250000Y-72990000D03*
X170250000Y-70450000D03*
%TD*%
D10*
%TO.C,J5*%
X140710000Y-107025000D03*
D11*
X143250000Y-107025000D03*
%TD*%
D10*
%TO.C,J2*%
X113750000Y-110200000D03*
D11*
X113750000Y-107660000D03*
X113750000Y-105120000D03*
X113750000Y-102580000D03*
X113750000Y-100040000D03*
X113750000Y-97500000D03*
X113750000Y-94960000D03*
X113750000Y-92420000D03*
%TD*%
D10*
%TO.C,J1*%
X113750000Y-88240000D03*
D11*
X113750000Y-85700000D03*
X113750000Y-83160000D03*
X113750000Y-80620000D03*
X113750000Y-78080000D03*
X113750000Y-75540000D03*
X113750000Y-73000000D03*
X113750000Y-70460000D03*
%TD*%
D10*
%TO.C,J7*%
X170250000Y-110200000D03*
D11*
X170250000Y-107660000D03*
X170250000Y-105120000D03*
X170250000Y-102580000D03*
X170250000Y-100040000D03*
X170250000Y-97500000D03*
X170250000Y-94960000D03*
X170250000Y-92420000D03*
%TD*%
M02*
